<svg width="102" height="100" viewBox="0 0 102 100" fill="none" xmlns="http://www.w3.org/2000/svg">
<path d="M38.7545 83.0547C37.4331 83.0417 36.1422 83.4524 35.0712 84.2265C34.9896 83.973 34.8297 83.7519 34.6145 83.595C34.3993 83.4382 34.1399 83.3537 33.8736 83.3536H32.1667V100H34.6858V94.4282C35.8166 95.4015 37.2634 95.9292 38.7552 95.9124C40.4488 95.895 42.0671 95.21 43.2585 94.0062C44.4499 92.8025 45.1182 91.1772 45.1182 89.4836C45.1182 87.7899 44.4499 86.1647 43.2585 84.9609C42.0671 83.7572 40.4488 83.0722 38.7552 83.0547H38.7545ZM38.5551 93.5008C37.7587 93.5053 36.9789 93.2732 36.3146 92.8338C35.6503 92.3945 35.1314 91.7679 34.8237 91.0333C34.5161 90.2987 34.4335 89.4893 34.5864 88.7077C34.7393 87.9261 35.1209 87.2075 35.6828 86.6431C36.2446 86.0787 36.9614 85.6938 37.7423 85.5373C38.5232 85.3807 39.333 85.4596 40.069 85.7639C40.805 86.0682 41.434 86.5842 41.8763 87.2465C42.3187 87.9088 42.5544 88.6875 42.5536 89.4839C42.5675 90.0136 42.4737 90.5407 42.2778 91.0331C42.082 91.5255 41.7883 91.973 41.4145 92.3486C41.0406 92.7241 40.5944 93.0199 40.1029 93.218C39.6114 93.416 39.0848 93.5123 38.5551 93.5008Z" fill="#753BBD"/>
<path d="M56.8414 83.7329V83.353H47.4847V85.6611H52.9647L47.0278 95.2868V95.6081H56.8585V93.2715H50.957L56.8414 83.7329Z" fill="#753BBD"/>
<path d="M65.4427 83.0548C64.5877 83.0372 63.7378 83.1904 62.9428 83.5054C62.1478 83.8205 61.4237 84.291 60.8128 84.8894C60.2019 85.4878 59.7166 86.2021 59.3853 86.9905C59.054 87.7789 58.8833 88.6254 58.8833 89.4806C58.8833 90.3357 59.054 91.1823 59.3853 91.9707C59.7166 92.759 60.2019 93.4733 60.8128 94.0718C61.4237 94.6702 62.1478 95.1407 62.9428 95.4557C63.7378 95.7707 64.5877 95.9239 65.4427 95.9063C66.2977 95.9239 67.1476 95.7707 67.9426 95.4557C68.7376 95.1407 69.4618 94.6702 70.0726 94.0718C70.6835 93.4733 71.1688 92.759 71.5001 91.9707C71.8315 91.1823 72.0021 90.3357 72.0021 89.4806C72.0021 88.6254 71.8315 87.7789 71.5001 86.9905C71.1688 86.2021 70.6835 85.4878 70.0726 84.8894C69.4618 84.291 68.7376 83.8205 67.9426 83.5054C67.1476 83.1904 66.2977 83.0372 65.4427 83.0548ZM65.4427 93.5009C64.6459 93.5075 63.865 93.2772 63.1993 92.8393C62.5336 92.4013 62.013 91.7754 61.7037 91.041C61.3943 90.3066 61.3102 89.4969 61.4619 88.7146C61.6135 87.9323 61.9943 87.2127 62.5557 86.6472C63.1171 86.0816 63.8339 85.6957 64.615 85.5382C65.3962 85.3808 66.2065 85.4591 66.9432 85.763C67.6798 86.067 68.3095 86.583 68.7523 87.2455C69.1952 87.908 69.4312 88.6871 69.4304 89.484C69.4524 90.0149 69.3646 90.5447 69.1724 91.0401C68.9802 91.5354 68.6878 91.9858 68.3134 92.3629C67.939 92.74 67.4908 93.0358 66.9968 93.2316C66.5029 93.4274 65.9738 93.5191 65.4427 93.5009Z" fill="#753BBD"/>
<path d="M81.0169 83.075C79.7191 83.0491 78.4559 83.4952 77.4623 84.3305C77.4002 84.0619 77.2515 83.8212 77.0392 83.6454C76.8269 83.4695 76.5626 83.3684 76.2871 83.3576H74.5312V95.6127H77.0504V89.0514C77.0504 86.8871 78.4175 85.3388 80.3422 85.3388C82.1852 85.3388 83.1534 86.5201 83.1534 88.743V95.6086H85.6725V88.229C85.6711 85.2108 83.8826 83.075 81.0169 83.075Z" fill="#753BBD"/>
<path d="M94.7888 83.0547C93.6139 83.0434 92.4584 83.3544 91.4479 83.9539C90.4375 84.5535 89.6107 85.4186 89.0576 86.4552C88.5045 87.4918 88.2462 88.6602 88.3107 89.8334C88.3753 91.0065 88.7603 92.1396 89.4239 93.1092C90.0874 94.0788 91.0041 94.8479 92.0743 95.333C93.1445 95.818 94.3271 96.0003 95.4937 95.86C96.6602 95.7198 97.766 95.2624 98.6907 94.5376C99.6155 93.8128 100.324 92.8483 100.739 91.7491H98.0868C97.749 92.3168 97.2644 92.7831 96.6841 93.0988C96.1037 93.4145 95.449 93.5679 94.7888 93.5431C93.8728 93.5869 92.9747 93.2795 92.2777 92.6835C91.5808 92.0875 91.1376 91.248 91.0387 90.3363H100.985C101.017 90.0617 101.034 89.7855 101.037 89.5091C101.038 85.9422 98.5402 83.0547 94.7888 83.0547ZM91.1014 88.2904C91.2586 87.4367 91.7176 86.6679 92.3946 86.1245C93.0715 85.581 93.9213 85.2991 94.7888 85.3301C95.6601 85.2999 96.5136 85.5814 97.1959 86.124C97.8783 86.6666 98.3448 87.4347 98.5116 88.2904H91.1014Z" fill="#753BBD"/>
<path d="M23.3749 83.0548C22.0534 83.0415 20.7625 83.4522 19.6916 84.2265C19.6098 83.9729 19.4496 83.7517 19.2342 83.5949C19.0187 83.4381 18.7591 83.3536 18.4926 83.3536H16.7905V100H19.3096V94.4282C20.4401 95.4018 21.8871 95.9296 23.379 95.9124C25.0726 95.895 26.6909 95.21 27.8823 94.0062C29.0737 92.8025 29.742 91.1772 29.742 89.4836C29.742 87.7899 29.0737 86.1647 27.8823 84.9609C26.6909 83.7572 25.0726 83.0722 23.379 83.0548H23.3749ZM23.1768 93.5009C22.3803 93.5056 21.6004 93.2737 20.9359 92.8345C20.2715 92.3954 19.7524 91.7688 19.4445 91.0343C19.1366 90.2997 19.0538 89.4902 19.2066 88.7086C19.3594 87.9269 19.7409 87.2082 20.3027 86.6436C20.8645 86.079 21.5813 85.694 22.3622 85.5374C23.1431 85.3808 23.953 85.4596 24.689 85.7638C25.4251 86.0681 26.0542 86.5841 26.4966 87.2464C26.939 87.9087 27.1748 88.6874 27.174 89.4839C27.1879 90.0136 27.0942 90.5406 26.8985 91.033C26.7027 91.5254 26.4091 91.973 26.0353 92.3486C25.6615 92.7241 25.2154 93.0199 24.7239 93.218C24.2324 93.4161 23.7059 93.5123 23.1761 93.5009H23.1768Z" fill="#753BBD"/>
<path d="M11.8831 83.3523H11.8729C11.5416 83.3523 11.2237 83.4827 10.988 83.7154C10.7522 83.9481 10.6176 84.2643 10.6133 84.5955C9.67978 83.7953 8.53635 83.2795 7.3186 83.1094C6.10085 82.9393 4.85986 83.122 3.74277 83.6358C2.62568 84.1495 1.67934 84.9729 1.01597 86.0081C0.352592 87.0434 0 88.2472 0 89.4768C0 90.7063 0.352592 91.9101 1.01597 92.9454C1.67934 93.9807 2.62568 94.804 3.74277 95.3178C4.85986 95.8315 6.10085 96.0142 7.3186 95.8441C8.53635 95.674 9.67978 95.1583 10.6133 94.358C10.6178 94.6891 10.7525 95.005 10.9882 95.2375C11.224 95.4699 11.5418 95.6001 11.8729 95.5999H13.1522L13.1317 83.3523H11.8831ZM6.62974 93.4968C5.83334 93.5012 5.05355 93.2691 4.38926 92.8298C3.72497 92.3905 3.20609 91.7638 2.89842 91.0292C2.59075 90.2946 2.50814 89.4852 2.66108 88.7036C2.81402 87.9221 3.19561 87.2035 3.75746 86.639C4.31932 86.0746 5.03613 85.6897 5.81701 85.5332C6.59789 85.3767 7.40767 85.4556 8.14366 85.7599C8.87964 86.0642 9.50869 86.5802 9.95104 87.2424C10.3934 87.9047 10.6291 88.6834 10.6283 89.4798C10.6418 90.0093 10.5477 90.536 10.3518 91.028C10.1558 91.52 9.86212 91.9672 9.48839 92.3425C9.11466 92.7177 8.66868 93.0133 8.17744 93.2112C7.6862 93.4091 7.15992 93.5054 6.63042 93.4941L6.62974 93.4968Z" fill="#753BBD"/>
<path d="M67.8283 20.826L60.5195 6.20975C59.603 4.34629 58.1828 2.77684 56.4199 1.67929C54.657 0.581744 52.6219 0 50.5452 0C48.4686 0 46.4335 0.581744 44.6706 1.67929C42.9077 2.77684 41.4875 4.34629 40.571 6.20975L33.2615 20.826C37.9142 16.3741 44.1054 13.8892 50.5449 13.8892C56.9844 13.8892 63.1756 16.3741 67.8283 20.826Z" fill="#753BBD"/>
<path d="M25.5428 38.8913C25.5431 37.894 25.6027 36.8975 25.7211 35.9072L18.3259 50.6971C17.04 53.3296 16.8457 56.3633 17.785 59.1384C18.7244 61.9134 20.7215 64.2053 23.3419 65.5156C25.9624 66.8258 28.9942 67.0483 31.7778 66.1348C34.5615 65.2212 36.8719 63.2455 38.2064 60.6373C34.3609 58.4565 31.1627 55.2947 28.938 51.4744C26.7133 47.6541 25.5417 43.3122 25.5428 38.8913Z" fill="#753BBD"/>
<path d="M82.7642 50.6984L75.3696 35.9072C75.957 40.8012 75.0855 45.7597 72.8645 50.1601C70.6434 54.5604 67.1719 58.2066 62.8857 60.6407C64.2202 63.2489 66.5306 65.2246 69.3143 66.1382C72.0979 67.0517 75.1297 66.8292 77.7502 65.519C80.3706 64.2087 82.3677 61.9168 83.3071 59.1418C84.2464 56.3667 84.0521 53.333 82.7662 50.7005L82.7642 50.6984Z" fill="#753BBD"/>
<path d="M50.5446 47.2262C55.1474 47.2262 58.8787 43.4948 58.8787 38.892C58.8787 34.2892 55.1474 30.5579 50.5446 30.5579C45.9418 30.5579 42.2104 34.2892 42.2104 38.892C42.2104 43.4948 45.9418 47.2262 50.5446 47.2262Z" fill="#753BBD"/>
</svg>
