<svg width="120" height="72" viewBox="0 0 120 72" fill="none" xmlns="http://www.w3.org/2000/svg">
<g clip-path="url(#clip0_388_1468)">
<path d="M33.9338 25.9868C33.9338 27.4572 34.0932 28.6493 34.3712 29.5235C34.7241 30.507 35.149 31.4632 35.6424 32.3843C35.8412 32.7021 35.9204 33.0199 35.9204 33.2983C35.9204 33.6954 35.6823 34.0929 35.1657 34.4904L32.6626 36.1591C32.3049 36.3977 31.9473 36.5168 31.629 36.5168C31.232 36.5168 30.8345 36.318 30.437 35.9604C29.9017 35.385 29.4227 34.7596 29.0068 34.0929C28.6093 33.4179 28.2118 32.6622 27.7749 31.7486C24.6756 35.4039 20.7812 37.2321 16.0928 37.2321C12.7553 37.2321 10.0928 36.2782 8.14557 34.3713C6.19885 32.4635 5.20557 29.9205 5.20557 26.7419C5.20557 23.3646 6.3976 20.6229 8.8215 18.5566C11.2449 16.4904 14.4638 15.4572 18.5565 15.4572C19.9074 15.4572 21.2982 15.5763 22.7682 15.775C24.2387 15.9738 25.7485 16.2916 27.3381 16.6493V13.7486C27.3381 10.7285 26.702 8.62285 25.4701 7.39098C24.1988 6.1591 22.0529 5.56285 18.9934 5.56285C17.6026 5.56285 16.1724 5.72223 14.702 6.07988C13.232 6.43707 11.8013 6.87441 10.4106 7.43082C9.77494 7.70879 9.29822 7.8677 9.01979 7.94738C8.74182 8.02707 8.54307 8.06645 8.38416 8.06645C7.82775 8.06645 7.54979 7.66895 7.54979 6.83457V4.88738C7.54979 4.25176 7.62947 3.77504 7.82775 3.49707C8.0265 3.21863 8.38416 2.94066 8.94057 2.6627C10.3313 1.94738 12.0001 1.35113 13.9468 0.874414C15.8945 0.357852 17.9607 0.119727 20.146 0.119727C24.8748 0.119727 28.3318 1.19223 30.557 3.33816C32.7423 5.48363 33.8551 8.74191 33.8551 13.113V25.9868H33.9348H33.9338ZM17.8013 32.0266C19.1129 32.0266 20.4638 31.7885 21.894 31.3113C23.3246 30.8346 24.5963 29.9604 25.6688 28.7683C26.3049 28.0136 26.7817 27.1793 27.0198 26.2254C27.2584 25.2719 27.4173 24.1193 27.4173 22.7683V21.0996C26.2123 20.8063 24.9918 20.5808 23.7615 20.4241C22.5227 20.2668 21.2753 20.1871 20.0265 20.1855C17.364 20.1855 15.4173 20.7021 14.1062 21.775C12.7946 22.848 12.159 24.3579 12.159 26.3444C12.159 28.2119 12.6357 29.6027 13.629 30.5566C14.5829 31.5499 15.9737 32.0266 17.8013 32.0266ZM49.7087 36.318C48.9934 36.318 48.5167 36.1989 48.1988 35.9205C47.881 35.6824 47.6026 35.126 47.3645 34.3713L38.027 3.65598C37.7879 2.86098 37.6688 2.34441 37.6688 2.06645C37.6688 1.43082 37.9867 1.0727 38.6227 1.0727H42.5167C43.2713 1.0727 43.7884 1.19223 44.0663 1.4702C44.3842 1.70879 44.6228 2.2652 44.8609 3.01988L51.5364 29.3247L57.7351 3.01988C57.9338 2.22535 58.1724 1.70879 58.4898 1.4702C58.8081 1.23207 59.3645 1.07316 60.0798 1.07316H63.2584C64.0131 1.07316 64.5301 1.19223 64.8474 1.4702C65.1657 1.70879 65.4437 2.2652 65.6026 3.01988L71.881 29.6425L78.7548 3.01988C78.9929 2.22535 79.2713 1.70879 79.5493 1.4702C79.8671 1.23207 80.3837 1.07316 81.099 1.07316H84.7942C85.4303 1.07316 85.7879 1.39098 85.7879 2.06645C85.7879 2.2652 85.7481 2.46395 85.7082 2.70207C85.6684 2.94066 85.5892 3.25848 85.4303 3.69582L75.8537 34.4107C75.6156 35.2057 75.3376 35.7222 75.0193 35.9604C74.7015 36.1989 74.1849 36.3579 73.5099 36.3579H70.0928C69.3376 36.3579 68.821 36.2388 68.5028 35.9604C68.1849 35.6824 67.907 35.1658 67.7481 34.3713L61.5887 8.74191L55.4696 34.331C55.2713 35.126 55.0328 35.6425 54.7149 35.9205C54.3971 36.1989 53.8407 36.318 53.1259 36.318H49.7082H49.7087ZM100.768 37.391C98.702 37.391 96.6357 37.1524 94.6492 36.6757C92.6621 36.1989 91.1129 35.6819 90.0798 35.0866C89.4437 34.7285 89.0064 34.3314 88.8479 33.9738C88.6932 33.6231 88.612 33.2443 88.6093 32.861V30.8346C88.6093 30.0002 88.9271 29.6027 89.5234 29.6027C89.7667 29.6036 90.0083 29.644 90.2387 29.7222C90.4768 29.8019 90.8345 29.9604 91.232 30.1193C92.6354 30.7366 94.1005 31.2028 95.6026 31.51C97.1591 31.8259 98.7432 31.9856 100.331 31.9868C102.834 31.9868 104.782 31.5499 106.133 30.6757C107.484 29.8014 108.199 28.5302 108.199 26.9008C108.199 25.7885 107.841 24.8744 107.126 24.1193C106.411 23.3646 105.06 22.6891 103.113 22.053L97.351 20.2652C94.4504 19.3511 92.3049 18.0002 90.9934 16.2119C89.6823 14.4635 89.0068 12.5168 89.0068 10.4505C89.0068 8.78176 89.3645 7.31129 90.0798 6.03957C90.7946 4.76832 91.7485 3.65598 92.9406 2.78176C94.1326 1.8677 95.4835 1.19223 97.0731 0.715508C98.6621 0.238789 100.331 0.0400391 102.079 0.0400391C102.954 0.0400391 103.868 0.0798828 104.742 0.198945C105.656 0.318008 106.49 0.476914 107.325 0.63582C108.119 0.83457 108.874 1.03332 109.59 1.27191C110.305 1.51004 110.861 1.74863 111.258 1.98676C111.815 2.30504 112.212 2.62285 112.45 2.98051C112.689 3.29832 112.808 3.7352 112.808 4.2916V6.1591C112.808 6.99348 112.49 7.43082 111.894 7.43082C111.576 7.43082 111.06 7.27145 110.385 6.95363C108.119 5.92051 105.576 5.40395 102.755 5.40395C100.49 5.40395 98.702 5.7616 97.4701 6.51676C96.2387 7.27145 95.6026 8.4241 95.6026 10.053C95.6026 11.1658 96.0001 12.1193 96.7946 12.8744C97.5896 13.6291 99.0596 14.3843 101.166 15.0597L106.808 16.848C109.669 17.7621 111.735 19.0333 112.967 20.6622C114.199 22.2916 114.795 24.1591 114.795 26.2254C114.795 27.9339 114.437 29.4836 113.762 30.8346C113.047 32.1855 112.093 33.3775 110.861 34.3314C109.629 35.3247 108.159 36.04 106.45 36.5566C104.662 37.113 102.795 37.391 100.768 37.391Z" fill="#252F3E"/>
<path d="M108.278 56.7018C95.2055 66.3576 76.2117 71.4834 59.881 71.4834C36.9933 71.4834 16.3711 63.0196 0.795018 48.9534C-0.436857 47.841 0.675487 46.3312 2.14549 47.2049C18.9933 56.9802 39.7749 62.9005 61.2717 62.9005C75.7749 62.9005 91.7086 59.8809 106.371 53.6821C108.556 52.6884 110.424 55.1127 108.278 56.7018ZM113.722 50.503C112.053 48.3576 102.675 49.4699 98.4239 49.9865C97.1522 50.1459 96.9534 49.033 98.1061 48.1987C105.576 42.9534 117.855 44.4637 119.285 46.2116C120.715 47.9999 118.887 60.2779 111.894 66.1588C110.821 67.0729 109.788 66.5962 110.265 65.4041C111.854 61.4699 115.391 52.6091 113.722 50.503Z" fill="#FF9900"/>
</g>
<defs>
<clipPath id="clip0_388_1468">
<rect width="120" height="71.7188" fill="white"/>
</clipPath>
</defs>
</svg>
