<svg width="136" height="62" viewBox="0 0 176 62" fill="none" xmlns="http://www.w3.org/2000/svg">
<path d="M36.7583 50.3635C45.5185 48.9569 52.7524 47.7925 52.8358 47.777L52.9879 47.7479L44.7185 38.8063C40.1691 33.889 36.4491 29.8454 36.4491 29.8222C36.4491 29.7989 44.9885 8.40115 45.0375 8.32559C45.0547 8.3004 50.8654 17.4202 59.125 30.4344L73.2934 52.7563L73.4013 52.9268H20.8354L36.7583 50.3635ZM5.21436 47.6355C5.21436 47.6239 9.11103 41.4743 13.8739 33.9703L22.5335 20.3284L32.6359 12.6327C38.1865 8.39922 42.7432 4.92915 42.7604 4.92334C42.7241 5.0517 42.6698 5.17647 42.5984 5.29534L31.6298 26.6582L20.8575 47.6413H13.0323C10.4263 47.6623 7.82021 47.6604 5.21436 47.6355Z" fill="#0089D6"/>
<path d="M101.936 39.9354C102.044 40.2314 102.097 40.4736 102.097 40.6619C102.111 40.8369 102.064 40.9714 101.956 41.0656C101.848 41.1598 101.667 41.2203 101.411 41.2472C101.169 41.2741 100.839 41.2876 100.422 41.2876C100.005 41.2876 99.6687 41.2741 99.4131 41.2472C99.1709 41.2338 98.9825 41.2069 98.848 41.1665C98.7269 41.1127 98.6327 41.0454 98.5654 40.9647C98.5116 40.884 98.4578 40.783 98.404 40.6619L96.1637 34.3045H85.3057L83.1663 40.5812C83.126 40.7023 83.0722 40.81 83.0049 40.9041C82.9376 40.9849 82.8367 41.0589 82.7021 41.1261C82.5811 41.18 82.3994 41.2203 82.1572 41.2472C81.9285 41.2741 81.6258 41.2876 81.249 41.2876C80.8588 41.2876 80.5359 41.2674 80.2803 41.2271C80.0381 41.2001 79.8632 41.1396 79.7555 41.0454C79.6614 40.9512 79.6143 40.8167 79.6143 40.6418C79.6277 40.4534 79.6883 40.2112 79.7959 39.9152L88.555 15.6561C88.6088 15.5081 88.6761 15.387 88.7568 15.2928C88.851 15.1986 88.9788 15.1246 89.1403 15.0708C89.3152 15.017 89.5305 14.9833 89.7861 14.9699C90.0552 14.943 90.3916 14.9295 90.7952 14.9295C91.2258 14.9295 91.5824 14.943 91.8649 14.9699C92.1475 14.9833 92.3762 15.017 92.5511 15.0708C92.726 15.1246 92.8606 15.2054 92.9548 15.313C93.0489 15.4072 93.1229 15.5283 93.1768 15.6763L101.936 39.9354ZM90.6943 18.522H90.6742L86.1735 31.5396H95.2555L90.6943 18.522ZM117.517 39.7537C117.517 40.0094 117.496 40.2314 117.456 40.4198C117.416 40.5947 117.369 40.7427 117.315 40.8638C117.261 40.9714 117.187 41.0521 117.093 41.106C116.999 41.1463 116.898 41.1665 116.79 41.1665H105.609C105.326 41.1665 105.091 41.0723 104.903 40.884C104.728 40.6956 104.64 40.3794 104.64 39.9354V39.2492C104.64 39.0608 104.654 38.8926 104.681 38.7446C104.708 38.5966 104.748 38.4486 104.802 38.3006C104.856 38.1526 104.93 37.9979 105.024 37.8364C105.118 37.6615 105.232 37.4664 105.367 37.2511L113.379 24.7785H105.609C105.394 24.7785 105.219 24.6708 105.084 24.4556C104.963 24.2268 104.903 23.8636 104.903 23.3657C104.903 23.1235 104.916 22.915 104.943 22.7401C104.97 22.5517 105.01 22.4037 105.064 22.2961C105.131 22.175 105.205 22.0942 105.286 22.0539C105.38 22.0001 105.488 21.9731 105.609 21.9731H116.023C116.171 21.9731 116.299 21.9933 116.407 22.0337C116.528 22.0741 116.629 22.1413 116.709 22.2355C116.79 22.3297 116.851 22.4508 116.891 22.5988C116.945 22.7468 116.972 22.9352 116.972 23.1639V23.8097C116.972 23.9981 116.958 24.173 116.931 24.3345C116.904 24.4959 116.864 24.6574 116.81 24.8188C116.756 24.9669 116.682 25.1283 116.588 25.3032C116.494 25.4781 116.38 25.6732 116.245 25.8885L108.273 38.3612H116.79C116.898 38.3612 116.992 38.3881 117.073 38.4419C117.167 38.4823 117.241 38.5563 117.295 38.6639C117.362 38.7715 117.416 38.9195 117.456 39.1079C117.496 39.2828 117.517 39.4981 117.517 39.7537ZM137.638 40.6619C137.638 40.7696 137.611 40.8638 137.558 40.9445C137.517 41.0118 137.437 41.0723 137.315 41.1261C137.194 41.18 137.033 41.2203 136.831 41.2472C136.643 41.2741 136.407 41.2876 136.125 41.2876C135.815 41.2876 135.56 41.2741 135.358 41.2472C135.169 41.2203 135.015 41.18 134.894 41.1261C134.786 41.0723 134.712 41.0118 134.672 40.9445C134.631 40.8638 134.611 40.7696 134.611 40.6619V38.2603C133.575 39.4039 132.552 40.2381 131.543 40.7629C130.534 41.2876 129.512 41.55 128.476 41.55C127.265 41.55 126.242 41.3481 125.408 40.9445C124.587 40.5409 123.921 39.9959 123.41 39.3097C122.899 38.6101 122.529 37.8028 122.3 36.8879C122.085 35.9595 121.977 34.836 121.977 33.5174V22.4979C121.977 22.3902 121.997 22.3028 122.037 22.2355C122.091 22.1548 122.185 22.0875 122.32 22.0337C122.455 21.9664 122.629 21.9261 122.845 21.9126C123.06 21.8857 123.329 21.8722 123.652 21.8722C123.975 21.8722 124.244 21.8857 124.459 21.9126C124.675 21.9261 124.843 21.9664 124.964 22.0337C125.098 22.0875 125.193 22.1548 125.246 22.2355C125.3 22.3028 125.327 22.3902 125.327 22.4979V33.0734C125.327 34.1363 125.401 34.9907 125.549 35.6366C125.711 36.2689 125.946 36.8139 126.256 37.2713C126.578 37.7153 126.982 38.0652 127.466 38.3208C127.951 38.563 128.516 38.6841 129.162 38.6841C129.996 38.6841 130.823 38.3881 131.644 37.7961C132.478 37.204 133.36 36.3362 134.288 35.1925V22.4979C134.288 22.3902 134.308 22.3028 134.349 22.2355C134.402 22.1548 134.497 22.0875 134.631 22.0337C134.766 21.9664 134.934 21.9261 135.136 21.9126C135.351 21.8857 135.627 21.8722 135.963 21.8722C136.286 21.8722 136.555 21.8857 136.771 21.9126C136.986 21.9261 137.154 21.9664 137.275 22.0337C137.396 22.0875 137.484 22.1548 137.537 22.2355C137.605 22.3028 137.638 22.3902 137.638 22.4979V40.6619ZM154.41 23.6886C154.41 23.9846 154.403 24.2336 154.39 24.4354C154.376 24.6372 154.349 24.7987 154.309 24.9198C154.269 25.0274 154.215 25.1149 154.147 25.1821C154.094 25.2359 154.013 25.2629 153.905 25.2629C153.798 25.2629 153.663 25.2359 153.502 25.1821C153.354 25.1149 153.179 25.0543 152.977 25.0005C152.789 24.9332 152.573 24.8727 152.331 24.8188C152.089 24.765 151.826 24.7381 151.544 24.7381C151.208 24.7381 150.878 24.8054 150.555 24.9399C150.232 25.0745 149.889 25.2965 149.526 25.606C149.176 25.9154 148.806 26.3258 148.416 26.8371C148.025 27.3484 147.595 27.974 147.124 28.714V40.6619C147.124 40.7696 147.097 40.8638 147.043 40.9445C146.989 41.0118 146.902 41.0723 146.781 41.1261C146.66 41.18 146.492 41.2203 146.276 41.2472C146.061 41.2741 145.785 41.2876 145.449 41.2876C145.126 41.2876 144.857 41.2741 144.642 41.2472C144.426 41.2203 144.251 41.18 144.117 41.1261C143.996 41.0723 143.908 41.0118 143.854 40.9445C143.814 40.8638 143.794 40.7696 143.794 40.6619V22.4979C143.794 22.3902 143.814 22.3028 143.854 22.2355C143.895 22.1548 143.976 22.0875 144.097 22.0337C144.218 21.9664 144.373 21.9261 144.561 21.9126C144.749 21.8857 144.998 21.8722 145.308 21.8722C145.604 21.8722 145.846 21.8857 146.034 21.9126C146.236 21.9261 146.391 21.9664 146.498 22.0337C146.606 22.0875 146.68 22.1548 146.72 22.2355C146.774 22.3028 146.801 22.3902 146.801 22.4979V25.1418C147.299 24.4152 147.763 23.8232 148.194 23.3657C148.638 22.9083 149.055 22.5517 149.445 22.2961C149.835 22.027 150.219 21.8453 150.595 21.7511C150.986 21.6435 151.376 21.5897 151.766 21.5897C151.941 21.5897 152.136 21.6031 152.351 21.63C152.58 21.6435 152.815 21.6771 153.058 21.731C153.3 21.7848 153.515 21.8453 153.703 21.9126C153.905 21.9799 154.047 22.0471 154.127 22.1144C154.208 22.1817 154.262 22.249 154.289 22.3162C154.316 22.3701 154.336 22.4441 154.349 22.5382C154.376 22.6324 154.39 22.7737 154.39 22.9621C154.403 23.137 154.41 23.3792 154.41 23.6886ZM173.139 30.7928C173.139 31.3175 173.004 31.6943 172.735 31.923C172.48 32.1383 172.184 32.2459 171.847 32.2459H159.94C159.94 33.255 160.041 34.1632 160.243 34.9705C160.444 35.7778 160.781 36.4708 161.252 37.0493C161.723 37.6279 162.335 38.0719 163.088 38.3813C163.842 38.6908 164.763 38.8455 165.853 38.8455C166.714 38.8455 167.481 38.7783 168.154 38.6437C168.827 38.4957 169.405 38.3343 169.89 38.1593C170.387 37.9844 170.791 37.8297 171.101 37.6951C171.423 37.5471 171.666 37.4731 171.827 37.4731C171.921 37.4731 172.002 37.5001 172.069 37.5539C172.15 37.5942 172.211 37.6615 172.251 37.7557C172.291 37.8499 172.318 37.9844 172.332 38.1593C172.359 38.3208 172.372 38.5226 172.372 38.7648C172.372 38.9397 172.365 39.0945 172.352 39.229C172.338 39.3501 172.318 39.4645 172.291 39.5721C172.278 39.6663 172.244 39.7537 172.19 39.8345C172.15 39.9152 172.09 39.9959 172.009 40.0767C171.942 40.1439 171.726 40.265 171.363 40.4399C171 40.6014 170.529 40.7629 169.95 40.9243C169.372 41.0858 168.699 41.2271 167.932 41.3481C167.178 41.4827 166.371 41.55 165.51 41.55C164.017 41.55 162.705 41.3414 161.575 40.9243C160.458 40.5072 159.516 39.8883 158.749 39.0675C157.982 38.2468 157.404 37.2175 157.013 35.9797C156.623 34.7418 156.428 33.3021 156.428 31.6606C156.428 30.0999 156.63 28.7006 157.034 27.4627C157.437 26.2114 158.016 25.1552 158.769 24.2941C159.536 23.4195 160.458 22.7535 161.534 22.2961C162.611 21.8251 163.815 21.5897 165.147 21.5897C166.573 21.5897 167.784 21.8184 168.78 22.2759C169.789 22.7333 170.616 23.3523 171.262 24.1327C171.908 24.8996 172.379 25.8078 172.675 26.8573C172.984 27.8933 173.139 29.0033 173.139 30.1873V30.7928ZM169.789 29.8039C169.829 28.0547 169.439 26.6823 168.618 25.6867C167.811 24.691 166.607 24.1932 165.006 24.1932C164.185 24.1932 163.465 24.3479 162.846 24.6574C162.227 24.9669 161.709 25.3772 161.292 25.8885C160.875 26.3998 160.552 26.9985 160.323 27.6847C160.095 28.3575 159.967 29.0639 159.94 29.8039H169.789Z" fill="#2EA3E5"/>
</svg>
