<svg width="75" height="68" viewBox="0 0 75 68" fill="none" xmlns="http://www.w3.org/2000/svg">
<g clip-path="url(#clip0_529_1342)">
<path d="M3.38277 0.592483C3.03731 0.588016 2.69506 0.659233 2.38006 0.801133C2.06506 0.943033 1.78494 1.15217 1.55938 1.41387C1.33382 1.67557 1.16829 1.98347 1.07441 2.31596C0.980529 2.64845 0.960576 2.99746 1.01595 3.33848L11.0635 64.3335C11.1887 65.0799 11.5729 65.7584 12.1486 66.2497C12.7243 66.741 13.4547 67.0138 14.2115 67.0201H62.4135C62.9808 67.0273 63.5318 66.8305 63.9662 66.4656C64.4005 66.1007 64.6894 65.5919 64.7801 65.0318L74.8279 3.35031C74.8832 3.00931 74.8632 2.66033 74.7692 2.3279C74.6753 1.99546 74.5097 1.68762 74.2841 1.42598C74.0586 1.16435 73.7785 0.955266 73.4635 0.813419C73.1485 0.671571 72.8063 0.600396 72.4608 0.604891L3.38277 0.592483ZM45.6911 44.6761H30.3063L26.1405 22.9125H49.4191L45.6911 44.6761Z" fill="#2684FF"/>
<path d="M71.5712 22.8823H49.3759L45.6508 44.6286H30.2783L12.127 66.1738C12.7023 66.6712 13.4358 66.9478 14.1963 66.9541H62.3718C62.9386 66.9614 63.4893 66.7649 63.9234 66.4003C64.3575 66.0356 64.6461 65.5272 64.7368 64.9676L71.5718 22.8823H71.5712Z" fill="url(#paint0_linear_529_1342)"/>
</g>
<defs>
<linearGradient id="paint0_linear_529_1342" x1="76.7037" y1="28.9722" x2="51.0646" y2="65.3771" gradientUnits="userSpaceOnUse">
<stop offset="0.18" stop-color="#0052CC"/>
<stop offset="1" stop-color="#2684FF"/>
</linearGradient>
<clipPath id="clip0_529_1342">
<rect width="73.8729" height="66.6587" fill="white" transform="translate(0.984863 0.592285)"/>
</clipPath>
</defs>
</svg>
