<svg width="180" height="180" viewBox="0 0 180 180" fill="none" xmlns="http://www.w3.org/2000/svg">
<rect width="180" height="180" rx="16" fill="url(#paint0_linear_49_61)" fill-opacity="0.28"/>
<g clip-path="url(#clip0_49_61)">
<path d="M126.308 67.2317L117.662 58.5856C115.748 56.689 113.163 55.6249 110.469 55.6249H69.2727C66.5844 55.6249 63.9869 56.6966 62.0797 58.5856L53.4336 67.2317H32V113.677H43.625C46.8219 113.677 49.4012 111.098 49.4193 107.919H51.0723L66.4391 121.797C72.0518 126.356 79.8441 126.465 85.6203 122.487C87.8908 124.449 90.343 125.375 93.0857 125.375C96.3916 125.375 99.4977 124.031 101.95 121.016C105.964 122.596 110.705 121.488 113.575 117.964L118.334 112.097C119.351 110.844 119.987 109.409 120.314 107.919H130.831C130.849 111.098 133.446 113.677 136.625 113.677H148.25V67.2317H126.308ZM40.7188 107.865C39.1203 107.865 37.8125 106.557 37.8125 104.958C37.8125 103.36 39.1203 102.052 40.7188 102.052C42.3172 102.052 43.625 103.36 43.625 104.958C43.625 106.575 42.3172 107.865 40.7188 107.865ZM111.559 106.611L106.818 112.46C106.309 113.078 105.401 113.187 104.765 112.678L100.424 109.154L94.9748 115.784C93.885 117.11 92.2502 116.656 91.7053 116.22L85.0209 110.499L82.1873 113.986C79.6625 117.092 75.067 117.564 72.1426 115.185L54.4689 99.2005H49.4375V75.9323H57.0482L68.2555 64.7432C68.6188 64.5979 68.9275 64.4708 69.2908 64.3255H79.5898L72.5604 70.7737C67.2201 75.6598 66.9113 83.9063 71.7611 89.1739C74.4494 92.1165 82.8775 96.6575 90.1977 89.9731L91.6871 88.6108L111.341 104.559C111.958 105.067 112.049 105.994 111.559 106.611ZM130.812 99.2005H118.243C117.825 98.6919 117.353 98.2196 116.844 97.8018L98.1898 82.653L100.46 80.5823C101.641 79.4925 101.732 77.6579 100.642 76.4772L98.6621 74.352C97.5723 73.1714 95.7377 73.0987 94.557 74.1704L84.5305 83.3614C82.8049 84.9417 79.8623 85.0688 78.2457 83.3614C76.5564 81.5632 76.7018 78.8022 78.4637 77.2038L90.3793 66.2872C91.7234 65.052 93.4672 64.38 95.2836 64.38L110.487 64.3436C110.868 64.3436 111.232 64.4889 111.486 64.7614L122.693 75.9505H130.812V99.2005ZM139.531 107.865C137.933 107.865 136.625 106.557 136.625 104.958C136.625 103.36 137.933 102.052 139.531 102.052C141.13 102.052 142.438 103.36 142.438 104.958C142.438 106.575 141.13 107.865 139.531 107.865Z" fill="#0E2C66"/>
</g>
<defs>
<linearGradient id="paint0_linear_49_61" x1="0" y1="90" x2="180" y2="90" gradientUnits="userSpaceOnUse">
<stop stop-color="#0E2C66"/>
<stop offset="1" stop-color="#05DEEC"/>
</linearGradient>
<clipPath id="clip0_49_61">
<rect width="116.25" height="93" fill="white" transform="translate(32 44)"/>
</clipPath>
</defs>
</svg>
