<svg width="120" height="90" viewBox="0 0 120 90" fill="none" xmlns="http://www.w3.org/2000/svg">
<path d="M59.9091 48.4836V60.0641C79.5375 60.0641 94.8206 41.1017 88.3997 20.5334C85.5938 11.5452 78.4514 4.40282 69.4631 1.59688C48.8944 -4.82405 29.932 10.4591 29.932 30.0875H41.5392C41.5406 30.0875 41.542 30.0847 41.542 30.0847C41.5439 17.7659 53.7342 8.24282 66.6853 12.9425C71.4834 14.6834 75.3103 18.5099 77.0527 23.3075C81.7528 36.2506 72.2433 48.4367 59.9358 48.4541V36.9111L59.9339 36.9102H48.3623C48.3614 36.9102 48.3605 36.912 48.3605 36.912V48.4836H59.9091ZM48.3581 57.3777H39.4673L39.4655 57.3753V48.4836H48.3605V57.3758C48.3605 57.3758 48.3595 57.3777 48.3581 57.3777ZM39.4716 48.4836H32.0184C32.0152 48.4836 32.0128 48.4817 32.0128 48.4817V41.0319C32.0128 41.0319 32.0152 41.0263 32.0184 41.0263H39.4659C39.4692 41.0263 39.4716 41.0286 39.4716 41.0286V48.4836ZM10.3575 71.8114C8.84859 70.7642 6.97078 70.2336 4.77656 70.2336H0V85.3878H4.77656C6.96562 85.3878 8.84391 84.8277 10.3594 83.7238C11.1844 83.1383 11.8322 82.3203 12.2859 81.2938C12.7369 80.2719 12.9656 79.0672 12.9656 77.7125C12.9656 76.3733 12.7369 75.1836 12.285 74.1767C11.8322 73.1642 11.1834 72.3688 10.3575 71.8114ZM2.79 72.7949H4.28906C5.95734 72.7949 7.33031 73.123 8.37188 73.7713C9.52734 74.4683 10.1138 75.7939 10.1138 77.712C10.1138 79.6878 9.52594 81.0734 8.36719 81.8324H8.36625C7.36922 82.4914 6.00422 82.8261 4.30969 82.8261H2.79V72.7949ZM14.9217 85.3878H17.6077V74.7144H14.9217V85.3878ZM16.2905 70.047C15.8311 70.047 15.4359 70.2097 15.1172 70.5284C14.7952 70.8355 14.6316 71.225 14.6316 71.6853C14.6316 72.1447 14.7942 72.5399 15.1153 72.8605C15.4359 73.182 15.8316 73.3447 16.2905 73.3447C16.7494 73.3447 17.1445 73.182 17.4661 72.8605C17.7877 72.5394 17.9498 72.1438 17.9498 71.6853C17.9498 71.2255 17.7867 70.8364 17.4661 70.5308C17.3133 70.3745 17.1303 70.251 16.9281 70.1678C16.726 70.0846 16.509 70.0435 16.2905 70.047ZM27.3614 75.6064C26.5514 74.8855 25.6472 74.4655 24.6694 74.4655C23.1867 74.4655 21.9544 74.9783 21.007 75.9889C20.048 76.9911 19.5609 78.2811 19.5609 79.8233C19.5609 81.3294 20.04 82.6152 20.9869 83.6464C21.9408 84.6439 23.1802 85.1492 24.6694 85.1492C25.7048 85.1492 26.595 84.8609 27.3202 84.2914V84.5375C27.3202 85.423 27.083 86.112 26.6156 86.585C26.1483 87.0575 25.5005 87.297 24.6905 87.297C23.4506 87.297 22.6734 86.8095 21.7275 85.5313L19.8984 87.2886L19.9477 87.358C20.3428 87.912 20.948 88.4548 21.7467 88.9705C22.5455 89.4838 23.5495 89.7449 24.7317 89.7449C26.3264 89.7449 27.6159 89.2531 28.5661 88.2842C29.5209 87.3097 30.0052 86.0052 30.0052 84.4077V74.7139H27.3614V75.6059V75.6064ZM26.6569 81.9097C26.1877 82.4431 25.5848 82.7014 24.8147 82.7014C24.0445 82.7014 23.445 82.4431 22.9823 81.9106C22.5225 81.3809 22.2886 80.6778 22.2886 79.8228C22.2886 78.9538 22.5225 78.2427 22.9828 77.7088C23.4389 77.1809 24.0553 76.9128 24.8147 76.9128C25.5839 76.9128 26.1872 77.1734 26.6569 77.7102C27.1242 78.2436 27.3614 78.9542 27.3614 79.8228C27.3614 80.6778 27.1242 81.3805 26.6569 81.9097ZM32.3039 85.3878H34.9898V74.7144H32.3039V85.3878ZM33.6727 70.047C33.2137 70.047 32.8181 70.2097 32.4994 70.5284C32.1773 70.8355 32.0137 71.225 32.0137 71.6853C32.0137 72.1447 32.1764 72.5399 32.4975 72.8605C32.8181 73.182 33.2137 73.3447 33.6731 73.3447C33.8917 73.3481 34.1087 73.307 34.3108 73.2237C34.513 73.1405 34.696 73.0169 34.8488 72.8605C35.1698 72.5394 35.3325 72.1438 35.3325 71.6853C35.3325 71.2255 35.1684 70.8364 34.8488 70.5308C34.6959 70.3745 34.5129 70.2511 34.3107 70.1679C34.1086 70.0847 33.8917 70.0436 33.6731 70.047H33.6727ZM40.8769 71.8306H38.2331V74.7144H36.697V77.1622H38.2327V81.5956C38.2327 82.9831 38.5097 83.9759 39.0567 84.5459C39.6052 85.1188 40.5788 85.4089 41.9508 85.4089C42.3872 85.4089 42.8264 85.3944 43.2558 85.3667L43.3767 85.3583V82.9124L42.4561 82.9606C41.8162 82.9606 41.3897 82.8481 41.1867 82.6273C40.9805 82.4024 40.8769 81.927 40.8769 81.215V77.1622H43.3767V74.7144H40.8769V71.8306ZM52.5947 75.5127C51.7805 74.818 50.6555 74.4655 49.2506 74.4655C48.3567 74.4655 47.5209 74.6614 46.7653 75.0448C46.0659 75.3997 45.3792 75.987 44.9428 76.7558L44.97 76.7886L46.6898 78.4349C47.3981 77.3052 48.1861 76.9128 49.2305 76.9128C49.7916 76.9128 50.257 77.0638 50.6152 77.3605C50.9714 77.6553 51.1448 78.0303 51.1448 78.5052V79.0236C50.5046 78.8251 49.8385 78.7224 49.1681 78.7189C47.8312 78.7189 46.7438 79.033 45.9361 79.6531C45.1177 80.2813 44.7033 81.1789 44.7033 82.3231C44.7033 83.3258 45.0525 84.1405 45.7448 84.7461C46.4433 85.3302 47.3152 85.6269 48.3384 85.6269C49.3608 85.6269 50.3175 85.2144 51.1861 84.5089V85.3878H53.8303V78.5263C53.8303 77.2273 53.4145 76.2134 52.5947 75.5127ZM47.8261 81.3092C48.1308 81.0969 48.5611 80.9895 49.1058 80.9895C49.7522 80.9895 50.4375 81.1194 51.1448 81.3758V82.423C50.5608 82.9653 49.7808 83.2409 48.8259 83.2409C48.3609 83.2409 47.9995 83.1378 47.7511 82.933C47.5073 82.7333 47.3888 82.4788 47.3888 82.1567C47.3888 81.7906 47.5317 81.5131 47.8261 81.3092ZM55.9702 85.3878H58.6561V70.2331H55.9702V85.3878ZM68.4014 85.6161C64.0936 85.6161 60.5887 82.1117 60.5887 77.8039C60.5887 73.4961 64.0931 69.9913 68.4009 69.9913C72.7087 69.9913 76.2131 73.4961 76.2131 77.8039C76.2131 82.1117 72.7087 85.6161 68.4009 85.6161H68.4014ZM68.4014 72.7442C65.6114 72.7442 63.3422 75.0139 63.3422 77.8039C63.3422 80.5934 65.6114 82.8627 68.4009 82.8627C71.1905 82.8627 73.4602 80.5939 73.4602 77.8039C73.4602 75.0139 71.1905 72.7447 68.4009 72.7447L68.4014 72.7442ZM85.7902 81.5713C85.3097 82.1098 84.8184 82.5767 84.4397 82.8191V82.8195C84.0684 83.0577 83.5997 83.1791 83.047 83.1791C82.2553 83.1791 81.6192 82.8908 81.1008 82.2969C80.5852 81.7063 80.3241 80.9478 80.3241 80.0403C80.3241 79.1338 80.5819 78.3763 81.0909 77.7898C81.6023 77.1992 82.2352 76.9133 83.0259 76.9133C83.8913 76.9133 84.8034 77.451 85.5848 78.3753L87.36 76.6728C86.2022 75.1663 84.7261 74.4655 82.9641 74.4655C81.4894 74.4655 80.2111 75.0027 79.1648 76.0616C78.1242 77.1125 77.5964 78.4517 77.5964 80.0403C77.5964 81.6294 78.1237 82.9719 79.1634 84.0303C80.2041 85.0897 81.4828 85.6269 82.9641 85.6269C84.9084 85.6269 86.4783 84.7874 87.5363 83.2494L85.7902 81.5713ZM96.8133 76.2055C96.4327 75.6749 95.9142 75.2478 95.2711 74.9352C94.6308 74.6234 93.8836 74.4655 93.052 74.4655C91.553 74.4655 90.3258 75.0186 89.4052 76.1108C88.5108 77.1936 88.058 78.5403 88.058 80.1134C88.058 81.7306 88.5548 83.0698 89.5355 84.0927C90.5105 85.1103 91.8159 85.6269 93.4148 85.6269C95.2261 85.6269 96.7125 84.8942 97.8323 83.4495L97.8928 83.3717L96.1406 81.688C95.9784 81.8839 95.7483 82.1061 95.5378 82.3039C95.273 82.5542 95.0236 82.7478 94.7573 82.8805C94.3556 83.0802 93.9056 83.1791 93.4017 83.1791C92.6578 83.1791 92.0414 82.9602 91.5703 82.5285C91.1297 82.1244 90.8719 81.5797 90.8034 80.907H97.9191L97.9434 79.9269C97.9434 79.2331 97.8487 78.5647 97.6627 77.9394C97.4784 77.318 97.1913 76.7319 96.8133 76.2055ZM90.9431 78.7184C91.0725 78.2075 91.3078 77.7828 91.6448 77.4528C92.0086 77.0942 92.4825 76.9128 93.0525 76.9128C93.7041 76.9128 94.208 77.098 94.5506 77.4645C94.8684 77.803 95.0475 78.2244 95.085 78.7184H90.9431ZM107.128 75.5127C106.314 74.818 105.188 74.4655 103.784 74.4655C102.89 74.4655 102.054 74.6614 101.299 75.0448C100.599 75.3997 99.9122 75.987 99.4762 76.7558L99.5034 76.7886L101.223 78.4349C101.932 77.3052 102.72 76.9128 103.764 76.9128C104.325 76.9128 104.79 77.0638 105.149 77.3605C105.505 77.6553 105.678 78.0303 105.678 78.5052V79.0236C105.038 78.8251 104.372 78.7224 103.701 78.7189C102.365 78.7189 101.277 79.033 100.469 79.6531C99.6511 80.2813 99.2362 81.1789 99.2362 82.3231C99.2362 83.3258 99.5859 84.1405 100.278 84.7461C100.976 85.3302 101.849 85.6269 102.871 85.6269C103.894 85.6269 104.851 85.2144 105.719 84.5089V85.3878H108.364V78.5263C108.364 77.2273 107.948 76.2134 107.128 75.5127ZM102.36 81.3092C102.664 81.0969 103.094 80.9895 103.639 80.9895C104.286 80.9895 104.971 81.1194 105.678 81.3758V82.423C105.094 82.9653 104.314 83.2409 103.359 83.2409C102.894 83.2409 102.533 83.1378 102.285 82.933C102.041 82.7333 101.922 82.4788 101.922 82.1567C101.922 81.7906 102.065 81.5131 102.36 81.3092ZM118.696 75.7222C117.948 74.8888 116.897 74.4655 115.571 74.4655C114.505 74.4655 113.64 74.7716 112.993 75.3749V74.7139H110.359V85.3878H113.045V79.5013C113.045 78.6927 113.237 78.0505 113.617 77.592C113.995 77.1355 114.516 76.9128 115.208 76.9128C115.816 76.9128 116.277 77.1116 116.618 77.5199C116.959 77.93 117.132 78.4949 117.132 79.2008V85.3878H119.818V79.2008C119.818 77.7224 119.441 76.5524 118.696 75.7227V75.7222Z" fill="#0080FF"/>
</svg>
