<svg width="180" height="180" viewBox="0 0 180 180" fill="none" xmlns="http://www.w3.org/2000/svg">
<rect width="180" height="180" rx="16" fill="url(#paint0_linear_49_66)" fill-opacity="0.28"/>
<path d="M138.844 110.128V101.656C138.844 97.7112 137.277 93.9276 134.487 91.138C131.697 88.3484 127.914 86.7813 123.969 86.7812C120.024 86.7813 116.24 88.3484 113.451 91.138C110.661 93.9276 109.094 97.7112 109.094 101.656V110.128C107.967 110.775 107.03 111.708 106.378 112.832C105.725 113.956 105.379 115.232 105.375 116.531V135.125C105.377 137.097 106.161 138.988 107.556 140.382C108.95 141.776 110.841 142.561 112.812 142.562H135.125C137.097 142.561 138.988 141.776 140.382 140.382C141.776 138.988 142.561 137.097 142.562 135.125V116.531C142.558 115.232 142.212 113.956 141.56 112.832C140.907 111.708 139.97 110.775 138.844 110.128ZM123.969 94.2188C125.941 94.2207 127.831 95.0049 129.226 96.3993C130.62 97.7937 131.404 99.6843 131.406 101.656V109.094H116.531V101.656C116.533 99.6843 117.317 97.7937 118.712 96.3993C120.106 95.0049 121.997 94.2207 123.969 94.2188ZM112.812 135.125V116.531H135.125V135.125H112.812Z" fill="#0E2C66"/>
<path d="M38.4375 38.4375H45.875V53.3125H38.4375V38.4375Z" fill="#0E2C66"/>
<path d="M83.0625 38.4375H90.5V53.3125H83.0625V38.4375Z" fill="#0E2C66"/>
<path d="M97.9375 38.4375H105.375V53.3125H97.9375V38.4375Z" fill="#0E2C66"/>
<path d="M38.4375 60.75H45.875V90.5H38.4375V60.75Z" fill="#0E2C66"/>
<path d="M38.4375 97.9375H45.875V127.688H38.4375V97.9375Z" fill="#0E2C66"/>
<path d="M83.0625 97.9375H90.5V127.688H83.0625V97.9375Z" fill="#0E2C66"/>
<path d="M53.3125 60.75H60.75V90.5H53.3125V60.75Z" fill="#0E2C66"/>
<path d="M97.9375 60.75H105.375V83.0625H97.9375V60.75Z" fill="#0E2C66"/>
<path d="M68.1875 127.688H60.75C58.7781 127.686 56.8874 126.901 55.4931 125.507C54.0987 124.113 53.3145 122.222 53.3125 120.25V105.375C53.3145 103.403 54.0987 101.512 55.4931 100.118C56.8874 98.7237 58.7781 97.9395 60.75 97.9375H68.1875C70.1594 97.9395 72.0501 98.7237 73.4444 100.118C74.8388 101.512 75.623 103.403 75.625 105.375V120.25C75.623 122.222 74.8388 124.113 73.4444 125.507C72.0501 126.901 70.1594 127.686 68.1875 127.688ZM60.75 105.375V120.25H68.1875V105.375H60.75Z" fill="#0E2C66"/>
<path d="M83.0625 90.5H75.625C73.6531 90.498 71.7624 89.7138 70.3681 88.3194C68.9737 86.9251 68.1895 85.0344 68.1875 83.0625V68.1875C68.1895 66.2156 68.9737 64.3249 70.3681 62.9306C71.7624 61.5362 73.6531 60.752 75.625 60.75H83.0625C85.0344 60.752 86.9251 61.5362 88.3194 62.9306C89.7138 64.3249 90.498 66.2156 90.5 68.1875V83.0625C90.498 85.0344 89.7138 86.9251 88.3194 88.3194C86.9251 89.7138 85.0344 90.498 83.0625 90.5ZM75.625 68.1875V83.0625H83.0625V68.1875H75.625Z" fill="#0E2C66"/>
<path d="M68.1875 53.3125H60.75C58.7781 53.3105 56.8874 52.5263 55.4931 51.1319C54.0987 49.7376 53.3145 47.8469 53.3125 45.875V38.4375H60.75V45.875H68.1875V38.4375H75.625V45.875C75.623 47.8469 74.8388 49.7376 73.4444 51.1319C72.0501 52.5263 70.1594 53.3105 68.1875 53.3125Z" fill="#0E2C66"/>
<defs>
<linearGradient id="paint0_linear_49_66" x1="0" y1="90" x2="180" y2="90" gradientUnits="userSpaceOnUse">
<stop stop-color="#0E2C66"/>
<stop offset="1" stop-color="#05DEEC"/>
</linearGradient>
</defs>
</svg>
