<svg width="211" height="69" viewBox="0 0 211 69" fill="none" xmlns="http://www.w3.org/2000/svg">
<path fill-rule="evenodd" clip-rule="evenodd" d="M19.1569 2.38755C24.2613 1.12982 29.6856 0 32.9318 0C36.1779 0 41.6022 1.12982 46.7066 2.38755C51.9287 3.6666 57.1931 5.18014 60.2886 6.09679C61.5829 6.48413 62.7303 7.19449 63.5991 8.14625C64.4679 9.09802 65.0229 10.2526 65.2002 11.4773C67.7815 29.0495 62.4722 42.4338 55.4536 51.7499H48.2215C47.572 51.7499 47.0454 52.2765 47.0454 52.9261C47.0454 53.5756 47.572 54.1022 48.2215 54.1022H53.5762C52.903 54.9059 52.2038 55.6903 51.4798 56.4544H45.8693C45.2197 56.4544 44.6931 56.981 44.6931 57.6306C44.6931 58.2801 45.2197 58.8067 45.8693 58.8067H49.1036C48.2299 59.6182 47.3261 60.4028 46.3937 61.159H43.517C42.8674 61.159 42.3409 61.6856 42.3409 62.3351C42.3409 62.9101 42.7535 63.3888 43.2988 63.491C42.7935 63.8445 42.2812 64.1901 41.7622 64.5279C40.2054 65.5417 38.556 66.4331 36.8318 67.1926C35.5146 67.7554 34.0985 68.2158 32.9318 68.2158C31.765 68.2158 30.3537 67.7554 29.0317 67.1926C27.3076 66.4332 25.6581 65.5417 24.1014 64.5279C19.5992 61.5982 15.6077 58.0728 12.26 54.0696C4.36583 44.7112 -2.14054 30.565 0.663363 11.4773C0.840664 10.2526 1.39559 9.09802 2.2644 8.14625C3.1332 7.19449 4.28064 6.48413 5.5749 6.09679C10.0686 4.7615 14.5973 3.52473 19.1569 2.38755ZM36.9448 6.56091C35.9491 6.51277 34.9407 6.48869 33.9195 6.48869C32.0879 6.48869 30.2663 6.55837 28.4546 6.69773C26.6629 6.83709 24.9408 7.06604 23.2884 7.38458C21.6559 7.70311 20.1329 8.13115 18.7193 8.66868C17.3058 9.1863 16.0815 9.83333 15.0462 10.6098C14.0309 11.3663 13.2246 12.2622 12.6273 13.2974C12.05 14.3127 11.7613 15.4874 11.7613 16.8212V32.111H23.6421V26.0787H19.5256V18.9713C19.5256 17.737 19.9437 16.7316 20.7799 15.9552C21.616 15.1788 22.711 14.5716 24.0648 14.1336L24.1489 14.107C24.2372 13.9047 24.337 13.7045 24.4484 13.5065C24.986 12.5508 25.7325 11.6749 26.6882 10.8785C27.6637 10.0822 28.8184 9.36548 30.1522 8.7284C31.506 8.09133 32.9992 7.5538 34.6317 7.11581C35.3802 6.90837 36.1513 6.7234 36.9448 6.56091ZM31.4662 26.0787V32.111H48.1342V39.3975C48.1342 40.592 47.7261 41.5775 46.9098 42.3539C46.1135 43.1303 45.0484 43.7475 43.7145 44.2054C42.4005 44.6434 40.8875 44.952 39.1754 45.1312C38.6747 45.1783 38.1688 45.2184 37.6578 45.2516C38.3583 45.4536 39.1115 45.6325 39.9174 45.7881C41.6693 46.1067 43.6104 46.2659 45.7406 46.2659C47.9505 46.2659 49.9314 46.0967 51.6833 45.7583C53.0093 45.4871 54.1813 45.1531 55.1994 44.7564C55.6655 43.7956 55.8985 42.726 55.8985 41.5476V26.0787H31.4662ZM35.9713 51.9094C35.5171 51.8071 35.0705 51.6978 34.6317 51.5815C32.9992 51.1236 31.506 50.5861 30.1522 49.9689C28.8184 49.3319 27.6637 48.6152 26.6882 47.8188C25.7325 47.0225 24.986 46.1564 24.4484 45.2207C24.2622 44.8897 24.1083 44.5527 23.9866 44.2097C22.6688 43.7737 21.5999 43.1751 20.7799 42.4136C19.9437 41.6372 19.5256 40.6318 19.5256 39.3975L11.7613 41.5476C11.9007 42.9014 12.2889 44.0959 12.926 45.1312C13.563 46.1664 14.3992 47.0722 15.4344 47.8487C16.4697 48.6052 17.6642 49.2522 19.018 49.7898C20.3917 50.3074 21.8749 50.7255 23.4675 51.044C25.0602 51.3625 26.7425 51.5915 28.5143 51.7308C30.2862 51.8702 32.0879 51.9399 33.9195 51.9399C34.6035 51.9399 35.2874 51.9297 35.9713 51.9094ZM38.5215 13.203C38.9677 13.0952 39.433 12.9973 39.9174 12.9092C41.6693 12.5708 43.6104 12.4015 45.7406 12.4015C47.9505 12.4015 49.9314 12.5807 51.6833 12.9391C52.9496 13.1837 54.0756 13.4959 55.061 13.8758C55.5008 14.7612 55.7799 15.7431 55.8985 16.8212L48.1342 18.9713C48.1342 17.7768 47.7261 16.8013 46.9098 16.0448C46.1135 15.2684 45.0484 14.6611 43.7145 14.2232C42.4005 13.7653 40.8875 13.4467 39.1754 13.2675C38.9584 13.2446 38.7404 13.2231 38.5215 13.203Z" fill="url(#paint0_linear_385_1420)"/>
<path d="M83.6252 48.8146C83.6252 44.9723 84.6555 42.0109 86.716 39.9304C88.5078 38.1188 90.7873 37.2129 93.5546 37.2129C97.2576 37.2129 99.9652 38.4273 101.677 40.8562C102.623 42.2199 103.131 43.5886 103.2 44.9623H98.6014C98.3028 43.9072 97.9196 43.1108 97.4517 42.5733C96.6156 41.6177 95.3763 41.1399 93.7338 41.1399C92.0615 41.1399 90.7425 41.8168 89.777 43.1706C88.8114 44.5144 88.3286 46.4206 88.3286 48.8893C88.3286 51.3579 88.8363 53.2094 89.8516 54.4438C90.8769 55.6681 92.176 56.2803 93.7487 56.2803C95.3613 56.2803 96.5907 55.7527 97.4368 54.6976C97.9046 54.1302 98.2929 53.2791 98.6014 52.1443H103.156C102.757 54.5433 101.737 56.4943 100.095 57.9974C98.4621 59.5005 96.3667 60.2521 93.8085 60.2521C90.643 60.2521 88.1544 59.2367 86.3428 57.2061C84.5311 55.1654 83.6252 52.3683 83.6252 48.8146Z" fill="url(#paint1_linear_385_1420)"/>
<path d="M116.415 56.355C118.236 56.355 119.68 55.6831 120.745 54.3392C121.82 52.9954 122.357 51.0842 122.357 48.6056C122.357 46.1369 121.82 44.2307 120.745 42.8869C119.68 41.5331 118.236 40.8562 116.415 40.8562C114.593 40.8562 113.14 41.5281 112.055 42.8719C110.97 44.2157 110.427 46.127 110.427 48.6056C110.427 51.0842 110.97 52.9954 112.055 54.3392C113.14 55.6831 114.593 56.355 116.415 56.355ZM126.956 48.6056C126.956 52.5574 125.846 55.5835 123.626 57.6839C121.964 59.396 119.56 60.2521 116.415 60.2521C113.269 60.2521 110.865 59.396 109.203 57.6839C106.973 55.5835 105.858 52.5574 105.858 48.6056C105.858 44.5741 106.973 41.548 109.203 39.5273C110.865 37.8152 113.269 36.9591 116.415 36.9591C119.56 36.9591 121.964 37.8152 123.626 39.5273C125.846 41.548 126.956 44.5741 126.956 48.6056Z" fill="url(#paint2_linear_385_1420)"/>
<path d="M145.068 37.631H151.683V59.6399H147.397V44.7533C147.397 44.3252 147.402 43.728 147.412 42.9615C147.422 42.1851 147.427 41.5878 147.427 41.1697L143.261 59.6399H138.797L134.661 41.1697C134.661 41.5878 134.666 42.1851 134.676 42.9615C134.686 43.728 134.691 44.3252 134.691 44.7533V59.6399H130.405V37.631H137.095L141.096 54.9365L145.068 37.631Z" fill="url(#paint3_linear_385_1420)"/>
<path d="M168.346 44.6338C168.346 43.4891 168.042 42.6728 167.435 42.1851C166.838 41.6973 165.997 41.4534 164.912 41.4534H160.626V47.9337H164.912C165.997 47.9337 166.838 47.6699 167.435 47.1423C168.042 46.6147 168.346 45.7786 168.346 44.6338ZM172.9 44.604C172.9 47.202 172.243 49.0386 170.929 50.1137C169.615 51.1887 167.739 51.7262 165.3 51.7262H160.626V59.6399H156.057V37.631H165.643C167.853 37.631 169.615 38.1984 170.929 39.3332C172.243 40.468 172.9 42.2249 172.9 44.604Z" fill="url(#paint4_linear_385_1420)"/>
<path d="M176.349 37.631H180.948V55.6831H191.848V59.6399H176.349V37.631Z" fill="url(#paint5_linear_385_1420)"/>
<path d="M204.794 37.631H210.005L202.643 51.3679V59.6399H198.045V51.3679L190.43 37.631H195.85L200.419 47.217L204.794 37.631Z" fill="url(#paint6_linear_385_1420)"/>
<path d="M89.0215 26.9329C89.1882 28.1357 89.5157 29.0347 90.0039 29.6302C90.897 30.7138 92.4273 31.2557 94.5946 31.2557C95.8926 31.2557 96.9465 31.1128 97.7563 30.827C99.2924 30.2792 100.061 29.261 100.061 27.7725C100.061 26.9031 99.6795 26.2303 98.9173 25.754C98.1552 25.2896 96.9584 24.8787 95.327 24.5215L92.5404 23.8963C89.8015 23.277 87.908 22.6042 86.8601 21.8778C85.0858 20.6632 84.1986 18.7638 84.1986 16.1797C84.1986 13.8218 85.056 11.8629 86.7708 10.3029C88.4856 8.74289 91.0042 7.96289 94.3267 7.96289C97.1013 7.96289 99.4651 8.70121 101.418 10.1778C103.383 11.6426 104.413 13.7742 104.508 16.5726H99.221C99.1257 14.9888 98.435 13.8635 97.1489 13.1966C96.2915 12.756 95.2257 12.5357 93.9515 12.5357C92.5344 12.5357 91.4032 12.8215 90.5577 13.3931C89.7122 13.9647 89.2894 14.7626 89.2894 15.7867C89.2894 16.7274 89.7062 17.43 90.5398 17.8945C91.0757 18.2041 92.2189 18.5673 93.9694 18.9841L98.5065 20.0737C100.495 20.55 101.996 21.1871 103.008 21.985C104.58 23.2235 105.366 25.0157 105.366 27.3616C105.366 29.7671 104.443 31.7677 102.597 33.3634C100.763 34.9472 98.1671 35.7392 94.8089 35.7392C91.3793 35.7392 88.6821 34.9592 86.7172 33.3992C84.7523 31.8273 83.7699 29.6718 83.7699 26.9329H89.0215Z" fill="url(#paint7_linear_385_1420)"/>
<path d="M126.524 8.73098H134.437V35.0604H129.311V17.2514C129.311 16.7394 129.317 16.0249 129.329 15.1079C129.341 14.1791 129.347 13.4646 129.347 12.9644L124.363 35.0604H119.022L114.074 12.9644C114.074 13.4646 114.08 14.1791 114.092 15.1079C114.104 16.0249 114.11 16.7394 114.11 17.2514V35.0604H108.983V8.73098H116.986L121.773 29.4337L126.524 8.73098Z" fill="url(#paint8_linear_385_1420)"/>
<path d="M146.379 25.1109H153.059L149.773 14.7507L146.379 25.1109ZM146.718 8.73098H152.934L162.259 35.0604H156.293L154.596 29.648H144.896L143.074 35.0604H137.323L146.718 8.73098Z" fill="url(#paint9_linear_385_1420)"/>
<path d="M170.753 13.3038V20.3774H176.987C178.225 20.3774 179.154 20.2345 179.773 19.9487C180.869 19.4485 181.417 18.4601 181.417 16.9835C181.417 15.3878 180.887 14.316 179.827 13.7682C179.231 13.4586 178.338 13.3038 177.147 13.3038H170.753ZM178.291 8.73098C180.136 8.76671 181.554 8.99296 182.542 9.40976C183.542 9.82655 184.388 10.4398 185.078 11.2496C185.65 11.9165 186.103 12.6548 186.436 13.4646C186.769 14.2743 186.936 15.1972 186.936 16.2333C186.936 17.4836 186.621 18.7161 185.989 19.9308C185.358 21.1335 184.316 21.985 182.863 22.4851C184.078 22.9734 184.936 23.67 185.436 24.5751C185.948 25.4682 186.204 26.8377 186.204 28.6834V30.4518C186.204 31.6546 186.251 32.4703 186.347 32.899C186.49 33.5778 186.823 34.0779 187.347 34.3995V35.0604H181.292C181.125 34.4769 181.006 34.0065 180.934 33.6492C180.791 32.9109 180.714 32.1547 180.702 31.3807L180.666 28.9335C180.643 27.2544 180.333 26.1351 179.738 25.5754C179.154 25.0157 178.052 24.7358 176.433 24.7358H170.753V35.0604H165.376V8.73098H178.291Z" fill="url(#paint10_linear_385_1420)"/>
<path d="M210.453 8.73098V13.3931H202.575V35.0604H197.038V13.3931H189.125V8.73098H210.453Z" fill="url(#paint11_linear_385_1420)"/>
<defs>
<linearGradient id="paint0_linear_385_1420" x1="5.7096" y1="27.1405" x2="59.0547" y2="26.9147" gradientUnits="userSpaceOnUse">
<stop stop-color="#05DEEC" stop-opacity="0.74"/>
<stop offset="1" stop-color="#0E2C66" stop-opacity="0.74"/>
</linearGradient>
<linearGradient id="paint1_linear_385_1420" x1="94.6197" y1="28.7668" x2="197.332" y2="27.6745" gradientUnits="userSpaceOnUse">
<stop stop-color="#05DEEC" stop-opacity="0.74"/>
<stop offset="1" stop-color="#0E2C66" stop-opacity="0.74"/>
</linearGradient>
<linearGradient id="paint2_linear_385_1420" x1="94.6197" y1="28.7668" x2="197.332" y2="27.6745" gradientUnits="userSpaceOnUse">
<stop stop-color="#05DEEC" stop-opacity="0.74"/>
<stop offset="1" stop-color="#0E2C66" stop-opacity="0.74"/>
</linearGradient>
<linearGradient id="paint3_linear_385_1420" x1="94.6197" y1="28.7668" x2="197.332" y2="27.6745" gradientUnits="userSpaceOnUse">
<stop stop-color="#05DEEC" stop-opacity="0.74"/>
<stop offset="1" stop-color="#0E2C66" stop-opacity="0.74"/>
</linearGradient>
<linearGradient id="paint4_linear_385_1420" x1="94.6197" y1="28.7668" x2="197.332" y2="27.6745" gradientUnits="userSpaceOnUse">
<stop stop-color="#05DEEC" stop-opacity="0.74"/>
<stop offset="1" stop-color="#0E2C66" stop-opacity="0.74"/>
</linearGradient>
<linearGradient id="paint5_linear_385_1420" x1="94.6197" y1="28.7668" x2="197.332" y2="27.6745" gradientUnits="userSpaceOnUse">
<stop stop-color="#05DEEC" stop-opacity="0.74"/>
<stop offset="1" stop-color="#0E2C66" stop-opacity="0.74"/>
</linearGradient>
<linearGradient id="paint6_linear_385_1420" x1="94.6197" y1="28.7668" x2="197.332" y2="27.6745" gradientUnits="userSpaceOnUse">
<stop stop-color="#05DEEC" stop-opacity="0.74"/>
<stop offset="1" stop-color="#0E2C66" stop-opacity="0.74"/>
</linearGradient>
<linearGradient id="paint7_linear_385_1420" x1="94.6197" y1="28.7668" x2="197.332" y2="27.6745" gradientUnits="userSpaceOnUse">
<stop stop-color="#05DEEC" stop-opacity="0.74"/>
<stop offset="1" stop-color="#0E2C66" stop-opacity="0.74"/>
</linearGradient>
<linearGradient id="paint8_linear_385_1420" x1="94.6197" y1="28.7668" x2="197.332" y2="27.6745" gradientUnits="userSpaceOnUse">
<stop stop-color="#05DEEC" stop-opacity="0.74"/>
<stop offset="1" stop-color="#0E2C66" stop-opacity="0.74"/>
</linearGradient>
<linearGradient id="paint9_linear_385_1420" x1="94.6197" y1="28.7668" x2="197.332" y2="27.6745" gradientUnits="userSpaceOnUse">
<stop stop-color="#05DEEC" stop-opacity="0.74"/>
<stop offset="1" stop-color="#0E2C66" stop-opacity="0.74"/>
</linearGradient>
<linearGradient id="paint10_linear_385_1420" x1="94.6197" y1="28.7668" x2="197.332" y2="27.6745" gradientUnits="userSpaceOnUse">
<stop stop-color="#05DEEC" stop-opacity="0.74"/>
<stop offset="1" stop-color="#0E2C66" stop-opacity="0.74"/>
</linearGradient>
<linearGradient id="paint11_linear_385_1420" x1="94.6197" y1="28.7668" x2="197.332" y2="27.6745" gradientUnits="userSpaceOnUse">
<stop stop-color="#05DEEC" stop-opacity="0.74"/>
<stop offset="1" stop-color="#0E2C66" stop-opacity="0.74"/>
</linearGradient>
</defs>
</svg>
