<svg width="250" height="48" viewBox="0 0 250 48" fill="none" xmlns="http://www.w3.org/2000/svg">
<g clip-path="url(#clip0_527_1299)">
<path d="M43.3325 27.3449L48.3733 27.2931C46.5664 37.3878 40.7891 44.2556 30.8628 46.982C21.3279 49.5992 12.7539 47.1661 6.21126 39.6886C-0.331415 32.211 -1.74123 23.3415 2.3386 14.242C6.41842 5.14238 13.8473 0.235973 24.0094 0.103678C36.9854 -0.0631284 46.7333 8.62806 48.5229 21.6562H43.344C42.2737 10.4457 30.6442 2.55976 19.6016 5.56803C9.48548 8.31746 3.33985 18.2683 5.65309 28.1444C6.78609 32.9798 9.75362 37.1862 13.9297 39.8765C18.1059 42.5668 23.1641 43.5306 28.0374 42.5645C32.7905 41.65 37.0948 39.6311 39.454 34.972C41.5199 33.8216 42.2219 31.9752 42.1816 29.7492C43.039 29.1798 43.1023 28.2249 43.3325 27.3449Z" fill="#3CC3DE"/>
<path d="M222.2 28.1846C221.393 26.7909 220.503 25.4464 219.536 24.1583C223.213 21.2823 224.208 18.9815 223.069 15.8812C221.861 12.6141 218.949 10.8713 214.61 10.854C211.555 10.854 208.499 10.9 205.443 10.8253C204.091 10.7965 203.389 10.9921 203.412 12.6256C203.493 19.9996 203.441 27.3794 203.458 34.7591C203.458 35.4436 203.222 36.1798 204.39 36.4847C208.418 37.4338 209.863 36.4099 209.863 32.4238C209.863 30.9111 209.805 29.3925 209.863 27.8855C209.909 27.132 209.339 26.0219 210.553 25.7343C211.013 25.5996 211.498 25.571 211.97 25.6508C212.443 25.7305 212.891 25.9164 213.281 26.1945C215.007 27.4426 215.715 29.3178 216.549 31.1009C219.133 36.6227 219.098 36.64 225.221 36.4157C225.376 36.4157 225.52 36.2661 225.883 36.0706C224.686 33.4419 223.535 30.7673 222.2 28.1846ZM212.067 21.1385C208.971 21.4376 210.099 19.2519 209.851 17.8024C209.437 15.3578 210.899 15.1967 212.285 15.4038C214.731 15.4383 216.785 15.6339 216.693 18.2798C216.584 21.2823 214.173 20.9372 212.067 21.1385Z" fill="#017BB1"/>
<path d="M72.1328 23.7556C72.1935 29.6031 70.1114 35.2706 66.2794 39.6891C62.4473 44.1077 57.1302 46.9718 51.3309 47.7413C48.1027 48.1842 47.8265 47.8045 47.8783 44.641C47.8783 42.9154 48.9198 42.9556 50.0649 42.8061C59.525 41.5579 66.0389 35.0122 67.1092 25.6941C68.2601 15.8812 60.7219 6.38476 50.7209 5.21712C48.6608 4.97553 47.8437 4.52688 47.8437 2.24336C47.7977 -0.540583 49.4147 9.96729e-05 50.9511 0.143898C60.5723 1.15049 69.0542 8.48998 71.448 17.8657C71.9601 19.7855 72.1907 21.7695 72.1328 23.7556Z" fill="#017BB1"/>
<path d="M179.388 23.6119C179.388 20.109 179.474 16.6061 179.354 13.1089C179.296 11.4351 179.676 10.7793 181.534 10.8081C186.403 10.9404 191.282 10.9519 196.15 10.8081C198.09 10.7506 198.285 11.5443 198.291 13.1089C198.297 14.6734 198.072 15.5362 196.145 15.4097C193.268 15.2428 190.39 15.4499 187.548 15.3406C185.188 15.2543 185.821 16.9167 185.89 18.0555C185.96 19.1944 184.918 21.1328 187.53 21.0638C190.298 20.9948 193.078 21.1673 195.845 21.012C197.796 20.9028 197.704 22.0014 197.687 23.3128C197.67 24.6243 197.877 25.7632 195.88 25.6424C193.406 25.4928 190.897 25.7689 188.434 25.5561C186.167 25.3605 185.706 26.2406 185.798 28.2768C185.994 32.5102 185.407 31.7912 189.516 31.8487C191.904 31.8832 194.303 31.9868 196.68 31.82C198.751 31.6704 198.406 32.9703 198.475 34.1667C198.527 35.4954 198.533 36.4675 196.617 36.4675C191.438 36.3467 186.293 36.387 181.137 36.4675C179.739 36.4675 179.336 36.0016 179.365 34.6672C179.44 30.9974 179.388 27.3047 179.388 23.6119Z" fill="#017BB1"/>
<path d="M241.627 10.8885C238.284 10.7907 234.929 10.9747 231.591 10.8252C229.721 10.7389 229.359 11.4694 229.41 13.126C229.52 16.6231 229.439 20.1318 229.439 23.629C229.439 27.2297 229.439 30.8247 229.439 34.4197C229.439 35.1732 229.059 36.105 230.348 36.4674C234.238 37.5717 236.045 36.3006 236.045 32.326V31.7508C236.045 26.3899 236.045 26.3899 241.443 26.2174C246.219 26.0678 249.597 22.8698 249.614 18.4695C249.654 14.3166 246.248 11.0207 241.627 10.8885ZM238.583 21.7251C235.867 21.9782 235.826 20.5747 235.993 19.4991C236.206 17.1983 235.257 15.0586 238.324 15.3922C240.476 15.6223 242.72 15.513 242.927 18.412C243.123 20.5517 241.558 21.449 238.583 21.7251Z" fill="#017BB1"/>
<path d="M86.9274 23.7095C86.9274 20.0225 86.9792 16.3298 86.9274 12.6428C86.8987 11.3198 87.2669 10.8252 88.6537 10.8482C93.4298 10.9229 98.2059 10.969 102.982 10.8482C105.031 10.7906 104.708 11.9986 104.708 13.2007C104.749 14.5064 104.841 15.5993 102.878 15.5015C100.312 15.3347 97.6995 15.5705 95.1446 15.4325C92.5897 15.2944 93.3665 17.089 93.3608 18.3084C93.355 19.5279 92.6012 21.3167 95.1561 21.1844C97.7111 21.0521 100.335 21.2764 102.89 21.1154C104.869 20.9888 104.737 22.1162 104.708 23.4162C104.68 24.7161 104.985 25.878 102.942 25.7515C100.375 25.5962 97.7628 25.7917 95.2079 25.6882C93.66 25.6192 93.2284 26.1944 93.2975 27.6496C93.3953 29.9159 93.2342 32.1936 93.3493 34.4599C93.4356 36.0417 92.9522 36.7607 91.295 36.5249C90.7224 36.4432 90.1412 36.4432 89.5687 36.5249C87.5259 36.8355 86.6915 36.2258 86.8354 33.9767C87.1116 30.5313 86.9274 27.1147 86.9274 23.7095Z" fill="#017BB1"/>
<path d="M162.798 32.51C161.791 32.7804 160.836 33.2693 159.823 33.4821C156.802 34.1091 153.885 32.8379 153.056 30.5716C152.619 29.381 152.446 28.3341 154.38 28.4779C155.899 28.5929 157.429 28.4779 158.954 28.4779C160.297 28.4147 161.641 28.4243 162.982 28.5067C164.818 28.708 165.365 28.0235 165.042 26.2807C164.594 23.8533 163.558 21.8229 161.463 20.3964C157.349 17.5952 151.572 18.481 148.66 22.3636C145.823 26.1426 146.513 32.0499 150.127 34.8971C153.741 37.7443 162.016 37.7155 164.375 34.9604C164.683 34.5954 164.878 34.1479 164.934 33.6734C164.99 33.1989 164.906 32.7184 164.691 32.2915C164.133 31.1986 163.414 32.3375 162.798 32.51ZM156.325 22.2601C158.126 22.214 159.99 22.9273 159.887 24.7161C159.766 26.8041 157.585 24.998 156.526 25.7975C155.375 25.0613 153.269 26.7466 153.073 24.6931C152.895 23.0366 154.65 22.3003 156.325 22.2601Z" fill="#017BB1"/>
<path d="M58.8749 24.3768C58.8749 25.2281 59.0015 26.3899 58.1844 26.9306C57.2177 27.5748 55.1231 27.1665 54.001 27.178C50.8438 27.201 47.6847 27.2144 44.5236 27.2182C40.4419 27.2182 36.3601 27.1991 32.2784 27.1607C30.2874 27.1607 28.2504 27.2355 26.2709 27.0917C24.6827 26.9766 24.2741 26.1311 24.3432 24.5838C24.3777 23.8246 24.2741 22.7892 24.8438 22.191C25.6264 21.38 27.3412 21.7366 28.3309 21.7366H37.7968C42.1854 21.7366 46.5741 21.7366 50.9627 21.7366C52.9825 21.7366 55.1979 21.4778 57.2004 21.7366C58.7598 21.9034 58.9325 23.0078 58.8749 24.3768Z" fill="#017BB1"/>
<path d="M120.987 34.6268C119.67 35.5701 118.444 36.6515 116.804 36.9678C115.915 37.1649 114.994 37.1611 114.107 36.9566C113.22 36.7522 112.39 36.3523 111.677 35.7862C110.965 35.22 110.388 34.5019 109.989 33.6844C109.589 32.8668 109.378 31.9704 109.369 31.0606C109.254 27.7475 109.438 24.4286 109.306 21.1212C109.208 18.5098 111.073 19.5452 112.252 19.3956C113.593 19.2461 114.911 19.1195 114.778 21.2765C114.606 24.1065 114.68 26.9594 114.778 29.7951C114.83 31.653 115.089 33.672 117.655 33.5282C119.917 33.3959 121.315 32.0096 121.367 29.6513C121.425 26.8099 121.499 23.9627 121.367 21.1327C121.24 18.8319 122.788 19.3611 124.003 19.4071C125.217 19.4531 126.966 18.7111 126.88 21.2247C126.736 25.4812 126.88 29.7434 126.811 34.0056C126.811 34.9661 127.467 36.3064 125.464 36.4732C122.506 36.7147 121.649 36.4904 120.987 34.6268Z" fill="#017BB1"/>
<path d="M130.735 32.7516C132.645 33.0507 134.418 33.3958 136.202 33.5856C137.243 33.6891 138.503 33.6661 138.733 32.3317C138.969 31.1813 137.899 30.7441 137.053 30.3415C135.764 29.7318 134.418 29.2486 133.146 28.6159C132.217 28.2245 131.44 27.5441 130.929 26.6757C130.417 25.8074 130.2 24.7974 130.309 23.7958C130.47 21.541 131.88 20.2008 133.877 19.4416C136.484 18.4465 139.119 18.6996 141.732 19.4876C144.177 20.2238 142.681 22.1047 143.32 23.5945C141.018 23.2839 139.366 22.1162 137.393 22.237C136.581 22.2888 135.782 22.3866 135.54 23.2321C135.264 24.2214 136.173 24.4745 136.84 24.7851C138.135 25.3603 139.499 25.8377 140.748 26.5107C143.049 27.7474 144.275 29.6168 143.889 32.3259C143.51 34.9488 141.789 36.2085 139.349 36.7722C136.908 37.2587 134.384 37.1262 132.007 36.3868C129.757 35.7828 130.787 34.0688 130.735 32.7516Z" fill="#017BB1"/>
<path d="M79.8782 24.0778C79.8782 31.1642 79.8782 38.2506 79.8437 45.36C79.8437 46.2343 80.5285 47.7241 78.8424 47.8104C77.0413 47.9082 77.7721 46.3609 77.7664 45.5096C77.7204 31.2448 77.7204 16.978 77.7664 2.70936C77.7664 1.85807 77.0528 0.293538 78.8309 0.362562C80.4824 0.431585 79.8437 1.93284 79.8494 2.82439C79.9012 9.90504 79.8782 16.9914 79.8782 24.0778Z" fill="#017BB1"/>
<path d="M42.1816 29.7607C42.2219 31.9867 41.5198 33.8331 39.454 34.9835C35.167 34.9835 30.8743 34.9087 26.5931 35.11C23.9921 35.2366 24.5963 33.603 24.4697 32.1765C24.3201 30.4509 24.6942 29.6169 26.7427 29.6744C31.8871 29.8297 37.0314 29.7492 42.1816 29.7607Z" fill="#017BB1"/>
</g>
<defs>
<clipPath id="clip0_527_1299">
<rect width="249.6" height="48" fill="white" transform="translate(0.0368652)"/>
</clipPath>
</defs>
</svg>
