<svg width="1396" height="350" viewBox="0 0 1396 350" fill="none" xmlns="http://www.w3.org/2000/svg">
<g clip-path="url(#clip0_385_1393)">
<rect width="1396" height="350" rx="24" fill="#05DEEC"/>
<g style="mix-blend-mode:overlay">
<path d="M1514.3 45.5004C1484.85 28.4942 1452.33 17.4562 1418.61 13.0168C1384.89 8.57723 1350.62 10.8231 1317.77 19.6262C1284.91 28.4292 1254.12 43.617 1227.13 64.3225C1200.15 85.0279 1177.51 110.845 1160.5 140.301C1143.49 169.757 1132.46 202.273 1128.02 235.995C1123.58 269.716 1125.82 303.982 1134.63 336.835C1143.43 369.689 1158.62 400.486 1179.32 427.47C1200.03 454.454 1225.85 477.095 1255.3 494.102L1337.5 351.73C1326.74 345.518 1317.31 337.248 1309.75 327.392C1302.18 317.536 1296.64 306.286 1293.42 294.286C1290.21 282.286 1289.39 269.77 1291.01 257.453C1292.63 245.136 1296.66 233.258 1302.87 222.499C1309.08 211.74 1317.35 202.31 1327.21 194.747C1337.07 187.184 1348.32 181.637 1360.32 178.421C1372.32 175.206 1384.83 174.385 1397.15 176.007C1409.47 177.629 1421.34 181.66 1432.1 187.872L1514.3 45.5004Z" fill="#05DEEC"/>
</g>
<g style="mix-blend-mode:overlay">
<path d="M1514.3 45.5004C1484.85 28.4942 1452.33 17.4562 1418.61 13.0168C1384.89 8.57723 1350.62 10.8231 1317.77 19.6262C1284.91 28.4292 1254.12 43.617 1227.13 64.3225C1200.15 85.0279 1177.51 110.845 1160.5 140.301C1143.49 169.757 1132.46 202.273 1128.02 235.995C1123.58 269.716 1125.82 303.982 1134.63 336.835C1143.43 369.689 1158.62 400.486 1179.32 427.47C1200.03 454.454 1225.85 477.095 1255.3 494.102L1337.5 351.73C1326.74 345.518 1317.31 337.248 1309.75 327.392C1302.18 317.536 1296.64 306.286 1293.42 294.286C1290.21 282.286 1289.39 269.77 1291.01 257.453C1292.63 245.136 1296.66 233.258 1302.87 222.499C1309.08 211.74 1317.35 202.31 1327.21 194.747C1337.07 187.184 1348.32 181.637 1360.32 178.421C1372.32 175.206 1384.83 174.385 1397.15 176.007C1409.47 177.629 1421.34 181.66 1432.1 187.872L1514.3 45.5004Z" fill="url(#paint0_linear_385_1393)"/>
</g>
<g style="mix-blend-mode:hard-light">
<path d="M290.301 -41.4996C414.178 30.0213 456.622 188.423 385.101 312.301C313.58 436.179 155.178 478.622 31.3006 407.102C-92.5772 335.581 -135.021 177.179 -63.5 53.301C8.02087 -70.5768 166.423 -113.02 290.301 -41.4996ZM101.095 286.214C158.208 319.189 231.239 299.62 264.214 242.507C297.188 185.393 277.62 112.362 220.506 79.3878C163.393 46.4133 90.3619 65.9818 57.3874 123.095C24.4129 180.209 43.9814 253.24 101.095 286.214Z" fill="#0E2C66"/>
</g>
<g style="mix-blend-mode:multiply">
<circle cx="161" cy="183" r="91" fill="url(#paint1_linear_385_1393)" fill-opacity="0.28"/>
</g>
</g>
<defs>
<linearGradient id="paint0_linear_385_1393" x1="1231.93" y1="428.759" x2="1440.11" y2="64.5027" gradientUnits="userSpaceOnUse">
<stop stop-color="#05DEEC" stop-opacity="0.74"/>
<stop offset="1" stop-color="#0E2C66" stop-opacity="0.74"/>
</linearGradient>
<linearGradient id="paint1_linear_385_1393" x1="70" y1="183" x2="252" y2="183" gradientUnits="userSpaceOnUse">
<stop stop-color="#0E2C66"/>
<stop offset="1" stop-color="#05DEEC"/>
</linearGradient>
<clipPath id="clip0_385_1393">
<rect width="1396" height="350" rx="24" fill="white"/>
</clipPath>
</defs>
</svg>
