<svg width="111" height="129" viewBox="0 0 111 129" fill="none" xmlns="http://www.w3.org/2000/svg">
<path d="M55.5 6.57812C51.1809 6.57812 46.9042 7.42882 42.9139 9.08164C38.9237 10.7345 35.298 13.157 32.244 16.2111C26.0762 22.3789 22.6111 30.7443 22.6111 39.467C22.6111 54.0039 32.0502 66.3372 45.1071 70.7115C46.7515 70.9746 47.2778 69.955 47.2778 69.067V63.5088C38.1675 65.4821 36.2271 59.1017 36.2271 59.1017C34.7142 55.2866 32.5764 54.267 32.5764 54.267C29.5835 52.2279 32.8066 52.2937 32.8066 52.2937C36.0955 52.5239 37.8386 55.6812 37.8386 55.6812C40.7 60.6804 45.5346 59.2004 47.4093 58.411C47.7053 56.2732 48.5604 54.8261 49.4813 54.0039C42.18 53.1817 34.5169 50.3532 34.5169 37.8226C34.5169 34.1719 35.7666 31.2448 37.9044 28.9097C37.5755 28.0875 36.4244 24.667 38.2333 20.227C38.2333 20.227 40.996 19.339 47.2778 23.5817C49.876 22.8581 52.7044 22.4963 55.5 22.4963C58.2955 22.4963 61.124 22.8581 63.7222 23.5817C70.004 19.339 72.7666 20.227 72.7666 20.227C74.5755 24.667 73.4244 28.0875 73.0955 28.9097C75.2333 31.2448 76.4831 34.1719 76.4831 37.8226C76.4831 50.3861 68.7871 53.1488 61.4529 53.971C62.6369 54.9906 63.7222 56.9968 63.7222 60.0555V69.067C63.7222 69.955 64.2484 71.0075 65.9258 70.7115C78.9826 66.3044 88.3889 54.0039 88.3889 39.467C88.3889 35.148 87.5382 30.8712 85.8853 26.881C84.2325 22.8907 81.8099 19.2651 78.7559 16.2111C75.7019 13.157 72.0763 10.7345 68.086 9.08164C64.0957 7.42882 59.819 6.57813 55.5 6.57812Z" fill="black"/>
<g clip-path="url(#clip0_429_97)">
<path fill-rule="evenodd" clip-rule="evenodd" d="M45.7073 118.474H45.658C45.6802 118.474 45.695 118.499 45.7172 118.501H45.732L45.7073 118.477V118.474ZM45.7172 118.501C45.4878 118.504 44.9106 118.625 44.3013 118.625C42.3773 118.625 41.7113 117.737 41.7113 116.577V108.854H45.6333C45.8553 108.854 46.028 108.657 46.028 108.386V104.192C46.028 103.97 45.8307 103.773 45.6333 103.773H41.7113V98.5682C41.7113 98.3709 41.588 98.2476 41.366 98.2476H36.038C35.816 98.2476 35.6927 98.3709 35.6927 98.5682V103.921C35.6927 103.921 33.004 104.587 32.8313 104.612C32.634 104.661 32.5107 104.834 32.5107 105.031V108.386C32.5107 108.657 32.708 108.854 32.93 108.854H35.668V116.945C35.668 122.964 39.8613 123.58 42.7227 123.58C44.03 123.58 45.6087 123.161 45.8553 123.038C46.0033 122.988 46.0773 122.816 46.0773 122.643V118.943C46.0807 118.838 46.0462 118.735 45.98 118.654C45.9139 118.572 45.8206 118.517 45.7172 118.499V118.501ZM104.167 113.072C104.167 108.608 102.367 108.016 100.467 108.213C98.9873 108.312 97.8033 109.052 97.8033 109.052V117.734C97.8033 117.734 99.012 118.573 100.813 118.622C103.353 118.696 104.167 117.784 104.167 113.072ZM110.161 112.678C110.161 121.138 107.423 123.556 102.638 123.556C98.5927 123.556 96.422 121.508 96.422 121.508C96.422 121.508 96.3233 122.643 96.2 122.791C96.126 122.939 96.0027 122.988 95.8547 122.988H92.204C91.9573 122.988 91.7353 122.791 91.7353 122.569L91.7847 95.1642C91.7847 94.9422 91.982 94.7449 92.204 94.7449H97.458C97.68 94.7449 97.8773 94.9422 97.8773 95.1642V104.464C97.8773 104.464 99.9 103.156 102.86 103.156L102.835 103.107C105.795 103.107 110.161 104.217 110.161 112.678ZM88.652 103.773H83.472C83.2007 103.773 83.0527 103.97 83.0527 104.242V117.66C83.0527 117.66 81.696 118.622 79.846 118.622C77.996 118.622 77.4533 117.784 77.4533 115.934V104.217C77.4533 103.995 77.256 103.798 77.034 103.798H71.7553C71.5333 103.798 71.336 103.995 71.336 104.217V116.822C71.336 122.248 74.37 123.605 78.5387 123.605C81.9673 123.605 84.7547 121.706 84.7547 121.706C84.7547 121.706 84.878 122.668 84.952 122.816C85.0013 122.939 85.174 123.038 85.3467 123.038H88.652C88.9233 123.038 89.0713 122.84 89.0713 122.618L89.1207 104.192C89.1207 103.97 88.9233 103.773 88.652 103.773ZM30.192 103.748H24.938C24.716 103.748 24.5187 103.97 24.5187 104.242V122.347C24.5187 122.84 24.8393 123.013 25.2587 123.013H29.9947C30.488 123.013 30.6113 122.791 30.6113 122.347V104.168C30.6113 103.946 30.414 103.748 30.192 103.748ZM27.602 95.4109C25.7027 95.4109 24.198 96.9156 24.198 98.8149C24.198 100.714 25.7027 102.219 27.602 102.219C29.452 102.219 30.9567 100.714 30.9567 98.8149C30.9567 96.9156 29.452 95.4109 27.602 95.4109ZM68.2773 94.7942H63.0727C62.8507 94.7942 62.6533 94.9916 62.6533 95.2136V105.302H54.4887V95.2136C54.4887 94.9916 54.2913 94.7942 54.0693 94.7942H48.8153C48.5933 94.7942 48.396 94.9916 48.396 95.2136V122.618C48.396 122.84 48.618 123.038 48.8153 123.038H54.0693C54.2913 123.038 54.4887 122.84 54.4887 122.618V110.902H62.6533L62.604 122.618C62.604 122.84 62.8013 123.038 63.0233 123.038H68.2773C68.4993 123.038 68.6967 122.84 68.6967 122.618V95.2136C68.6967 94.9916 68.4993 94.7942 68.2773 94.7942ZM21.7313 106.93V121.089C21.7313 121.188 21.7067 121.36 21.5833 121.41C21.5833 121.41 18.5 123.605 13.4187 123.605C7.27667 123.605 0 121.681 0 109.002C0 96.3236 6.364 93.7089 12.58 93.7336C17.9573 93.7336 20.128 94.9422 20.4733 95.1642C20.572 95.2876 20.6213 95.3862 20.6213 95.5096L19.5853 99.9002C19.5853 100.122 19.3633 100.394 19.092 100.32C18.204 100.048 16.872 99.5056 13.7393 99.5056C10.1133 99.5056 6.216 100.542 6.216 108.706C6.216 116.871 9.916 117.833 12.58 117.833C14.8493 117.833 15.6633 117.562 15.6633 117.562V111.888H12.0373C11.766 111.888 11.5687 111.691 11.5687 111.469V106.93C11.5687 106.708 11.766 106.511 12.0373 106.511H21.2627C21.534 106.511 21.7313 106.708 21.7313 106.93Z" fill="black"/>
</g>
<defs>
<clipPath id="clip0_429_97">
<rect width="111" height="39.4667" fill="white" transform="translate(0 88.7998)"/>
</clipPath>
</defs>
</svg>
