<svg width="75" height="56" viewBox="0 0 75 56" fill="none" xmlns="http://www.w3.org/2000/svg">
<g clip-path="url(#clip0_529_1365)">
<path d="M17.2664 55.6207V27.0787L8.41463 18.9807L0.477051 14.4868V50.5838C0.477051 53.3708 2.73508 55.6207 5.51397 55.6207H17.2664Z" fill="#4285F4"/>
<path d="M57.5605 55.6204H69.313C72.1002 55.6204 74.3499 53.3621 74.3499 50.5835V14.4868L65.3593 19.634L57.5605 27.0784V55.6204Z" fill="#34A853"/>
<path d="M17.2665 27.0779L16.062 15.9257L17.2665 5.25195L37.4136 20.3624L57.5607 5.25195L58.908 15.3495L57.5607 27.0779L37.4136 42.1884L17.2665 27.0779Z" fill="#EA4335"/>
<path d="M57.5605 5.25214V27.0781L74.3499 14.4862V7.77046C74.3499 1.54176 67.2396 -2.00904 62.2619 1.72644L57.5605 5.25214Z" fill="#FBBC04"/>
<path d="M0.477051 14.4864L8.19879 20.2779L17.2664 27.0782V5.25227L12.5651 1.72657C7.57866 -2.0092 0.477051 1.54189 0.477051 7.7703V14.4861V14.4864Z" fill="#C5221F"/>
</g>
<defs>
<clipPath id="clip0_529_1365">
<rect width="73.8729" height="55.6932" fill="white" transform="translate(0.476562 0.201172)"/>
</clipPath>
</defs>
</svg>
