<svg width="122" height="129" viewBox="0 0 122 129" fill="none" xmlns="http://www.w3.org/2000/svg">
<path d="M8.19374 115.154H15.1496C15.1892 115.312 15.2223 115.504 15.2487 115.728C15.2751 115.953 15.2883 116.178 15.2883 116.402C15.2883 117.314 15.1496 118.173 14.8722 118.978C14.5947 119.784 14.1587 120.504 13.5642 121.139C12.9301 121.812 12.1704 122.334 11.2852 122.704C10.4001 123.074 9.38938 123.259 8.25319 123.259C7.2227 123.259 6.25165 123.074 5.34006 122.704C4.42846 122.334 3.63577 121.819 2.96198 121.158C2.2882 120.498 1.75313 119.718 1.35679 118.82C0.960441 117.908 0.762268 116.917 0.762268 115.847C0.762268 114.777 0.960441 113.793 1.35679 112.895C1.75313 111.983 2.2882 111.197 2.96198 110.536C3.63577 109.876 4.42846 109.36 5.34006 108.991C6.25165 108.621 7.2227 108.436 8.25319 108.436C9.40259 108.436 10.4265 108.634 11.3249 109.03C12.2365 109.427 13.0159 109.975 13.6633 110.675L11.8203 112.478C11.3579 111.99 10.8426 111.62 10.2746 111.369C9.70646 111.104 9.02607 110.972 8.23338 110.972C7.58601 110.972 6.97168 111.091 6.39037 111.329C5.80906 111.554 5.30042 111.877 4.86444 112.3C4.42846 112.723 4.07836 113.238 3.81413 113.846C3.56311 114.44 3.4376 115.107 3.4376 115.847C3.4376 116.587 3.56311 117.261 3.81413 117.869C4.07836 118.463 4.42846 118.972 4.86444 119.395C5.31363 119.817 5.82888 120.148 6.41019 120.385C6.99149 120.61 7.61243 120.722 8.27301 120.722C9.02607 120.722 9.66022 120.617 10.1755 120.405C10.7039 120.181 11.1531 119.897 11.523 119.553C11.7873 119.315 12.0119 119.018 12.1968 118.661C12.395 118.291 12.5469 117.882 12.6526 117.433H8.19374V115.154ZM21.6831 112.914C22.4362 112.914 23.1232 113.046 23.7441 113.311C24.3782 113.562 24.9199 113.918 25.3691 114.381C25.8315 114.83 26.1882 115.372 26.4392 116.006C26.7035 116.64 26.8356 117.334 26.8356 118.087C26.8356 118.84 26.7035 119.533 26.4392 120.167C26.1882 120.802 25.8315 121.35 25.3691 121.812C24.9199 122.262 24.3782 122.618 23.7441 122.882C23.1232 123.133 22.4362 123.259 21.6831 123.259C20.93 123.259 20.2364 123.133 19.6023 122.882C18.9813 122.618 18.4397 122.262 17.9773 121.812C17.5281 121.35 17.1714 120.802 16.9071 120.167C16.6561 119.533 16.5306 118.84 16.5306 118.087C16.5306 117.334 16.6561 116.64 16.9071 116.006C17.1714 115.372 17.5281 114.83 17.9773 114.381C18.4397 113.918 18.9813 113.562 19.6023 113.311C20.2364 113.046 20.93 112.914 21.6831 112.914ZM21.6831 120.861C22.0134 120.861 22.3305 120.802 22.6343 120.683C22.9514 120.551 23.2288 120.366 23.4667 120.128C23.7045 119.89 23.8894 119.599 24.0215 119.256C24.1669 118.912 24.2395 118.523 24.2395 118.087C24.2395 117.651 24.1669 117.261 24.0215 116.917C23.8894 116.574 23.7045 116.283 23.4667 116.045C23.2288 115.808 22.9514 115.629 22.6343 115.51C22.3305 115.378 22.0134 115.312 21.6831 115.312C21.3396 115.312 21.0159 115.378 20.7121 115.51C20.4082 115.629 20.1374 115.808 19.8995 116.045C19.6617 116.283 19.4702 116.574 19.3248 116.917C19.1927 117.261 19.1267 117.651 19.1267 118.087C19.1267 118.523 19.1927 118.912 19.3248 119.256C19.4702 119.599 19.6617 119.89 19.8995 120.128C20.1374 120.366 20.4082 120.551 20.7121 120.683C21.0159 120.802 21.3396 120.861 21.6831 120.861ZM33.1012 112.914C33.8543 112.914 34.5413 113.046 35.1622 113.311C35.7964 113.562 36.3381 113.918 36.7873 114.381C37.2497 114.83 37.6064 115.372 37.8574 116.006C38.1216 116.64 38.2537 117.334 38.2537 118.087C38.2537 118.84 38.1216 119.533 37.8574 120.167C37.6064 120.802 37.2497 121.35 36.7873 121.812C36.3381 122.262 35.7964 122.618 35.1622 122.882C34.5413 123.133 33.8543 123.259 33.1012 123.259C32.3482 123.259 31.6546 123.133 31.0204 122.882C30.3995 122.618 29.8578 122.262 29.3954 121.812C28.9462 121.35 28.5895 120.802 28.3253 120.167C28.0743 119.533 27.9488 118.84 27.9488 118.087C27.9488 117.334 28.0743 116.64 28.3253 116.006C28.5895 115.372 28.9462 114.83 29.3954 114.381C29.8578 113.918 30.3995 113.562 31.0204 113.311C31.6546 113.046 32.3482 112.914 33.1012 112.914ZM33.1012 120.861C33.4315 120.861 33.7486 120.802 34.0525 120.683C34.3696 120.551 34.647 120.366 34.8848 120.128C35.1226 119.89 35.3076 119.599 35.4397 119.256C35.585 118.912 35.6577 118.523 35.6577 118.087C35.6577 117.651 35.585 117.261 35.4397 116.917C35.3076 116.574 35.1226 116.283 34.8848 116.045C34.647 115.808 34.3696 115.629 34.0525 115.51C33.7486 115.378 33.4315 115.312 33.1012 115.312C32.7577 115.312 32.4341 115.378 32.1302 115.51C31.8263 115.629 31.5555 115.808 31.3177 116.045C31.0799 116.283 30.8883 116.574 30.743 116.917C30.6109 117.261 30.5448 117.651 30.5448 118.087C30.5448 118.523 30.6109 118.912 30.743 119.256C30.8883 119.599 31.0799 119.89 31.3177 120.128C31.5555 120.366 31.8263 120.551 32.1302 120.683C32.4341 120.802 32.7577 120.861 33.1012 120.861ZM44.4005 127.539C43.7135 127.539 43.0992 127.447 42.5575 127.262C42.029 127.09 41.5666 126.859 41.1703 126.568C40.7739 126.291 40.4436 125.981 40.1794 125.637C39.9152 125.294 39.7236 124.95 39.6047 124.607L42.0819 123.616C42.2668 124.131 42.5707 124.527 42.9935 124.805C43.4162 125.095 43.8852 125.241 44.4005 125.241C45.2196 125.241 45.867 124.983 46.3426 124.468C46.8182 123.966 47.056 123.259 47.056 122.347V121.674H46.8975C46.5936 122.096 46.1906 122.433 45.6886 122.684C45.1998 122.922 44.6185 123.041 43.9447 123.041C43.3634 123.041 42.7953 122.922 42.2404 122.684C41.6987 122.446 41.2165 122.11 40.7937 121.674C40.371 121.224 40.0275 120.689 39.7633 120.068C39.499 119.447 39.3669 118.754 39.3669 117.988C39.3669 117.221 39.499 116.528 39.7633 115.907C40.0275 115.273 40.371 114.738 40.7937 114.302C41.2165 113.852 41.6987 113.509 42.2404 113.271C42.7953 113.033 43.3634 112.914 43.9447 112.914C44.6185 112.914 45.1998 113.04 45.6886 113.291C46.1906 113.529 46.5936 113.859 46.8975 114.282H47.056V113.231H49.5332V122.248C49.5332 123.067 49.4077 123.801 49.1566 124.448C48.9056 125.109 48.5555 125.663 48.1063 126.113C47.6571 126.575 47.1155 126.925 46.4813 127.163C45.8604 127.414 45.1668 127.539 44.4005 127.539ZM44.4996 120.703C44.8167 120.703 45.1271 120.643 45.431 120.524C45.7481 120.405 46.0255 120.234 46.2633 120.009C46.5011 119.771 46.6927 119.487 46.838 119.157C46.9833 118.813 47.056 118.424 47.056 117.988C47.056 117.552 46.9833 117.162 46.838 116.818C46.6927 116.475 46.5011 116.191 46.2633 115.966C46.0255 115.728 45.7481 115.55 45.431 115.431C45.1271 115.312 44.8167 115.253 44.4996 115.253C44.1825 115.253 43.872 115.312 43.5682 115.431C43.2643 115.55 42.9935 115.728 42.7557 115.966C42.5179 116.204 42.3263 116.495 42.181 116.838C42.0356 117.168 41.963 117.552 41.963 117.988C41.963 118.424 42.0356 118.813 42.181 119.157C42.3263 119.487 42.5179 119.771 42.7557 120.009C42.9935 120.234 43.2643 120.405 43.5682 120.524C43.872 120.643 44.1825 120.703 44.4996 120.703ZM51.7463 122.942V108.753H54.3424V122.942H51.7463ZM65.6636 120.603C65.2144 121.396 64.6067 122.037 63.8404 122.526C63.0874 123.015 62.1626 123.259 61.066 123.259C60.3262 123.259 59.6392 123.133 59.005 122.882C58.3841 122.618 57.8424 122.255 57.38 121.792C56.9176 121.33 56.5543 120.788 56.2901 120.167C56.0391 119.533 55.9135 118.84 55.9135 118.087C55.9135 117.386 56.0391 116.726 56.2901 116.105C56.5411 115.471 56.8912 114.923 57.3404 114.46C57.7896 113.984 58.318 113.608 58.9258 113.331C59.5467 113.053 60.2271 112.914 60.9669 112.914C61.7464 112.914 62.44 113.046 63.0478 113.311C63.6555 113.562 64.1641 113.918 64.5737 114.381C64.9832 114.83 65.2937 115.365 65.5051 115.986C65.7165 116.607 65.8222 117.281 65.8222 118.007C65.8222 118.1 65.8222 118.179 65.8222 118.245C65.809 118.324 65.8024 118.397 65.8024 118.463C65.7891 118.529 65.7825 118.602 65.7825 118.681H58.47C58.5228 119.078 58.6285 119.421 58.787 119.712C58.9588 119.989 59.1636 120.227 59.4014 120.425C59.6524 120.61 59.9232 120.749 60.2139 120.841C60.5045 120.921 60.8018 120.96 61.1057 120.96C61.7002 120.96 62.189 120.828 62.5721 120.564C62.9685 120.286 63.279 119.943 63.5036 119.533L65.6636 120.603ZM63.3054 116.838C63.2922 116.666 63.2327 116.475 63.127 116.263C63.0345 116.052 62.8892 115.854 62.691 115.669C62.5061 115.484 62.2683 115.332 61.9776 115.213C61.7002 115.094 61.3633 115.035 60.9669 115.035C60.4121 115.035 59.9232 115.193 59.5005 115.51C59.0777 115.827 58.7804 116.27 58.6087 116.838H63.3054ZM78.83 123.259C76.7294 123.259 74.9723 122.552 73.5586 121.139C72.1582 119.725 71.458 117.961 71.458 115.847C71.458 113.733 72.1582 111.976 73.5586 110.576C74.9591 109.149 76.7162 108.436 78.83 108.436C80.9703 108.436 82.7076 109.209 84.042 110.754L82.734 112.023C81.7168 110.794 80.4154 110.18 78.83 110.18C77.2579 110.18 75.9433 110.708 74.8864 111.765C73.8427 112.809 73.3208 114.169 73.3208 115.847C73.3208 117.525 73.8427 118.886 74.8864 119.93C75.9433 120.987 77.2579 121.515 78.83 121.515C80.4815 121.515 81.9149 120.821 83.1304 119.434L84.4581 120.722C83.7844 121.528 82.9586 122.156 81.981 122.605C81.0033 123.041 79.953 123.259 78.83 123.259ZM87.9014 108.753V122.942H86.0782V108.753H87.9014ZM89.4713 118.087C89.4713 116.594 89.9403 115.358 90.8783 114.381C91.8295 113.403 93.0252 112.914 94.4652 112.914C95.9053 112.914 97.0943 113.403 98.0323 114.381C98.9836 115.358 99.4592 116.594 99.4592 118.087C99.4592 119.593 98.9836 120.828 98.0323 121.792C97.0943 122.77 95.9053 123.259 94.4652 123.259C93.0252 123.259 91.8295 122.77 90.8783 121.792C89.9403 120.815 89.4713 119.58 89.4713 118.087ZM91.2945 118.087C91.2945 119.13 91.5983 119.976 92.2061 120.623C92.8138 121.271 93.5669 121.594 94.4652 121.594C95.3636 121.594 96.1167 121.271 96.7244 120.623C97.3321 119.976 97.636 119.13 97.636 118.087C97.636 117.056 97.3321 116.217 96.7244 115.57C96.1035 114.909 95.3504 114.579 94.4652 114.579C93.5801 114.579 92.827 114.909 92.2061 115.57C91.5983 116.217 91.2945 117.056 91.2945 118.087ZM109.54 122.942H107.796V121.594H107.717C107.439 122.07 107.01 122.466 106.429 122.783C105.861 123.1 105.266 123.259 104.645 123.259C103.456 123.259 102.538 122.922 101.891 122.248C101.256 121.561 100.939 120.59 100.939 119.335V113.231H102.762V119.216C102.802 120.802 103.601 121.594 105.16 121.594C105.887 121.594 106.495 121.304 106.984 120.722C107.472 120.128 107.717 119.421 107.717 118.602V113.231H109.54V122.942ZM116.022 121.594C116.921 121.594 117.654 121.271 118.222 120.623C118.817 119.976 119.114 119.13 119.114 118.087C119.114 117.069 118.817 116.23 118.222 115.57C117.641 114.909 116.908 114.579 116.022 114.579C115.15 114.579 114.417 114.909 113.823 115.57C113.228 116.23 112.931 117.069 112.931 118.087C112.931 119.117 113.228 119.956 113.823 120.603C114.417 121.264 115.15 121.594 116.022 121.594ZM115.725 123.259C114.457 123.259 113.367 122.757 112.455 121.753C111.557 120.736 111.108 119.514 111.108 118.087C111.108 116.66 111.557 115.438 112.455 114.42C113.367 113.416 114.457 112.914 115.725 112.914C116.439 112.914 117.086 113.066 117.667 113.37C118.262 113.674 118.718 114.077 119.035 114.579H119.114L119.035 113.231V108.753H120.858V122.942H119.114V121.594H119.035C118.718 122.096 118.262 122.499 117.667 122.803C117.086 123.107 116.439 123.259 115.725 123.259Z" fill="#322323"/>
<path d="M76.2194 25.2944H79.7043L89.6353 15.3634L90.1114 11.1453C84.4215 6.13248 77.5484 2.65167 70.1405 1.0312C62.7325 -0.589266 55.0339 -0.295972 47.7707 1.88341C40.5075 4.0628 33.9192 8.05643 28.6272 13.4876C23.3351 18.9189 19.5138 25.6086 17.5237 32.9259C18.6307 32.474 19.8563 32.402 21.0086 32.7212L40.8706 29.441C40.8706 29.441 41.8846 27.77 42.4036 27.8747C46.6606 23.2007 52.5428 20.3302 58.8467 19.8506C65.1505 19.3709 71.3994 21.3183 76.3146 25.2944H76.2194Z" fill="#EA4335"/>
<path d="M103.784 32.926C101.499 24.5248 96.8117 16.9733 90.2968 11.1978L76.3572 25.1373C79.2637 27.5096 81.593 30.5114 83.1691 33.916C84.7452 37.3206 85.5269 41.0389 85.4551 44.7899V47.2655C88.7455 47.2655 91.9012 48.5726 94.2279 50.8993C96.5546 53.226 97.8617 56.3816 97.8617 59.6721C97.8617 62.9625 96.5546 66.1182 94.2279 68.4449C91.9012 70.7716 88.7455 72.0787 85.4551 72.0787H60.6419L58.1663 74.5876V89.4699L60.6419 91.9407H85.4551C92.3846 91.9958 99.1478 89.8186 104.744 85.7314C110.34 81.6442 114.471 75.8641 116.527 69.2463C118.583 62.6286 118.454 55.5248 116.159 48.9862C113.864 42.4475 109.525 36.8214 103.784 32.9403V32.926Z" fill="#4285F4"/>
<path d="M35.7952 91.7884H60.6084V71.9264H35.7952C34.0274 71.9236 32.2807 71.5421 30.6726 70.8076L27.1877 71.8883L17.1901 81.8193L16.3188 85.3042C21.9263 89.539 28.7684 91.8169 35.7952 91.7884Z" fill="#34A853"/>
<path d="M35.7955 27.3513C29.0722 27.3906 22.5292 29.5291 17.0804 33.4678C11.6315 37.4066 7.54911 42.949 5.40334 49.3207C3.25758 55.6925 3.15566 62.5754 5.11182 69.0079C7.06798 75.4404 10.9845 81.1012 16.3143 85.1996L30.7062 70.8077C28.8768 69.9814 27.2752 68.7236 26.0389 67.1422C24.8026 65.5608 23.9684 63.703 23.6081 61.7283C23.2477 59.7535 23.3719 57.7209 23.9699 55.8047C24.5679 53.8885 25.622 52.1461 27.0416 50.7269C28.4612 49.3077 30.2039 48.2541 32.1203 47.6567C34.0366 47.0592 36.0694 46.9356 38.044 47.2965C40.0186 47.6575 41.8761 48.4922 43.4572 49.7289C45.0383 50.9657 46.2956 52.5677 47.1214 54.3973L61.5132 40.0007C58.4916 36.0525 54.598 32.8564 50.1367 30.6621C45.6754 28.4678 40.7672 27.3347 35.7955 27.3513Z" fill="#FBBC05"/>
</svg>
