<svg width="180" height="180" viewBox="0 0 180 180" fill="none" xmlns="http://www.w3.org/2000/svg">
<rect width="180" height="180" rx="16" fill="url(#paint0_linear_49_83)" fill-opacity="0.28"/>
<path d="M129.829 143H51.1561C47.5366 143 44.4464 141.718 41.8854 139.155C39.3244 136.591 38.0439 133.498 38.0439 129.875V51.125C38.0439 47.502 39.3244 44.4087 41.8854 41.8452C44.4464 39.2817 47.5366 38 51.1561 38H129.829C133.449 38 136.539 39.2817 139.1 41.8452C141.661 44.4087 142.942 47.502 142.942 51.125V129.875C142.942 133.498 141.661 136.591 139.1 139.155C136.539 141.718 133.449 143 129.829 143ZM104.834 86.3984C104.629 86.3984 104.39 86.3813 104.117 86.3472C103.844 86.313 103.366 86.2275 102.683 86.0908C102 85.9541 101.385 85.7661 100.839 85.5269C100.293 85.2876 99.7976 84.8774 99.3537 84.2964C98.9098 83.7153 98.6879 83.0488 98.6879 82.2969C98.6879 81.4082 98.944 80.605 99.4562 79.8872C99.9683 79.1694 100.532 78.5713 101.146 78.0928C101.761 77.6143 102.324 76.7427 102.837 75.478C103.349 74.2134 103.605 72.6582 103.605 70.8125V64.25C103.605 62.4043 103.093 60.8491 102.068 59.5845C101.044 58.3198 99.9171 57.6875 98.6879 57.6875C97.5269 57.6875 96.5537 58.0806 95.7683 58.8667C94.983 59.6528 94.5903 60.627 94.5903 61.7891V63.8398C94.5903 65.2754 94.1293 66.728 93.2074 68.1978C92.2854 69.6675 91.2269 70.9492 90.0318 72.043C88.8366 73.1367 87.4537 74.4526 85.883 75.9907C84.3122 77.5288 83.1171 78.9473 82.2976 80.2461C81.8196 80.8613 81.1366 81.6304 80.2488 82.5532C79.361 83.4761 78.0635 84.5869 76.3561 85.8857C74.6488 87.1846 72.5147 88.2783 69.9537 89.167C67.3927 90.0557 64.6781 90.5 61.8098 90.5C61.6732 90.5 61.5708 90.5342 61.5025 90.6025C60.5464 90.7393 59.6757 91.7476 58.8903 93.6274C58.1049 95.5073 57.7122 97.1992 57.7122 98.7031V115.109C57.7122 116.408 58.0879 117.417 58.8391 118.134C59.5903 118.852 60.5805 119.211 61.8098 119.211C63.1757 119.211 65.9074 119.895 70.0049 121.262C74.1025 122.629 76.8342 123.312 78.2001 123.312H110.981C112.073 123.312 113.029 122.902 113.849 122.082C114.668 121.262 115.078 120.288 115.078 119.16C115.078 118.032 114.668 117.075 113.849 116.289C113.029 115.502 112.073 115.109 110.981 115.109H115.078C116.239 115.109 117.212 114.699 117.998 113.879C118.783 113.059 119.176 112.084 119.176 110.957C119.176 109.829 118.783 108.872 117.998 108.085C117.212 107.299 116.239 106.906 115.078 106.906C116.239 106.906 117.212 106.496 117.998 105.676C118.783 104.855 119.176 103.881 119.176 102.753C119.176 101.625 118.783 100.668 117.998 99.8823C117.212 99.0962 116.239 98.7031 115.078 98.7031H119.176C120.337 98.7031 121.31 98.293 122.095 97.4727C122.881 96.6523 123.273 95.6953 123.273 94.6016C123.273 92.4824 121.446 90.5854 117.793 88.9106C114.139 87.2358 109.82 86.3984 104.834 86.3984Z" fill="#0E2C66"/>
<defs>
<linearGradient id="paint0_linear_49_83" x1="0" y1="90" x2="180" y2="90" gradientUnits="userSpaceOnUse">
<stop stop-color="#0E2C66"/>
<stop offset="1" stop-color="#05DEEC"/>
</linearGradient>
</defs>
</svg>
