<svg width="180" height="180" viewBox="0 0 180 180" fill="none" xmlns="http://www.w3.org/2000/svg">
<rect width="180" height="180" rx="16" fill="url(#paint0_linear_49_78)" fill-opacity="0.28"/>
<path d="M84.75 37.5L123.064 49.47C124.133 49.8036 125.067 50.47 125.73 51.372C126.393 52.274 126.75 53.3643 126.75 54.4838V63.75H137.25C138.642 63.75 139.978 64.3031 140.962 65.2877C141.947 66.2723 142.5 67.6076 142.5 69V79.5H74.25V69C74.25 67.6076 74.8031 66.2723 75.7877 65.2877C76.7723 64.3031 78.1076 63.75 79.5 63.75H116.25V58.3425L84.75 48.4935L53.25 58.3425V97.2135C53.2492 100.428 53.9863 103.599 55.4044 106.484C56.8225 109.368 58.8838 111.888 61.4295 113.851L62.4218 114.565L84.75 129.795L104.605 116.25H79.5C78.1076 116.25 76.7723 115.697 75.7877 114.712C74.8031 113.728 74.25 112.392 74.25 111V90H142.5V111C142.5 112.392 141.947 113.728 140.962 114.712C139.978 115.697 138.642 116.25 137.25 116.25L120.345 116.255C118.313 118.933 115.846 121.295 112.995 123.238L84.75 142.5L56.505 123.243C52.2657 120.353 48.7967 116.47 46.3995 111.934C44.0023 107.398 42.7495 102.344 42.75 97.2135V54.4838C42.7506 53.3652 43.1085 52.2761 43.7715 51.3751C44.4344 50.4742 45.3678 49.8086 46.4355 49.4753L84.75 37.5Z" fill="#0E2C66"/>
<defs>
<linearGradient id="paint0_linear_49_78" x1="0" y1="90" x2="180" y2="90" gradientUnits="userSpaceOnUse">
<stop stop-color="#0E2C66"/>
<stop offset="1" stop-color="#05DEEC"/>
</linearGradient>
</defs>
</svg>
