<svg width="400" height="620" viewBox="0 0 620 620" fill="none" xmlns="http://www.w3.org/2000/svg">
<path d="M541.126 177.876C541.126 177.876 547.034 98.2236 464.42 45.1165C381.805 -7.99055 263.791 2.32838 184.123 43.6356C104.454 84.9429 116.27 179.294 89.7715 239.774C63.2732 300.254 2.73016 310.668 7.15706 393.203C11.584 475.739 63.2259 515.644 122.162 528.925C181.098 542.206 235.765 525.979 288.872 534.817C341.979 543.655 415.74 561.378 501.3 527.444C586.861 493.51 603.087 400.576 591.287 326.816C579.488 253.055 541.126 226.509 541.126 177.876Z" fill="#0E2C66"/>
<path opacity="0.7" d="M541.126 177.876C541.126 177.876 547.034 98.2236 464.42 45.1165C381.805 -7.99055 263.791 2.32838 184.123 43.6356C104.454 84.9429 116.27 179.294 89.7715 239.774C63.2732 300.254 2.73016 310.668 7.15706 393.203C11.584 475.739 63.2259 515.644 122.162 528.925C181.098 542.206 235.765 525.979 288.872 534.817C341.979 543.655 415.74 561.378 501.3 527.444C586.861 493.51 603.087 400.576 591.287 326.816C579.488 253.055 541.126 226.509 541.126 177.876Z" fill="white"/>
<path d="M461.726 491.572H158.018L181.996 468.429H437.748L461.726 491.572Z" fill="white" stroke="#040404" stroke-linecap="round" stroke-linejoin="round"/>
<path d="M427.981 477.362C427.981 482.088 372.983 485.979 305.099 485.979C237.214 485.979 182.217 482.119 182.217 477.362C182.217 472.604 237.214 468.728 305.099 468.728C372.983 468.728 427.981 472.588 427.981 477.362Z" fill="#0E2C66"/>
<path opacity="0.5" d="M427.981 477.362C427.981 482.088 372.983 485.979 305.099 485.979C237.214 485.979 182.217 482.119 182.217 477.362C182.217 472.604 237.214 468.728 305.099 468.728C372.983 468.728 427.981 472.588 427.981 477.362Z" fill="white"/>
<path d="M461.726 491.572H158.018V513.013H461.726V491.572Z" fill="#040404" stroke="#040404" stroke-linecap="round" stroke-linejoin="round"/>
<path d="M483.214 536.14H136.53L158.018 513.013H461.726L483.214 536.14Z" fill="white" stroke="#040404" stroke-linecap="round" stroke-linejoin="round"/>
<path d="M483.151 536.14H136.593V558.7H483.151V536.14Z" fill="#040404" stroke="#040404" stroke-linecap="round" stroke-linejoin="round"/>
<path d="M306.516 262.838V118.641H361.388V57.9717" stroke="#040404" stroke-miterlimit="10"/>
<path d="M327.958 117.963V57.9717" stroke="#040404" stroke-miterlimit="10"/>
<path d="M310.612 285.823H563.245V249.904H611.531" stroke="#040404" stroke-miterlimit="10"/>
<path d="M298.23 284.579H57.9955V246.202H5.99121" stroke="#040404" stroke-miterlimit="10"/>
<path d="M257.364 19.5789V74.0723H226.407V108.731H264.8V225.138" stroke="#040404" stroke-miterlimit="10"/>
<path d="M427.02 180.554V102.54H448.067V69.1099H465.412" stroke="#040404" stroke-miterlimit="10"/>
<path d="M171.929 173.134V113.694L154.584 96.3488V53.0093" stroke="#040404" stroke-miterlimit="10"/>
<path d="M474.077 207.809H517.416V179.326H545.9V163.225H570.665" stroke="#040404" stroke-miterlimit="10"/>
<path d="M128.574 217.718H82.7608V181.799H18.3738" stroke="#040404" stroke-miterlimit="10"/>
<path d="M170.684 412.124V444.325H149.637V480.245H88.9521" stroke="#040404" stroke-miterlimit="10"/>
<path d="M402.254 417.086V450.517H450.54V436.905H464.168V465.373H506.278" stroke="#040404" stroke-miterlimit="10"/>
<path d="M364.917 57.9717C364.914 58.6689 364.704 59.3497 364.314 59.9279C363.925 60.5062 363.372 60.956 362.727 61.2207C362.082 61.4854 361.373 61.553 360.69 61.4151C360.006 61.2772 359.379 60.9398 358.887 60.4457C358.395 59.9515 358.06 59.3227 357.926 58.6386C357.791 57.9545 357.861 57.2458 358.129 56.6018C358.397 55.9579 358.849 55.4077 359.429 55.0207C360.009 54.6336 360.69 54.427 361.388 54.427C361.853 54.427 362.313 54.5188 362.742 54.6971C363.171 54.8755 363.561 55.1368 363.889 55.4662C364.217 55.7955 364.476 56.1864 364.653 56.6164C364.829 57.0463 364.919 57.5069 364.917 57.9717Z" fill="#040404" stroke="#040404" stroke-linecap="round" stroke-linejoin="round"/>
<path d="M331.613 57.9717C331.61 58.6689 331.4 59.3497 331.01 59.9279C330.621 60.5062 330.068 60.956 329.423 61.2207C328.778 61.4854 328.069 61.553 327.386 61.4151C326.702 61.2772 326.075 60.9398 325.583 60.4457C325.091 59.9515 324.756 59.3227 324.622 58.6386C324.487 57.9545 324.558 57.2458 324.825 56.6018C325.093 55.9579 325.545 55.4077 326.125 55.0207C326.705 54.6336 327.387 54.427 328.084 54.427C328.549 54.427 329.009 54.5188 329.438 54.6971C329.867 54.8755 330.257 55.1368 330.585 55.4662C330.913 55.7955 331.172 56.1864 331.349 56.6164C331.525 57.0463 331.615 57.5069 331.613 57.9717Z" fill="#040404" stroke="#040404" stroke-linecap="round" stroke-linejoin="round"/>
<path d="M260.924 18.555C260.924 19.2567 260.716 19.9427 260.326 20.5259C259.935 21.1092 259.381 21.5635 258.732 21.8313C258.084 22.0991 257.37 22.1684 256.682 22.0303C255.994 21.8923 255.362 21.5531 254.867 21.0558C254.372 20.5585 254.036 19.9254 253.901 19.2368C253.766 18.5482 253.838 17.8349 254.109 17.1875C254.38 16.5401 254.837 15.9876 255.422 15.6C256.007 15.2124 256.693 15.0072 257.395 15.0103C257.86 15.0103 258.32 15.1021 258.749 15.2804C259.178 15.4587 259.568 15.7201 259.896 16.0495C260.224 16.3788 260.484 16.7697 260.66 17.1997C260.836 17.6296 260.926 18.0902 260.924 18.555Z" fill="#040404" stroke="#040404" stroke-linecap="round" stroke-linejoin="round"/>
<path d="M158.144 51.229C158.141 51.9263 157.932 52.607 157.542 53.1852C157.152 53.7635 156.6 54.2133 155.955 54.478C155.31 54.7427 154.601 54.8103 153.917 54.6724C153.234 54.5345 152.606 54.1971 152.114 53.703C151.623 53.2088 151.288 52.58 151.153 51.8959C151.018 51.2118 151.089 50.5031 151.357 49.8592C151.624 49.2153 152.076 48.665 152.656 48.278C153.236 47.8909 153.918 47.6843 154.615 47.6843C155.08 47.6843 155.54 47.7761 155.969 47.9544C156.399 48.1328 156.788 48.3941 157.116 48.7235C157.444 49.0528 157.704 49.4437 157.88 49.8737C158.057 50.3037 158.146 50.7642 158.144 51.229Z" fill="#040404" stroke="#040404" stroke-linecap="round" stroke-linejoin="round"/>
<path d="M21.9028 181.799C21.9059 182.501 21.7003 183.189 21.312 183.774C20.9237 184.36 20.3702 184.816 19.7219 185.087C19.0735 185.357 18.3595 185.428 17.6705 185.292C16.9814 185.156 16.3484 184.818 15.8517 184.321C15.355 183.824 15.0171 183.191 14.8808 182.502C14.7446 181.813 14.8161 181.099 15.0863 180.451C15.3566 179.803 15.8133 179.249 16.3987 178.861C16.984 178.473 17.6715 178.267 18.3739 178.27C19.3098 178.27 20.2074 178.642 20.8692 179.304C21.531 179.965 21.9028 180.863 21.9028 181.799Z" fill="#040404" stroke="#040404" stroke-linecap="round" stroke-linejoin="round"/>
<path d="M9.63037 246.092C9.63037 246.793 9.42248 247.478 9.03298 248.061C8.64349 248.644 8.08989 249.098 7.44219 249.366C6.79448 249.635 6.08176 249.705 5.39416 249.568C4.70656 249.431 4.07496 249.094 3.57923 248.598C3.0835 248.102 2.7459 247.471 2.60913 246.783C2.47236 246.095 2.54255 245.383 2.81084 244.735C3.07913 244.087 3.53346 243.534 4.11638 243.144C4.6993 242.755 5.38463 242.547 6.0857 242.547C7.0258 242.547 7.9274 242.92 8.59216 243.585C9.25691 244.25 9.63037 245.151 9.63037 246.092Z" fill="#040404" stroke="#040404" stroke-linecap="round" stroke-linejoin="round"/>
<path d="M92.7961 479.567C92.7961 480.269 92.5878 480.955 92.1976 481.538C91.8074 482.121 91.2529 482.576 90.6043 482.844C89.9557 483.111 89.2421 483.181 88.5541 483.043C87.8661 482.905 87.2345 482.565 86.7394 482.068C86.2443 481.571 85.908 480.938 85.773 480.249C85.638 479.56 85.7104 478.847 85.9812 478.2C86.2519 477.552 86.7086 477 87.2936 476.612C87.8786 476.225 88.5655 476.019 89.2672 476.022C89.732 476.022 90.1921 476.114 90.6213 476.293C91.0505 476.471 91.4402 476.732 91.7681 477.062C92.096 477.391 92.3556 477.782 92.532 478.212C92.7085 478.642 92.7982 479.102 92.7961 479.567Z" fill="#040404" stroke="#040404" stroke-linecap="round" stroke-linejoin="round"/>
<path d="M511.603 464.68C511.606 465.381 511.401 466.068 511.014 466.653C510.626 467.238 510.073 467.695 509.426 467.966C508.779 468.236 508.065 468.309 507.377 468.174C506.688 468.039 506.055 467.703 505.558 467.207C505.06 466.712 504.721 466.081 504.583 465.393C504.445 464.705 504.514 463.991 504.782 463.343C505.05 462.694 505.504 462.139 506.088 461.749C506.671 461.359 507.357 461.151 508.059 461.151C508.523 461.149 508.984 461.238 509.414 461.415C509.844 461.591 510.235 461.851 510.564 462.179C510.894 462.507 511.155 462.896 511.333 463.325C511.511 463.755 511.603 464.215 511.603 464.68Z" fill="#040404" stroke="#040404" stroke-linecap="round" stroke-linejoin="round"/>
<path d="M616.856 249.211C616.856 249.909 616.649 250.591 616.262 251.171C615.874 251.752 615.323 252.204 614.678 252.471C614.033 252.738 613.324 252.808 612.639 252.672C611.955 252.536 611.326 252.2 610.832 251.706C610.339 251.213 610.003 250.584 609.866 249.899C609.73 249.215 609.8 248.505 610.067 247.86C610.334 247.216 610.787 246.664 611.367 246.277C611.947 245.889 612.63 245.682 613.327 245.682C614.263 245.682 615.161 246.054 615.823 246.715C616.485 247.377 616.856 248.275 616.856 249.211Z" fill="#040404" stroke="#040404" stroke-linecap="round" stroke-linejoin="round"/>
<path d="M575.864 162.469C575.864 163.167 575.657 163.849 575.269 164.429C574.882 165.01 574.331 165.462 573.686 165.729C573.041 165.996 572.331 166.066 571.647 165.93C570.962 165.794 570.333 165.457 569.84 164.964C569.346 164.47 569.01 163.842 568.874 163.157C568.738 162.473 568.808 161.763 569.075 161.118C569.342 160.473 569.794 159.922 570.375 159.534C570.955 159.147 571.637 158.94 572.335 158.94C573.271 158.94 574.169 159.311 574.831 159.973C575.492 160.635 575.864 161.533 575.864 162.469Z" fill="#040404" stroke="#040404" stroke-linecap="round" stroke-linejoin="round"/>
<path d="M471.225 69.0152C471.225 69.7132 471.018 70.3955 470.631 70.9758C470.243 71.5561 469.692 72.0084 469.047 72.2755C468.402 72.5426 467.692 72.6125 467.008 72.4763C466.323 72.3402 465.695 72.0041 465.201 71.5105C464.708 71.017 464.371 70.3882 464.235 69.7037C464.099 69.0192 464.169 68.3096 464.436 67.6648C464.703 67.0199 465.155 66.4688 465.736 66.081C466.316 65.6933 466.998 65.4863 467.696 65.4863C468.632 65.4863 469.53 65.8581 470.192 66.5199C470.854 67.1817 471.225 68.0793 471.225 69.0152Z" fill="#040404" stroke="#040404" stroke-linecap="round" stroke-linejoin="round"/>
<path d="M352.739 443.333V412.612H260.294V443.333C260.265 453.376 256.796 463.107 250.463 470.902L246.414 475.912H366.587L362.554 470.902C356.221 463.108 352.756 453.375 352.739 443.333Z" fill="white"/>
<path d="M254.622 464.853H358.41C354.696 458.288 352.743 450.875 352.739 443.333V412.612H260.294V443.333C260.29 450.875 258.336 458.288 254.622 464.853Z" fill="#0E2C66"/>
<path opacity="0.3" d="M254.622 464.853H358.41C354.696 458.288 352.743 450.875 352.739 443.333V412.612H260.294V443.333C260.29 450.875 258.336 458.288 254.622 464.853Z" fill="white"/>
<path d="M254.622 432.462H358.41C354.696 425.898 352.743 418.484 352.739 410.942V380.222H260.294V410.942C260.29 418.484 258.336 425.898 254.622 432.462Z" fill="#040404"/>
<path d="M352.739 443.333V412.612H260.294V443.333C260.265 453.376 256.796 463.107 250.463 470.902L246.414 475.912H366.587L362.554 470.902C356.221 463.108 352.756 453.375 352.739 443.333V443.333Z" stroke="#040404" stroke-linecap="round" stroke-linejoin="round"/>
<path d="M478.913 149.503H134.119C126.741 149.503 120.76 155.484 120.76 162.862V408.926C120.76 416.304 126.741 422.285 134.119 422.285H478.913C486.292 422.285 492.273 416.304 492.273 408.926V162.862C492.273 155.484 486.292 149.503 478.913 149.503Z" fill="#040404" stroke="#040404" stroke-linecap="round" stroke-linejoin="round"/>
<path d="M120.76 379.891H492.273V408.926C492.273 412.469 490.865 415.867 488.36 418.372C485.855 420.878 482.457 422.285 478.913 422.285H134.119C130.576 422.285 127.178 420.878 124.673 418.372C122.167 415.867 120.76 412.469 120.76 408.926V379.891Z" fill="white" stroke="#040404" stroke-linecap="round" stroke-linejoin="round"/>
<path d="M473.573 166.486H139.444V359.206H473.573V166.486Z" fill="white" stroke="#040404" stroke-linecap="round" stroke-linejoin="round"/>
<path d="M313.369 407.886C313.398 406.525 313.02 405.186 312.284 404.041C311.548 402.895 310.488 401.995 309.239 401.454C307.989 400.914 306.607 400.758 305.268 401.006C303.93 401.254 302.696 401.895 301.723 402.848C300.75 403.8 300.083 405.021 299.807 406.354C299.531 407.687 299.658 409.072 300.173 410.333C300.687 411.593 301.565 412.672 302.695 413.432C303.825 414.191 305.155 414.597 306.516 414.597C308.315 414.614 310.046 413.917 311.331 412.659C312.615 411.4 313.349 409.684 313.369 407.886Z" fill="#040404" stroke="#040404" stroke-linecap="round" stroke-linejoin="round"/>
<path d="M366.618 475.959H246.43V481.442H366.618V475.959Z" fill="white" stroke="#040404" stroke-linecap="round" stroke-linejoin="round"/>
<path d="M307.02 156.482C290.226 172.236 247.155 187.99 197.041 221.531C197.041 221.531 200.192 334.96 307.02 396.89V156.482Z" fill="#0E2C66" stroke="#040404" stroke-linecap="round" stroke-linejoin="round"/>
<path d="M307.021 156.482C323.83 172.236 366.886 187.99 417.016 221.531C417.016 221.531 413.865 334.96 307.021 396.89V156.482Z" fill="#040404" stroke="#040404" stroke-linecap="round" stroke-linejoin="round"/>
<path d="M307.02 166.139C286.698 180.224 251.582 193.63 205.107 224.729C205.107 224.729 208.022 329.809 307.02 387.248C406.035 329.809 408.949 224.729 408.949 224.729C362.475 193.63 327.469 180.224 307.02 166.139Z" fill="#040404" stroke="#040404" stroke-linecap="round" stroke-linejoin="round"/>
<path d="M408.95 224.729C362.475 193.646 327.469 180.224 307.021 166.139V387.248C406.035 329.809 408.95 224.729 408.95 224.729Z" fill="#0E2C66" stroke="#040404" stroke-linecap="round" stroke-linejoin="round"/>
<path d="M493.423 280.356H119.61V304.555H493.423V280.356Z" fill="#040404" stroke="#040404" stroke-linecap="round" stroke-linejoin="round"/>
<path d="M126.967 284.201C126.976 284.698 126.837 285.187 126.568 285.605C126.298 286.023 125.911 286.352 125.454 286.548C124.997 286.745 124.492 286.802 124.003 286.71C123.514 286.619 123.063 286.384 122.708 286.036C122.353 285.688 122.11 285.242 122.009 284.754C121.909 284.267 121.955 283.761 122.144 283.301C122.332 282.84 122.653 282.446 123.066 282.169C123.478 281.891 123.965 281.743 124.462 281.743C124.788 281.739 125.112 281.799 125.415 281.921C125.717 282.042 125.993 282.222 126.226 282.451C126.459 282.679 126.644 282.951 126.771 283.252C126.898 283.552 126.965 283.875 126.967 284.201Z" fill="white"/>
<path d="M123.028 285.556C123.303 285.844 123.657 286.044 124.045 286.13C124.434 286.216 124.839 286.184 125.209 286.039C125.58 285.893 125.898 285.641 126.124 285.313C126.35 284.986 126.474 284.599 126.478 284.201C126.473 283.728 126.294 283.273 125.974 282.925C124.934 283.733 123.949 284.612 123.028 285.556Z" fill="#040404"/>
<path d="M136.797 284.201C136.81 284.702 136.673 285.195 136.404 285.618C136.134 286.041 135.745 286.373 135.286 286.574C134.826 286.774 134.318 286.833 133.825 286.743C133.332 286.653 132.877 286.418 132.518 286.069C132.159 285.719 131.913 285.27 131.81 284.779C131.708 284.289 131.754 283.779 131.943 283.314C132.131 282.85 132.454 282.453 132.87 282.173C133.286 281.893 133.776 281.743 134.277 281.743C134.604 281.739 134.928 281.799 135.232 281.921C135.535 282.042 135.812 282.222 136.046 282.45C136.28 282.678 136.467 282.95 136.596 283.251C136.725 283.551 136.793 283.874 136.797 284.201Z" fill="white"/>
<path d="M132.843 285.556C133.118 285.844 133.472 286.044 133.86 286.13C134.248 286.216 134.654 286.184 135.024 286.039C135.394 285.893 135.713 285.641 135.939 285.313C136.165 284.986 136.289 284.599 136.293 284.201C136.288 283.728 136.109 283.273 135.789 282.925C134.752 283.737 133.768 284.616 132.843 285.556Z" fill="#040404"/>
<path d="M146.612 284.2C146.562 284.833 146.276 285.422 145.81 285.853C145.344 286.283 144.733 286.522 144.099 286.522C143.465 286.522 142.855 286.283 142.389 285.853C141.923 285.422 141.637 284.833 141.587 284.2C141.637 283.568 141.923 282.978 142.389 282.548C142.855 282.118 143.465 281.879 144.099 281.879C144.733 281.879 145.344 282.118 145.81 282.548C146.276 282.978 146.562 283.568 146.612 284.2Z" fill="white"/>
<path d="M142.658 285.555C142.846 285.75 143.071 285.904 143.32 286.01C143.569 286.116 143.837 286.17 144.107 286.17C144.368 286.172 144.627 286.123 144.868 286.025C145.11 285.927 145.33 285.783 145.516 285.6C145.701 285.417 145.849 285.199 145.951 284.959C146.053 284.719 146.106 284.461 146.108 284.201C146.109 283.727 145.929 283.27 145.604 282.925C144.567 283.737 143.583 284.616 142.658 285.555Z" fill="#040404"/>
<path d="M156.427 284.201C156.436 284.698 156.298 285.187 156.028 285.605C155.759 286.023 155.371 286.352 154.914 286.548C154.457 286.745 153.952 286.802 153.463 286.71C152.974 286.619 152.523 286.384 152.168 286.036C151.813 285.688 151.57 285.242 151.469 284.754C151.369 284.267 151.416 283.761 151.604 283.301C151.792 282.84 152.113 282.446 152.526 282.169C152.939 281.891 153.425 281.743 153.922 281.743C154.248 281.739 154.572 281.799 154.875 281.921C155.177 282.042 155.453 282.222 155.686 282.451C155.919 282.679 156.104 282.951 156.231 283.252C156.359 283.552 156.425 283.875 156.427 284.201Z" fill="white"/>
<path d="M152.473 285.555C152.749 285.841 153.104 286.039 153.493 286.124C153.881 286.209 154.286 286.177 154.657 286.032C155.027 285.887 155.347 285.636 155.575 285.31C155.803 284.984 155.929 284.598 155.939 284.201C155.933 283.728 155.754 283.273 155.434 282.925C154.389 283.733 153.399 284.612 152.473 285.555Z" fill="#040404"/>
<path d="M166.242 284.201C166.251 284.698 166.112 285.187 165.843 285.605C165.573 286.023 165.185 286.352 164.729 286.548C164.272 286.745 163.767 286.802 163.278 286.71C162.789 286.619 162.338 286.384 161.983 286.036C161.628 285.688 161.385 285.242 161.284 284.754C161.184 284.267 161.23 283.761 161.418 283.301C161.607 282.84 161.928 282.446 162.34 282.169C162.753 281.891 163.239 281.743 163.737 281.743C164.063 281.739 164.387 281.799 164.689 281.921C164.992 282.042 165.268 282.222 165.501 282.451C165.733 282.679 165.919 282.951 166.046 283.252C166.173 283.552 166.24 283.875 166.242 284.201Z" fill="white"/>
<path d="M162.24 285.555C162.429 285.749 162.654 285.903 162.903 286.009C163.152 286.114 163.419 286.169 163.69 286.17C163.952 286.174 164.212 286.126 164.455 286.029C164.699 285.932 164.921 285.788 165.108 285.605C165.296 285.422 165.445 285.204 165.548 284.963C165.65 284.722 165.704 284.463 165.706 284.201C165.701 283.728 165.521 283.273 165.202 282.925C164.16 283.737 163.17 284.616 162.24 285.555Z" fill="#040404"/>
<path d="M176.057 284.201C176.066 284.698 175.927 285.187 175.658 285.605C175.388 286.023 175 286.352 174.544 286.548C174.087 286.745 173.582 286.802 173.093 286.71C172.604 286.619 172.153 286.384 171.798 286.036C171.443 285.688 171.2 285.242 171.099 284.754C170.999 284.267 171.045 283.761 171.233 283.301C171.422 282.84 171.742 282.446 172.155 282.169C172.568 281.891 173.054 281.743 173.552 281.743C173.878 281.739 174.202 281.799 174.504 281.921C174.807 282.042 175.083 282.222 175.316 282.451C175.548 282.679 175.734 282.951 175.861 283.252C175.988 283.552 176.055 283.875 176.057 284.201Z" fill="white"/>
<path d="M172.118 285.556C172.392 285.844 172.746 286.044 173.135 286.13C173.523 286.216 173.929 286.184 174.299 286.039C174.669 285.893 174.988 285.641 175.214 285.313C175.44 284.986 175.563 284.599 175.568 284.201C175.563 283.728 175.383 283.273 175.064 282.925C174.023 283.733 173.039 284.612 172.118 285.556Z" fill="#040404"/>
<path d="M185.872 284.201C185.884 284.702 185.747 285.195 185.478 285.618C185.209 286.041 184.819 286.373 184.36 286.574C183.901 286.774 183.392 286.833 182.899 286.743C182.406 286.653 181.951 286.418 181.592 286.069C181.233 285.719 180.987 285.27 180.884 284.779C180.782 284.289 180.828 283.779 181.017 283.314C181.206 282.85 181.528 282.453 181.944 282.173C182.36 281.893 182.85 281.743 183.351 281.743C183.678 281.739 184.002 281.799 184.306 281.921C184.61 282.042 184.886 282.222 185.12 282.45C185.354 282.678 185.541 282.95 185.67 283.251C185.799 283.551 185.867 283.874 185.872 284.201Z" fill="white"/>
<path d="M181.933 285.556C182.207 285.844 182.561 286.044 182.95 286.13C183.338 286.216 183.743 286.184 184.114 286.039C184.484 285.893 184.803 285.641 185.029 285.313C185.255 284.986 185.378 284.599 185.383 284.201C185.378 283.728 185.198 283.273 184.879 282.925C183.841 283.737 182.857 284.616 181.933 285.556Z" fill="#040404"/>
<path d="M195.702 284.201C195.711 284.698 195.572 285.187 195.303 285.605C195.033 286.023 194.646 286.352 194.189 286.548C193.732 286.745 193.227 286.802 192.738 286.71C192.249 286.619 191.798 286.384 191.443 286.036C191.088 285.688 190.845 285.242 190.744 284.754C190.644 284.267 190.691 283.761 190.879 283.301C191.067 282.84 191.388 282.446 191.801 282.169C192.214 281.891 192.7 281.743 193.197 281.743C193.523 281.739 193.847 281.799 194.15 281.921C194.452 282.042 194.728 282.222 194.961 282.451C195.194 282.679 195.379 282.951 195.506 283.252C195.633 283.552 195.7 283.875 195.702 284.201Z" fill="white"/>
<path d="M191.748 285.555C191.936 285.75 192.161 285.904 192.41 286.01C192.659 286.116 192.927 286.17 193.197 286.17C193.458 286.172 193.716 286.123 193.958 286.025C194.2 285.927 194.42 285.783 194.605 285.6C194.791 285.417 194.939 285.199 195.041 284.959C195.142 284.719 195.196 284.461 195.198 284.201C195.199 283.727 195.018 283.27 194.694 282.925C193.656 283.737 192.672 284.616 191.748 285.555Z" fill="#040404"/>
<path d="M205.517 284.201C205.526 284.698 205.387 285.187 205.118 285.605C204.848 286.023 204.461 286.352 204.004 286.548C203.547 286.745 203.042 286.802 202.553 286.71C202.064 286.619 201.613 286.384 201.258 286.036C200.903 285.688 200.66 285.242 200.559 284.754C200.459 284.267 200.506 283.761 200.694 283.301C200.882 282.84 201.203 282.446 201.616 282.169C202.028 281.891 202.515 281.743 203.012 281.743C203.338 281.739 203.662 281.799 203.965 281.921C204.267 282.042 204.543 282.222 204.776 282.451C205.009 282.679 205.194 282.951 205.321 283.252C205.448 283.552 205.515 283.875 205.517 284.201Z" fill="white"/>
<path d="M201.625 285.555C201.902 285.841 202.257 286.039 202.645 286.124C203.034 286.209 203.439 286.177 203.81 286.032C204.18 285.887 204.499 285.636 204.728 285.31C204.956 284.984 205.082 284.598 205.091 284.201C205.086 283.728 204.907 283.273 204.587 282.925C203.545 283.737 202.556 284.616 201.625 285.555Z" fill="#040404"/>
<path d="M215.332 284.201C215.341 284.698 215.202 285.187 214.933 285.605C214.663 286.023 214.275 286.352 213.819 286.548C213.362 286.745 212.857 286.802 212.368 286.71C211.879 286.619 211.428 286.384 211.073 286.036C210.718 285.688 210.475 285.242 210.374 284.754C210.273 284.267 210.32 283.761 210.508 283.301C210.696 282.84 211.017 282.446 211.43 282.169C211.843 281.891 212.329 281.743 212.827 281.743C213.153 281.739 213.477 281.799 213.779 281.921C214.082 282.042 214.358 282.222 214.59 282.451C214.823 282.679 215.009 282.951 215.136 283.252C215.263 283.552 215.33 283.875 215.332 284.201Z" fill="white"/>
<path d="M211.377 285.555C211.566 285.749 211.791 285.903 212.04 286.009C212.289 286.114 212.556 286.169 212.827 286.17C213.089 286.174 213.349 286.126 213.592 286.029C213.836 285.932 214.058 285.788 214.245 285.605C214.432 285.422 214.582 285.204 214.685 284.963C214.787 284.722 214.841 284.463 214.843 284.201C214.838 283.728 214.658 283.273 214.339 282.925C213.297 283.737 212.307 284.616 211.377 285.555Z" fill="#040404"/>
<path d="M225.146 284.201C225.156 284.698 225.017 285.187 224.747 285.605C224.478 286.023 224.09 286.352 223.633 286.548C223.176 286.745 222.671 286.802 222.182 286.71C221.693 286.619 221.243 286.384 220.888 286.036C220.533 285.688 220.289 285.242 220.189 284.754C220.088 284.267 220.135 283.761 220.323 283.301C220.511 282.84 220.832 282.446 221.245 282.169C221.658 281.891 222.144 281.743 222.641 281.743C222.968 281.739 223.291 281.799 223.594 281.921C223.897 282.042 224.172 282.222 224.405 282.451C224.638 282.679 224.823 282.951 224.951 283.252C225.078 283.552 225.144 283.875 225.146 284.201Z" fill="white"/>
<path d="M221.208 285.556C221.482 285.844 221.836 286.044 222.224 286.13C222.613 286.216 223.018 286.184 223.389 286.039C223.759 285.893 224.078 285.641 224.304 285.313C224.53 284.986 224.653 284.599 224.658 284.201C224.653 283.728 224.473 283.273 224.154 282.925C223.116 283.737 222.132 284.616 221.208 285.556Z" fill="#040404"/>
<path d="M234.977 284.201C234.99 284.702 234.852 285.196 234.582 285.62C234.312 286.043 233.922 286.375 233.462 286.576C233.002 286.776 232.492 286.834 231.999 286.742C231.505 286.651 231.05 286.414 230.692 286.063C230.334 285.712 230.088 285.261 229.988 284.769C229.887 284.278 229.935 283.767 230.127 283.303C230.318 282.839 230.643 282.443 231.061 282.165C231.479 281.887 231.97 281.74 232.472 281.743C232.798 281.739 233.122 281.799 233.425 281.921C233.727 282.042 234.003 282.222 234.236 282.451C234.469 282.679 234.654 282.951 234.781 283.252C234.908 283.552 234.975 283.875 234.977 284.201Z" fill="white"/>
<path d="M231.023 285.556C231.297 285.844 231.651 286.044 232.039 286.13C232.428 286.216 232.833 286.184 233.204 286.039C233.574 285.893 233.893 285.641 234.119 285.313C234.345 284.986 234.468 284.599 234.473 284.201C234.474 283.727 234.293 283.27 233.969 282.925C232.931 283.737 231.947 284.616 231.023 285.556Z" fill="#040404"/>
<path d="M244.792 284.201C244.801 284.698 244.662 285.187 244.393 285.605C244.123 286.023 243.735 286.352 243.279 286.548C242.822 286.745 242.317 286.802 241.828 286.71C241.339 286.619 240.888 286.384 240.533 286.036C240.178 285.688 239.935 285.242 239.834 284.754C239.734 284.267 239.78 283.761 239.969 283.301C240.157 282.84 240.478 282.446 240.89 282.169C241.303 281.891 241.789 281.743 242.287 281.743C242.613 281.739 242.937 281.799 243.239 281.921C243.542 282.042 243.818 282.222 244.051 282.451C244.283 282.679 244.469 282.951 244.596 283.252C244.723 283.552 244.79 283.875 244.792 284.201Z" fill="white"/>
<path d="M240.837 285.555C241.114 285.841 241.469 286.039 241.857 286.124C242.246 286.209 242.651 286.177 243.022 286.032C243.392 285.887 243.711 285.636 243.939 285.31C244.168 284.984 244.294 284.598 244.303 284.201C244.298 283.728 244.119 283.273 243.799 282.925C242.754 283.733 241.764 284.612 240.837 285.555Z" fill="#040404"/>
<path d="M254.606 284.201C254.616 284.698 254.477 285.187 254.207 285.605C253.938 286.023 253.55 286.352 253.093 286.548C252.637 286.745 252.132 286.802 251.643 286.71C251.154 286.619 250.703 286.384 250.348 286.036C249.993 285.688 249.749 285.242 249.649 284.754C249.548 284.267 249.595 283.761 249.783 283.301C249.971 282.84 250.292 282.446 250.705 282.169C251.118 281.891 251.604 281.743 252.102 281.743C252.428 281.739 252.751 281.799 253.054 281.921C253.357 282.042 253.633 282.222 253.865 282.451C254.098 282.679 254.284 282.951 254.411 283.252C254.538 283.552 254.604 283.875 254.606 284.201Z" fill="white"/>
<path d="M250.652 285.555C250.841 285.749 251.066 285.903 251.315 286.009C251.564 286.114 251.831 286.169 252.102 286.17C252.364 286.174 252.624 286.126 252.867 286.029C253.111 285.932 253.333 285.788 253.52 285.605C253.708 285.422 253.857 285.204 253.96 284.963C254.062 284.722 254.116 284.463 254.118 284.201C254.113 283.728 253.933 283.273 253.614 282.925C252.572 283.737 251.583 284.616 250.652 285.555Z" fill="#040404"/>
<path d="M126.967 299.813C126.979 300.311 126.843 300.801 126.576 301.221C126.308 301.641 125.921 301.972 125.465 302.172C125.008 302.371 124.503 302.43 124.013 302.34C123.523 302.251 123.071 302.017 122.714 301.67C122.357 301.322 122.113 300.876 122.011 300.388C121.909 299.901 121.955 299.394 122.142 298.933C122.33 298.471 122.651 298.076 123.064 297.798C123.477 297.52 123.964 297.371 124.462 297.371C124.787 297.367 125.109 297.427 125.411 297.547C125.713 297.668 125.988 297.846 126.22 298.073C126.453 298.3 126.638 298.57 126.766 298.869C126.895 299.167 126.963 299.488 126.967 299.813Z" fill="white"/>
<path d="M123.028 301.183C123.213 301.378 123.435 301.533 123.682 301.639C123.928 301.744 124.194 301.798 124.462 301.798C124.725 301.8 124.985 301.75 125.229 301.652C125.472 301.553 125.694 301.407 125.881 301.223C126.069 301.039 126.218 300.819 126.32 300.577C126.423 300.335 126.476 300.076 126.478 299.813C126.469 299.345 126.29 298.897 125.974 298.552C124.934 299.361 123.949 300.24 123.028 301.183Z" fill="#040404"/>
<path d="M136.797 299.813C136.813 300.314 136.679 300.809 136.411 301.234C136.144 301.659 135.756 301.994 135.297 302.197C134.838 302.4 134.329 302.461 133.835 302.373C133.341 302.285 132.885 302.051 132.524 301.702C132.164 301.353 131.916 300.904 131.812 300.413C131.708 299.922 131.753 299.411 131.941 298.946C132.13 298.481 132.452 298.082 132.869 297.802C133.285 297.521 133.775 297.371 134.277 297.371C134.934 297.362 135.568 297.614 136.041 298.072C136.513 298.529 136.785 299.155 136.797 299.813Z" fill="white"/>
<path d="M132.843 301.183C133.028 301.378 133.25 301.533 133.497 301.639C133.743 301.744 134.009 301.798 134.277 301.798C134.54 301.8 134.8 301.75 135.044 301.652C135.287 301.553 135.509 301.407 135.696 301.223C135.884 301.039 136.033 300.819 136.135 300.577C136.238 300.335 136.291 300.076 136.293 299.813C136.284 299.345 136.105 298.897 135.789 298.552C134.752 299.365 133.768 300.244 132.843 301.183Z" fill="#040404"/>
<path d="M146.612 299.813C146.628 300.315 146.493 300.811 146.225 301.236C145.957 301.661 145.568 301.996 145.109 302.199C144.649 302.401 144.139 302.462 143.644 302.372C143.15 302.283 142.693 302.047 142.333 301.697C141.974 301.346 141.727 300.896 141.625 300.403C141.523 299.911 141.57 299.4 141.761 298.935C141.951 298.47 142.277 298.073 142.695 297.794C143.113 297.516 143.605 297.368 144.107 297.371C144.432 297.367 144.755 297.427 145.056 297.547C145.358 297.668 145.633 297.846 145.866 298.073C146.098 298.3 146.284 298.57 146.412 298.869C146.54 299.167 146.608 299.488 146.612 299.813Z" fill="white"/>
<path d="M142.658 301.183C142.933 301.473 143.289 301.673 143.678 301.758C144.068 301.844 144.475 301.811 144.846 301.664C145.217 301.516 145.535 301.261 145.76 300.931C145.985 300.602 146.106 300.212 146.108 299.813C146.106 299.344 145.926 298.893 145.604 298.552C144.567 299.365 143.583 300.244 142.658 301.183Z" fill="#040404"/>
<path d="M156.427 299.813C156.44 300.311 156.303 300.801 156.036 301.221C155.768 301.641 155.382 301.972 154.925 302.172C154.469 302.371 153.963 302.43 153.473 302.34C152.983 302.251 152.531 302.017 152.174 301.67C151.818 301.322 151.573 300.876 151.471 300.388C151.369 299.901 151.415 299.394 151.602 298.933C151.79 298.471 152.111 298.076 152.524 297.798C152.937 297.52 153.424 297.371 153.922 297.371C154.247 297.367 154.569 297.427 154.871 297.547C155.173 297.668 155.448 297.846 155.68 298.073C155.913 298.3 156.099 298.57 156.227 298.869C156.355 299.167 156.423 299.488 156.427 299.813Z" fill="white"/>
<path d="M152.473 301.183C152.75 301.47 153.106 301.668 153.496 301.753C153.886 301.837 154.293 301.804 154.664 301.657C155.035 301.51 155.354 301.257 155.581 300.928C155.808 300.6 155.932 300.212 155.939 299.813C155.929 299.345 155.75 298.897 155.434 298.552C154.389 299.361 153.399 300.24 152.473 301.183Z" fill="#040404"/>
<path d="M166.242 299.813C166.254 300.311 166.118 300.801 165.851 301.221C165.583 301.641 165.197 301.972 164.74 302.172C164.284 302.371 163.778 302.43 163.288 302.34C162.798 302.251 162.346 302.017 161.989 301.67C161.633 301.322 161.388 300.876 161.286 300.388C161.184 299.901 161.23 299.394 161.417 298.933C161.605 298.471 161.926 298.076 162.339 297.798C162.752 297.52 163.239 297.371 163.737 297.371C164.062 297.367 164.384 297.427 164.686 297.547C164.988 297.668 165.263 297.846 165.495 298.073C165.728 298.3 165.914 298.57 166.042 298.869C166.17 299.167 166.238 299.488 166.242 299.813Z" fill="white"/>
<path d="M162.24 301.183C162.429 301.377 162.654 301.531 162.903 301.637C163.152 301.742 163.419 301.797 163.69 301.798C163.952 301.8 164.213 301.75 164.456 301.652C164.7 301.553 164.922 301.407 165.109 301.223C165.296 301.039 165.445 300.819 165.548 300.577C165.65 300.335 165.704 300.076 165.706 299.813C165.697 299.345 165.518 298.897 165.202 298.552C164.16 299.365 163.17 300.244 162.24 301.183Z" fill="#040404"/>
<path d="M176.057 299.813C176.069 300.311 175.933 300.801 175.665 301.221C175.398 301.641 175.011 301.972 174.555 302.172C174.098 302.371 173.593 302.43 173.103 302.34C172.613 302.251 172.161 302.017 171.804 301.67C171.447 301.322 171.202 300.876 171.101 300.388C170.999 299.901 171.044 299.394 171.232 298.933C171.42 298.471 171.741 298.076 172.154 297.798C172.567 297.52 173.054 297.371 173.552 297.371C173.877 297.367 174.199 297.427 174.501 297.547C174.802 297.668 175.077 297.846 175.31 298.073C175.543 298.3 175.728 298.57 175.856 298.869C175.984 299.167 176.052 299.488 176.057 299.813Z" fill="white"/>
<path d="M172.118 301.183C172.303 301.378 172.525 301.533 172.772 301.639C173.018 301.744 173.284 301.798 173.552 301.798C173.815 301.8 174.075 301.75 174.319 301.652C174.562 301.553 174.784 301.407 174.971 301.223C175.158 301.039 175.308 300.819 175.41 300.577C175.512 300.335 175.566 300.076 175.568 299.813C175.559 299.345 175.38 298.897 175.064 298.552C174.023 299.361 173.039 300.24 172.118 301.183Z" fill="#040404"/>
<path d="M185.871 299.813C185.887 300.314 185.753 300.809 185.485 301.234C185.218 301.659 184.83 301.994 184.371 302.197C183.912 302.4 183.403 302.461 182.909 302.373C182.415 302.285 181.959 302.051 181.598 301.702C181.238 301.353 180.99 300.904 180.886 300.413C180.782 299.922 180.827 299.411 181.015 298.946C181.204 298.481 181.526 298.082 181.942 297.802C182.359 297.521 182.849 297.371 183.351 297.371C184.008 297.362 184.642 297.614 185.115 298.072C185.587 298.529 185.859 299.155 185.871 299.813Z" fill="white"/>
<path d="M181.933 301.183C182.117 301.378 182.34 301.533 182.586 301.639C182.833 301.744 183.098 301.798 183.366 301.798C183.629 301.8 183.89 301.75 184.133 301.652C184.377 301.553 184.599 301.407 184.786 301.223C184.973 301.039 185.122 300.819 185.225 300.577C185.327 300.335 185.381 300.076 185.383 299.813C185.374 299.345 185.195 298.897 184.879 298.552C183.841 299.365 182.857 300.244 181.933 301.183Z" fill="#040404"/>
<path d="M195.702 299.813C195.715 300.311 195.578 300.801 195.311 301.221C195.043 301.641 194.657 301.972 194.2 302.172C193.744 302.371 193.238 302.43 192.748 302.34C192.258 302.251 191.806 302.017 191.449 301.67C191.093 301.322 190.848 300.876 190.746 300.388C190.644 299.901 190.69 299.394 190.878 298.933C191.065 298.471 191.386 298.076 191.799 297.798C192.212 297.52 192.699 297.371 193.197 297.371C193.522 297.367 193.844 297.427 194.146 297.547C194.448 297.668 194.723 297.846 194.955 298.073C195.188 298.3 195.374 298.57 195.502 298.869C195.63 299.167 195.698 299.488 195.702 299.813Z" fill="white"/>
<path d="M191.748 301.183C192.023 301.473 192.378 301.673 192.768 301.758C193.158 301.844 193.565 301.811 193.936 301.664C194.307 301.516 194.625 301.261 194.85 300.931C195.075 300.602 195.196 300.212 195.198 299.813C195.196 299.344 195.016 298.893 194.694 298.552C193.656 299.365 192.672 300.244 191.748 301.183Z" fill="#040404"/>
<path d="M205.517 299.813C205.529 300.311 205.393 300.801 205.126 301.221C204.858 301.641 204.471 301.972 204.015 302.172C203.559 302.371 203.053 302.43 202.563 302.34C202.073 302.251 201.621 302.017 201.264 301.67C200.908 301.322 200.663 300.876 200.561 300.388C200.459 299.901 200.505 299.394 200.692 298.933C200.88 298.471 201.201 298.076 201.614 297.798C202.027 297.52 202.514 297.371 203.012 297.371C203.337 297.367 203.659 297.427 203.961 297.547C204.263 297.668 204.538 297.846 204.77 298.073C205.003 298.3 205.188 298.57 205.317 298.869C205.445 299.167 205.513 299.488 205.517 299.813Z" fill="white"/>
<path d="M201.625 301.183C201.903 301.47 202.259 301.668 202.649 301.753C203.039 301.837 203.446 301.804 203.817 301.657C204.188 301.51 204.507 301.257 204.734 300.928C204.961 300.6 205.085 300.212 205.091 299.813C205.082 299.345 204.903 298.897 204.587 298.552C203.545 299.365 202.556 300.244 201.625 301.183Z" fill="#040404"/>
<path d="M215.332 299.813C215.344 300.311 215.208 300.801 214.941 301.221C214.673 301.641 214.286 301.972 213.83 302.172C213.373 302.371 212.868 302.43 212.378 302.34C211.888 302.251 211.436 302.017 211.079 301.67C210.722 301.322 210.478 300.876 210.376 300.388C210.274 299.901 210.32 299.394 210.507 298.933C210.695 298.471 211.016 298.076 211.429 297.798C211.842 297.52 212.329 297.371 212.827 297.371C213.152 297.367 213.474 297.427 213.776 297.547C214.078 297.668 214.353 297.846 214.585 298.073C214.818 298.3 215.003 298.57 215.131 298.869C215.26 299.167 215.328 299.488 215.332 299.813Z" fill="white"/>
<path d="M211.377 301.183C211.566 301.377 211.791 301.531 212.04 301.637C212.289 301.742 212.556 301.797 212.827 301.798C213.089 301.8 213.35 301.75 213.593 301.652C213.837 301.553 214.059 301.407 214.246 301.223C214.433 301.039 214.582 300.819 214.685 300.577C214.787 300.335 214.841 300.076 214.843 299.813C214.834 299.345 214.655 298.897 214.339 298.552C213.297 299.365 212.307 300.244 211.377 301.183Z" fill="#040404"/>
<path d="M225.146 299.813C225.159 300.311 225.023 300.801 224.755 301.221C224.488 301.641 224.101 301.972 223.645 302.172C223.188 302.371 222.683 302.43 222.193 302.34C221.703 302.251 221.25 302.017 220.894 301.67C220.537 301.322 220.292 300.876 220.19 300.388C220.089 299.901 220.134 299.394 220.322 298.933C220.51 298.471 220.83 298.076 221.244 297.798C221.657 297.52 222.143 297.371 222.642 297.371C222.966 297.367 223.289 297.427 223.59 297.547C223.892 297.668 224.167 297.846 224.4 298.073C224.632 298.3 224.818 298.57 224.946 298.869C225.074 299.167 225.142 299.488 225.146 299.813Z" fill="white"/>
<path d="M221.208 301.183C221.392 301.378 221.615 301.533 221.861 301.639C222.108 301.744 222.373 301.798 222.641 301.798C222.904 301.8 223.165 301.75 223.408 301.652C223.652 301.553 223.874 301.407 224.061 301.223C224.248 301.039 224.397 300.819 224.5 300.577C224.602 300.335 224.656 300.076 224.658 299.813C224.649 299.345 224.47 298.897 224.154 298.552C223.116 299.365 222.132 300.244 221.208 301.183Z" fill="#040404"/>
<path d="M234.977 299.813C234.993 300.315 234.858 300.811 234.59 301.236C234.322 301.661 233.933 301.996 233.473 302.199C233.013 302.401 232.503 302.462 232.009 302.372C231.514 302.283 231.058 302.047 230.698 301.697C230.338 301.346 230.092 300.896 229.99 300.403C229.887 299.911 229.935 299.4 230.126 298.935C230.316 298.47 230.642 298.073 231.06 297.794C231.478 297.516 231.97 297.368 232.472 297.371C232.797 297.367 233.119 297.427 233.421 297.547C233.723 297.668 233.998 297.846 234.23 298.073C234.463 298.3 234.649 298.57 234.777 298.869C234.905 299.167 234.973 299.488 234.977 299.813Z" fill="white"/>
<path d="M231.023 301.183C231.298 301.473 231.653 301.673 232.043 301.758C232.433 301.844 232.84 301.811 233.211 301.664C233.582 301.516 233.9 301.261 234.125 300.931C234.35 300.602 234.471 300.212 234.473 299.813C234.471 299.344 234.291 298.893 233.969 298.552C232.931 299.365 231.947 300.244 231.023 301.183Z" fill="#040404"/>
<path d="M244.792 299.813C244.804 300.311 244.668 300.801 244.401 301.221C244.133 301.641 243.746 301.972 243.29 302.172C242.833 302.371 242.328 302.43 241.838 302.34C241.348 302.251 240.896 302.017 240.539 301.67C240.182 301.322 239.938 300.876 239.836 300.388C239.734 299.901 239.78 299.394 239.967 298.933C240.155 298.471 240.476 298.076 240.889 297.798C241.302 297.52 241.789 297.371 242.287 297.371C242.612 297.367 242.934 297.427 243.236 297.547C243.537 297.668 243.812 297.846 244.045 298.073C244.278 298.3 244.463 298.57 244.591 298.869C244.72 299.167 244.788 299.488 244.792 299.813Z" fill="white"/>
<path d="M240.837 301.183C241.115 301.47 241.471 301.668 241.861 301.753C242.251 301.837 242.658 301.804 243.029 301.657C243.4 301.51 243.719 301.257 243.946 300.928C244.173 300.6 244.297 300.212 244.303 299.813C244.294 299.345 244.115 298.897 243.799 298.552C242.754 299.361 241.764 300.24 240.837 301.183Z" fill="#040404"/>
<path d="M254.606 299.813C254.619 300.311 254.483 300.801 254.215 301.221C253.948 301.641 253.561 301.972 253.105 302.172C252.648 302.371 252.143 302.43 251.653 302.34C251.163 302.251 250.71 302.017 250.354 301.67C249.997 301.322 249.752 300.876 249.65 300.388C249.548 299.901 249.594 299.394 249.782 298.933C249.969 298.471 250.29 298.076 250.704 297.798C251.117 297.52 251.603 297.371 252.102 297.371C252.426 297.367 252.749 297.427 253.051 297.547C253.352 297.668 253.627 297.846 253.86 298.073C254.092 298.3 254.278 298.57 254.406 298.869C254.534 299.167 254.602 299.488 254.606 299.813Z" fill="white"/>
<path d="M250.652 301.183C250.841 301.377 251.066 301.531 251.315 301.637C251.564 301.742 251.831 301.797 252.102 301.798C252.364 301.8 252.625 301.75 252.869 301.652C253.112 301.553 253.334 301.407 253.521 301.223C253.708 301.039 253.858 300.819 253.96 300.577C254.062 300.335 254.116 300.076 254.118 299.813C254.109 299.345 253.93 298.897 253.614 298.552C252.572 299.365 251.583 300.244 250.652 301.183Z" fill="#040404"/>
<path d="M363.389 284.201C363.398 284.698 363.259 285.187 362.99 285.605C362.72 286.023 362.332 286.352 361.875 286.548C361.419 286.745 360.914 286.802 360.425 286.71C359.936 286.619 359.485 286.384 359.13 286.036C358.775 285.688 358.531 285.242 358.431 284.754C358.33 284.267 358.377 283.761 358.565 283.301C358.753 282.84 359.074 282.446 359.487 282.169C359.9 281.891 360.386 281.743 360.884 281.743C361.21 281.739 361.534 281.799 361.836 281.921C362.139 282.042 362.415 282.222 362.647 282.451C362.88 282.679 363.066 282.951 363.193 283.252C363.32 283.552 363.387 283.875 363.389 284.201Z" fill="white"/>
<path d="M359.45 285.556C359.724 285.844 360.078 286.044 360.467 286.13C360.855 286.216 361.261 286.184 361.631 286.039C362.001 285.893 362.32 285.641 362.546 285.313C362.772 284.986 362.896 284.599 362.9 284.201C362.895 283.728 362.716 283.273 362.396 282.925C361.359 283.737 360.375 284.616 359.45 285.556Z" fill="#040404"/>
<path d="M373.219 284.201C373.232 284.702 373.094 285.196 372.824 285.62C372.554 286.043 372.164 286.375 371.704 286.576C371.244 286.776 370.734 286.834 370.241 286.742C369.747 286.651 369.292 286.414 368.934 286.063C368.576 285.712 368.33 285.261 368.23 284.769C368.129 284.278 368.177 283.767 368.369 283.303C368.56 282.839 368.885 282.443 369.303 282.165C369.721 281.887 370.212 281.74 370.714 281.743C371.04 281.739 371.364 281.799 371.667 281.921C371.969 282.042 372.245 282.222 372.478 282.451C372.711 282.679 372.896 282.951 373.023 283.252C373.15 283.552 373.217 283.875 373.219 284.201Z" fill="white"/>
<path d="M369.265 285.556C369.539 285.844 369.893 286.044 370.282 286.13C370.67 286.216 371.075 286.184 371.446 286.039C371.816 285.893 372.135 285.641 372.361 285.313C372.587 284.986 372.71 284.599 372.715 284.201C372.716 283.727 372.535 283.27 372.211 282.925C371.173 283.737 370.189 284.616 369.265 285.556Z" fill="#040404"/>
<path d="M383.034 284.201C383.043 284.698 382.904 285.187 382.635 285.605C382.366 286.023 381.978 286.352 381.521 286.548C381.064 286.745 380.559 286.802 380.07 286.71C379.581 286.619 379.13 286.384 378.775 286.036C378.42 285.688 378.177 285.242 378.076 284.754C377.976 284.267 378.023 283.761 378.211 283.301C378.399 282.84 378.72 282.446 379.133 282.169C379.546 281.891 380.032 281.743 380.529 281.743C380.855 281.739 381.179 281.799 381.482 281.921C381.784 282.042 382.06 282.222 382.293 282.451C382.526 282.679 382.711 282.951 382.838 283.252C382.965 283.552 383.032 283.875 383.034 284.201Z" fill="white"/>
<path d="M379.08 285.555C379.356 285.841 379.711 286.039 380.1 286.124C380.488 286.209 380.893 286.177 381.264 286.032C381.634 285.887 381.954 285.636 382.182 285.31C382.41 284.984 382.536 284.598 382.545 284.201C382.54 283.728 382.361 283.273 382.041 282.925C380.996 283.733 380.006 284.612 379.08 285.555Z" fill="#040404"/>
<path d="M392.849 284.201C392.858 284.698 392.719 285.187 392.45 285.605C392.18 286.023 391.793 286.352 391.336 286.548C390.879 286.745 390.374 286.802 389.885 286.71C389.396 286.619 388.945 286.384 388.59 286.036C388.235 285.688 387.992 285.242 387.891 284.754C387.791 284.267 387.838 283.761 388.026 283.301C388.214 282.84 388.535 282.446 388.948 282.169C389.36 281.891 389.847 281.743 390.344 281.743C390.67 281.739 390.994 281.799 391.297 281.921C391.599 282.042 391.875 282.222 392.108 282.451C392.341 282.679 392.526 282.951 392.653 283.252C392.78 283.552 392.847 283.875 392.849 284.201Z" fill="white"/>
<path d="M388.895 285.555C389.083 285.749 389.308 285.903 389.557 286.009C389.806 286.114 390.074 286.169 390.344 286.17C390.606 286.174 390.866 286.126 391.11 286.029C391.353 285.932 391.575 285.788 391.762 285.605C391.95 285.422 392.099 285.204 392.202 284.963C392.305 284.722 392.358 284.463 392.36 284.201C392.355 283.728 392.176 283.273 391.856 282.925C390.814 283.737 389.825 284.616 388.895 285.555Z" fill="#040404"/>
<path d="M402.664 284.201C402.673 284.698 402.534 285.187 402.265 285.605C401.995 286.023 401.607 286.352 401.151 286.548C400.694 286.745 400.189 286.802 399.7 286.71C399.211 286.619 398.76 286.384 398.405 286.036C398.05 285.688 397.807 285.242 397.706 284.754C397.605 284.267 397.652 283.761 397.84 283.301C398.028 282.84 398.349 282.446 398.762 282.169C399.175 281.891 399.661 281.743 400.159 281.743C400.485 281.739 400.809 281.799 401.111 281.921C401.414 282.042 401.69 282.222 401.923 282.451C402.155 282.679 402.341 282.951 402.468 283.252C402.595 283.552 402.662 283.875 402.664 284.201Z" fill="white"/>
<path d="M398.725 285.556C398.999 285.844 399.353 286.044 399.742 286.13C400.13 286.216 400.536 286.184 400.906 286.039C401.276 285.893 401.595 285.641 401.821 285.313C402.047 284.986 402.17 284.599 402.175 284.201C402.17 283.728 401.99 283.273 401.671 282.925C400.63 283.733 399.646 284.612 398.725 285.556Z" fill="#040404"/>
<path d="M412.494 284.201C412.507 284.702 412.37 285.195 412.1 285.618C411.831 286.041 411.442 286.373 410.983 286.574C410.523 286.774 410.015 286.833 409.522 286.743C409.028 286.653 408.573 286.418 408.215 286.069C407.856 285.719 407.609 285.27 407.507 284.779C407.404 284.289 407.45 283.779 407.639 283.314C407.828 282.85 408.151 282.453 408.567 282.173C408.983 281.893 409.472 281.743 409.974 281.743C410.3 281.739 410.625 281.799 410.928 281.921C411.232 282.042 411.509 282.222 411.743 282.45C411.977 282.678 412.164 282.95 412.293 283.251C412.422 283.551 412.49 283.874 412.494 284.201Z" fill="white"/>
<path d="M408.54 285.556C408.814 285.844 409.168 286.044 409.557 286.13C409.945 286.216 410.35 286.184 410.721 286.039C411.091 285.893 411.41 285.641 411.636 285.313C411.862 284.986 411.985 284.599 411.99 284.201C411.985 283.728 411.805 283.273 411.486 282.925C410.448 283.737 409.464 284.616 408.54 285.556Z" fill="#040404"/>
<path d="M422.309 284.201C422.322 284.702 422.184 285.196 421.914 285.62C421.644 286.043 421.254 286.375 420.794 286.576C420.334 286.776 419.824 286.834 419.331 286.742C418.837 286.651 418.382 286.414 418.024 286.063C417.666 285.712 417.421 285.261 417.32 284.769C417.219 284.278 417.267 283.767 417.459 283.303C417.65 282.839 417.975 282.443 418.393 282.165C418.811 281.887 419.302 281.74 419.804 281.743C420.13 281.739 420.454 281.799 420.757 281.921C421.059 282.042 421.335 282.222 421.568 282.451C421.801 282.679 421.986 282.951 422.113 283.252C422.241 283.552 422.307 283.875 422.309 284.201Z" fill="white"/>
<path d="M418.355 285.556C418.629 285.844 418.983 286.044 419.371 286.13C419.76 286.216 420.165 286.184 420.536 286.039C420.906 285.893 421.225 285.641 421.451 285.313C421.677 284.986 421.8 284.599 421.805 284.201C421.806 283.727 421.625 283.27 421.301 282.925C420.263 283.737 419.279 284.616 418.355 285.556Z" fill="#040404"/>
<path d="M432.124 284.201C432.133 284.698 431.994 285.187 431.725 285.605C431.455 286.023 431.067 286.352 430.611 286.548C430.154 286.745 429.649 286.802 429.16 286.71C428.671 286.619 428.22 286.384 427.865 286.036C427.51 285.688 427.267 285.242 427.166 284.754C427.065 284.267 427.112 283.761 427.3 283.301C427.488 282.84 427.809 282.446 428.222 282.169C428.635 281.891 429.121 281.743 429.619 281.743C429.945 281.739 430.269 281.799 430.571 281.921C430.874 282.042 431.15 282.222 431.382 282.451C431.615 282.679 431.801 282.951 431.928 283.252C432.055 283.552 432.122 283.875 432.124 284.201Z" fill="white"/>
<path d="M428.169 285.555C428.446 285.841 428.801 286.039 429.189 286.124C429.578 286.209 429.983 286.177 430.354 286.032C430.724 285.887 431.043 285.636 431.271 285.31C431.499 284.984 431.626 284.598 431.635 284.201C431.63 283.728 431.45 283.273 431.131 282.925C430.085 283.733 429.096 284.612 428.169 285.555Z" fill="#040404"/>
<path d="M441.939 284.201C441.948 284.698 441.809 285.187 441.54 285.605C441.27 286.023 440.882 286.352 440.425 286.548C439.969 286.745 439.464 286.802 438.975 286.71C438.486 286.619 438.035 286.384 437.68 286.036C437.325 285.688 437.081 285.242 436.981 284.754C436.88 284.267 436.927 283.761 437.115 283.301C437.303 282.84 437.624 282.446 438.037 282.169C438.45 281.891 438.936 281.743 439.434 281.743C439.76 281.739 440.084 281.799 440.386 281.921C440.689 282.042 440.965 282.222 441.197 282.451C441.43 282.679 441.616 282.951 441.743 283.252C441.87 283.552 441.936 283.875 441.939 284.201Z" fill="white"/>
<path d="M437.937 285.555C438.126 285.749 438.351 285.903 438.6 286.009C438.849 286.114 439.116 286.169 439.386 286.17C439.648 286.174 439.909 286.126 440.152 286.029C440.395 285.932 440.617 285.788 440.805 285.605C440.992 285.422 441.142 285.204 441.244 284.963C441.347 284.722 441.401 284.463 441.403 284.201C441.398 283.728 441.218 283.273 440.899 282.925C439.856 283.737 438.867 284.616 437.937 285.555Z" fill="#040404"/>
<path d="M451.753 284.201C451.763 284.698 451.624 285.187 451.354 285.605C451.085 286.023 450.697 286.352 450.24 286.548C449.784 286.745 449.278 286.802 448.79 286.71C448.301 286.619 447.85 286.384 447.495 286.036C447.14 285.688 446.896 285.242 446.796 284.754C446.695 284.267 446.742 283.761 446.93 283.301C447.118 282.84 447.439 282.446 447.852 282.169C448.265 281.891 448.751 281.743 449.249 281.743C449.575 281.739 449.898 281.799 450.201 281.921C450.504 282.042 450.779 282.222 451.012 282.451C451.245 282.679 451.43 282.951 451.558 283.252C451.685 283.552 451.751 283.875 451.753 284.201Z" fill="white"/>
<path d="M447.815 285.556C448.089 285.844 448.443 286.044 448.831 286.13C449.22 286.216 449.625 286.184 449.996 286.039C450.366 285.893 450.685 285.641 450.911 285.313C451.137 284.986 451.26 284.599 451.265 284.201C451.26 283.728 451.08 283.273 450.761 282.925C449.72 283.733 448.736 284.612 447.815 285.556Z" fill="#040404"/>
<path d="M461.568 284.201C461.581 284.702 461.444 285.195 461.174 285.618C460.905 286.041 460.516 286.373 460.057 286.574C459.597 286.774 459.089 286.833 458.595 286.743C458.102 286.653 457.647 286.418 457.289 286.069C456.93 285.719 456.683 285.27 456.581 284.779C456.478 284.289 456.524 283.779 456.713 283.314C456.902 282.85 457.225 282.453 457.641 282.173C458.057 281.893 458.546 281.743 459.047 281.743C459.374 281.739 459.699 281.799 460.002 281.921C460.306 282.042 460.583 282.222 460.817 282.45C461.051 282.678 461.238 282.95 461.367 283.251C461.496 283.551 461.564 283.874 461.568 284.201Z" fill="white"/>
<path d="M457.63 285.556C457.904 285.844 458.258 286.044 458.646 286.13C459.035 286.216 459.44 286.184 459.81 286.039C460.181 285.893 460.499 285.641 460.725 285.313C460.952 284.986 461.075 284.599 461.08 284.201C461.074 283.728 460.895 283.273 460.576 282.925C459.538 283.737 458.554 284.616 457.63 285.556Z" fill="#040404"/>
<path d="M471.399 284.201C471.408 284.698 471.269 285.187 471 285.605C470.73 286.023 470.342 286.352 469.886 286.548C469.429 286.745 468.924 286.802 468.435 286.71C467.946 286.619 467.495 286.384 467.14 286.036C466.785 285.688 466.542 285.242 466.441 284.754C466.341 284.267 466.387 283.761 466.575 283.301C466.764 282.84 467.085 282.446 467.497 282.169C467.91 281.891 468.396 281.743 468.894 281.743C469.22 281.739 469.544 281.799 469.846 281.921C470.149 282.042 470.425 282.222 470.658 282.451C470.89 282.679 471.076 282.951 471.203 283.252C471.33 283.552 471.397 283.875 471.399 284.201Z" fill="white"/>
<path d="M467.444 285.555C467.632 285.75 467.858 285.904 468.107 286.01C468.356 286.116 468.623 286.17 468.894 286.17C469.154 286.172 469.413 286.123 469.655 286.025C469.896 285.927 470.116 285.783 470.302 285.6C470.488 285.417 470.636 285.199 470.737 284.959C470.839 284.719 470.892 284.461 470.895 284.201C470.895 283.727 470.715 283.27 470.39 282.925C469.353 283.737 468.369 284.616 467.444 285.555Z" fill="#040404"/>
<path d="M481.213 284.201C481.223 284.698 481.084 285.187 480.814 285.605C480.545 286.023 480.157 286.352 479.7 286.548C479.244 286.745 478.738 286.802 478.249 286.71C477.76 286.619 477.31 286.384 476.955 286.036C476.6 285.688 476.356 285.242 476.256 284.754C476.155 284.267 476.202 283.761 476.39 283.301C476.578 282.84 476.899 282.446 477.312 282.169C477.725 281.891 478.211 281.743 478.709 281.743C479.035 281.739 479.358 281.799 479.661 281.921C479.964 282.042 480.239 282.222 480.472 282.451C480.705 282.679 480.89 282.951 481.018 283.252C481.145 283.552 481.211 283.875 481.213 284.201Z" fill="white"/>
<path d="M477.322 285.555C477.599 285.841 477.954 286.039 478.342 286.124C478.731 286.209 479.136 286.177 479.506 286.032C479.877 285.887 480.196 285.636 480.424 285.31C480.652 284.984 480.779 284.598 480.788 284.201C480.783 283.728 480.603 283.273 480.284 282.925C479.242 283.737 478.252 284.616 477.322 285.555Z" fill="#040404"/>
<path d="M491.028 284.201C491.038 284.698 490.899 285.187 490.629 285.605C490.36 286.023 489.972 286.352 489.515 286.548C489.058 286.745 488.553 286.802 488.064 286.71C487.575 286.619 487.125 286.384 486.77 286.036C486.415 285.688 486.171 285.242 486.071 284.754C485.97 284.267 486.017 283.761 486.205 283.301C486.393 282.84 486.714 282.446 487.127 282.169C487.54 281.891 488.026 281.743 488.523 281.743C488.85 281.739 489.173 281.799 489.476 281.921C489.779 282.042 490.054 282.222 490.287 282.451C490.52 282.679 490.705 282.951 490.833 283.252C490.96 283.552 491.026 283.875 491.028 284.201Z" fill="white"/>
<path d="M487.074 285.555C487.263 285.749 487.488 285.903 487.737 286.009C487.986 286.114 488.253 286.169 488.523 286.17C488.785 286.174 489.046 286.126 489.289 286.029C489.532 285.932 489.754 285.788 489.942 285.605C490.129 285.422 490.279 285.204 490.381 284.963C490.484 284.722 490.538 284.463 490.54 284.201C490.535 283.728 490.355 283.273 490.036 282.925C488.993 283.737 488.004 284.616 487.074 285.555Z" fill="#040404"/>
<path d="M363.389 299.813C363.401 300.311 363.265 300.801 362.998 301.221C362.73 301.641 362.343 301.972 361.887 302.172C361.43 302.371 360.925 302.43 360.435 302.34C359.945 302.251 359.493 302.017 359.136 301.67C358.779 301.322 358.534 300.876 358.433 300.388C358.331 299.901 358.376 299.394 358.564 298.933C358.752 298.471 359.073 298.076 359.486 297.798C359.899 297.52 360.386 297.371 360.884 297.371C361.209 297.367 361.531 297.427 361.833 297.547C362.134 297.668 362.409 297.846 362.642 298.073C362.875 298.3 363.06 298.57 363.188 298.869C363.317 299.167 363.385 299.488 363.389 299.813Z" fill="white"/>
<path d="M359.45 301.183C359.635 301.378 359.857 301.533 360.104 301.639C360.35 301.744 360.616 301.798 360.884 301.798C361.147 301.8 361.407 301.75 361.651 301.652C361.894 301.553 362.116 301.407 362.303 301.223C362.49 301.039 362.64 300.819 362.742 300.577C362.844 300.335 362.898 300.076 362.9 299.813C362.891 299.345 362.712 298.897 362.396 298.552C361.359 299.365 360.375 300.244 359.45 301.183Z" fill="#040404"/>
<path d="M373.219 299.813C373.235 300.315 373.1 300.811 372.832 301.236C372.564 301.661 372.175 301.996 371.715 302.199C371.255 302.401 370.746 302.462 370.251 302.372C369.757 302.283 369.3 302.047 368.94 301.697C368.58 301.346 368.334 300.896 368.232 300.403C368.13 299.911 368.177 299.4 368.368 298.935C368.558 298.47 368.884 298.073 369.302 297.794C369.72 297.516 370.212 297.368 370.714 297.371C371.039 297.367 371.362 297.427 371.663 297.547C371.965 297.668 372.24 297.846 372.473 298.073C372.705 298.3 372.891 298.57 373.019 298.869C373.147 299.167 373.215 299.488 373.219 299.813Z" fill="white"/>
<path d="M369.265 301.183C369.54 301.473 369.896 301.673 370.285 301.758C370.675 301.844 371.082 301.811 371.453 301.664C371.824 301.516 372.142 301.261 372.367 300.931C372.592 300.602 372.713 300.212 372.715 299.813C372.713 299.344 372.533 298.893 372.211 298.552C371.174 299.365 370.189 300.244 369.265 301.183Z" fill="#040404"/>
<path d="M383.034 299.813C383.046 300.311 382.91 300.801 382.643 301.221C382.375 301.641 381.988 301.972 381.532 302.172C381.076 302.371 380.57 302.43 380.08 302.34C379.59 302.251 379.138 302.017 378.781 301.67C378.425 301.322 378.18 300.876 378.078 300.388C377.976 299.901 378.022 299.394 378.209 298.933C378.397 298.471 378.718 298.076 379.131 297.798C379.544 297.52 380.031 297.371 380.529 297.371C380.854 297.367 381.176 297.427 381.478 297.547C381.78 297.668 382.055 297.846 382.287 298.073C382.52 298.3 382.705 298.57 382.834 298.869C382.962 299.167 383.03 299.488 383.034 299.813Z" fill="white"/>
<path d="M379.08 301.183C379.357 301.47 379.713 301.668 380.103 301.753C380.493 301.837 380.9 301.804 381.271 301.657C381.642 301.51 381.961 301.257 382.188 300.928C382.415 300.6 382.539 300.212 382.545 299.813C382.536 299.345 382.357 298.897 382.041 298.552C380.996 299.361 380.006 300.24 379.08 301.183Z" fill="#040404"/>
<path d="M392.849 299.813C392.861 300.311 392.725 300.801 392.458 301.221C392.19 301.641 391.804 301.972 391.347 302.172C390.891 302.371 390.385 302.43 389.895 302.34C389.405 302.251 388.953 302.017 388.596 301.67C388.24 301.322 387.995 300.876 387.893 300.388C387.791 299.901 387.837 299.394 388.024 298.933C388.212 298.471 388.533 298.076 388.946 297.798C389.359 297.52 389.846 297.371 390.344 297.371C390.669 297.367 390.991 297.427 391.293 297.547C391.595 297.668 391.87 297.846 392.102 298.073C392.335 298.3 392.521 298.57 392.649 298.869C392.777 299.167 392.845 299.488 392.849 299.813Z" fill="white"/>
<path d="M388.895 301.183C389.083 301.377 389.308 301.531 389.557 301.637C389.806 301.742 390.074 301.797 390.344 301.798C390.607 301.8 390.867 301.75 391.111 301.652C391.354 301.553 391.576 301.407 391.763 301.223C391.951 301.039 392.1 300.819 392.202 300.577C392.305 300.335 392.358 300.076 392.36 299.813C392.351 299.345 392.172 298.897 391.856 298.552C390.814 299.365 389.825 300.244 388.895 301.183Z" fill="#040404"/>
<path d="M402.664 299.813C402.676 300.311 402.54 300.801 402.272 301.221C402.005 301.641 401.618 301.972 401.162 302.172C400.705 302.371 400.2 302.43 399.71 302.34C399.22 302.251 398.768 302.017 398.411 301.67C398.054 301.322 397.809 300.876 397.707 300.388C397.606 299.901 397.651 299.394 397.839 298.933C398.027 298.471 398.347 298.076 398.761 297.798C399.174 297.52 399.661 297.371 400.159 297.371C400.483 297.367 400.806 297.427 401.108 297.547C401.409 297.668 401.684 297.846 401.917 298.073C402.149 298.3 402.335 298.57 402.463 298.869C402.591 299.167 402.659 299.488 402.664 299.813Z" fill="white"/>
<path d="M398.725 301.183C398.91 301.378 399.132 301.533 399.379 301.639C399.625 301.744 399.891 301.798 400.159 301.798C400.421 301.8 400.682 301.75 400.926 301.652C401.169 301.553 401.391 301.407 401.578 301.223C401.765 301.039 401.915 300.819 402.017 300.577C402.119 300.335 402.173 300.076 402.175 299.813C402.166 299.345 401.987 298.897 401.671 298.552C400.63 299.361 399.646 300.24 398.725 301.183Z" fill="#040404"/>
<path d="M412.494 299.813C412.51 300.314 412.375 300.809 412.108 301.234C411.841 301.659 411.453 301.994 410.994 302.197C410.535 302.4 410.026 302.461 409.532 302.373C409.038 302.285 408.581 302.051 408.221 301.702C407.86 301.353 407.612 300.904 407.509 300.413C407.405 299.922 407.45 299.411 407.638 298.946C407.826 298.481 408.149 298.082 408.565 297.802C408.981 297.521 409.472 297.371 409.974 297.371C410.631 297.362 411.265 297.614 411.737 298.072C412.21 298.529 412.482 299.155 412.494 299.813Z" fill="white"/>
<path d="M408.54 301.183C408.724 301.378 408.947 301.533 409.193 301.639C409.44 301.744 409.705 301.798 409.973 301.798C410.236 301.8 410.497 301.75 410.74 301.652C410.984 301.553 411.206 301.407 411.393 301.223C411.58 301.039 411.729 300.819 411.832 300.577C411.934 300.335 411.988 300.076 411.99 299.813C411.981 299.345 411.802 298.897 411.486 298.552C410.448 299.365 409.464 300.244 408.54 301.183Z" fill="#040404"/>
<path d="M422.309 299.813C422.325 300.315 422.19 300.811 421.922 301.236C421.654 301.661 421.265 301.996 420.805 302.199C420.345 302.401 419.835 302.462 419.341 302.372C418.846 302.283 418.39 302.047 418.03 301.697C417.67 301.346 417.423 300.896 417.321 300.403C417.219 299.911 417.267 299.4 417.457 298.935C417.648 298.47 417.973 298.073 418.391 297.794C418.81 297.516 419.301 297.368 419.804 297.371C420.129 297.367 420.451 297.427 420.753 297.547C421.055 297.668 421.33 297.846 421.562 298.073C421.795 298.3 421.981 298.57 422.109 298.869C422.237 299.167 422.305 299.488 422.309 299.813Z" fill="white"/>
<path d="M418.355 301.183C418.63 301.473 418.985 301.673 419.375 301.758C419.765 301.844 420.172 301.811 420.543 301.664C420.914 301.516 421.232 301.261 421.457 300.931C421.682 300.602 421.803 300.212 421.805 299.813C421.803 299.344 421.623 298.893 421.301 298.552C420.263 299.365 419.279 300.244 418.355 301.183Z" fill="#040404"/>
<path d="M432.124 299.813C432.136 300.311 432 300.801 431.733 301.221C431.465 301.641 431.078 301.972 430.622 302.172C430.165 302.371 429.66 302.43 429.17 302.34C428.68 302.251 428.228 302.017 427.871 301.67C427.514 301.322 427.27 300.876 427.168 300.388C427.066 299.901 427.112 299.394 427.299 298.933C427.487 298.471 427.808 298.076 428.221 297.798C428.634 297.52 429.121 297.371 429.619 297.371C429.944 297.367 430.266 297.427 430.568 297.547C430.869 297.668 431.144 297.846 431.377 298.073C431.61 298.3 431.795 298.57 431.923 298.869C432.052 299.167 432.12 299.488 432.124 299.813Z" fill="white"/>
<path d="M428.169 301.183C428.447 301.47 428.803 301.668 429.193 301.753C429.583 301.837 429.989 301.804 430.361 301.657C430.732 301.51 431.051 301.257 431.278 300.928C431.505 300.6 431.629 300.212 431.635 299.813C431.626 299.345 431.447 298.897 431.131 298.552C430.085 299.361 429.096 300.24 428.169 301.183Z" fill="#040404"/>
<path d="M441.938 299.813C441.951 300.311 441.815 300.801 441.547 301.221C441.28 301.641 440.893 301.972 440.437 302.172C439.98 302.371 439.475 302.43 438.985 302.34C438.495 302.251 438.042 302.017 437.686 301.67C437.329 301.322 437.084 300.876 436.982 300.388C436.881 299.901 436.926 299.394 437.114 298.933C437.302 298.471 437.622 298.076 438.036 297.798C438.449 297.52 438.935 297.371 439.434 297.371C439.758 297.367 440.081 297.427 440.383 297.547C440.684 297.668 440.959 297.846 441.192 298.073C441.424 298.3 441.61 298.57 441.738 298.869C441.866 299.167 441.934 299.488 441.938 299.813Z" fill="white"/>
<path d="M437.937 301.183C438.126 301.377 438.351 301.531 438.6 301.637C438.849 301.742 439.116 301.797 439.386 301.798C439.649 301.8 439.91 301.75 440.153 301.652C440.397 301.553 440.618 301.407 440.806 301.223C440.993 301.039 441.142 300.819 441.245 300.577C441.347 300.335 441.401 300.076 441.403 299.813C441.394 299.345 441.215 298.897 440.899 298.552C439.856 299.365 438.867 300.244 437.937 301.183Z" fill="#040404"/>
<path d="M451.753 299.813C451.766 300.311 451.63 300.801 451.362 301.221C451.095 301.641 450.708 301.972 450.251 302.172C449.795 302.371 449.29 302.43 448.8 302.34C448.31 302.251 447.857 302.017 447.501 301.67C447.144 301.322 446.899 300.876 446.797 300.388C446.695 299.901 446.741 299.394 446.929 298.933C447.116 298.471 447.437 298.076 447.851 297.798C448.264 297.52 448.75 297.371 449.248 297.371C449.573 297.367 449.896 297.427 450.197 297.547C450.499 297.668 450.774 297.846 451.007 298.073C451.239 298.3 451.425 298.57 451.553 298.869C451.681 299.167 451.749 299.488 451.753 299.813Z" fill="white"/>
<path d="M447.815 301.183C447.999 301.378 448.222 301.533 448.468 301.639C448.715 301.744 448.98 301.798 449.248 301.798C449.511 301.8 449.772 301.75 450.015 301.652C450.259 301.553 450.48 301.407 450.668 301.223C450.855 301.039 451.004 300.819 451.107 300.577C451.209 300.335 451.263 300.076 451.265 299.813C451.256 299.345 451.077 298.897 450.761 298.552C449.72 299.361 448.736 300.24 447.815 301.183Z" fill="#040404"/>
<path d="M461.568 299.813C461.584 300.314 461.449 300.809 461.182 301.234C460.915 301.659 460.527 301.994 460.068 302.197C459.609 302.4 459.1 302.461 458.606 302.373C458.112 302.285 457.655 302.051 457.295 301.702C456.934 301.353 456.686 300.904 456.583 300.413C456.479 299.922 456.524 299.411 456.712 298.946C456.9 298.481 457.223 298.082 457.639 297.802C458.055 297.521 458.546 297.371 459.048 297.371C459.705 297.362 460.339 297.614 460.811 298.072C461.284 298.529 461.556 299.155 461.568 299.813Z" fill="white"/>
<path d="M457.63 301.183C457.814 301.378 458.036 301.533 458.283 301.639C458.53 301.744 458.795 301.798 459.063 301.798C459.326 301.8 459.587 301.75 459.83 301.652C460.074 301.553 460.295 301.407 460.483 301.223C460.67 301.039 460.819 300.819 460.921 300.577C461.024 300.335 461.078 300.076 461.08 299.813C461.071 299.345 460.891 298.897 460.576 298.552C459.538 299.365 458.554 300.244 457.63 301.183Z" fill="#040404"/>
<path d="M471.399 299.813C471.411 300.311 471.275 300.801 471.007 301.221C470.74 301.641 470.353 301.972 469.897 302.172C469.44 302.371 468.935 302.43 468.445 302.34C467.955 302.251 467.503 302.017 467.146 301.67C466.789 301.322 466.544 300.876 466.443 300.388C466.341 299.901 466.387 299.394 466.574 298.933C466.762 298.471 467.083 298.076 467.496 297.798C467.909 297.52 468.396 297.371 468.894 297.371C469.219 297.367 469.541 297.427 469.843 297.547C470.144 297.668 470.419 297.846 470.652 298.073C470.885 298.3 471.07 298.57 471.198 298.869C471.326 299.167 471.394 299.488 471.399 299.813Z" fill="white"/>
<path d="M467.444 301.183C467.72 301.473 468.075 301.673 468.465 301.758C468.855 301.844 469.261 301.811 469.632 301.664C470.003 301.516 470.322 301.261 470.547 300.931C470.772 300.602 470.893 300.212 470.894 299.813C470.893 299.344 470.713 298.893 470.39 298.552C469.353 299.365 468.369 300.244 467.444 301.183Z" fill="#040404"/>
<path d="M481.214 299.813C481.226 300.311 481.09 300.801 480.822 301.221C480.555 301.641 480.168 301.972 479.712 302.172C479.255 302.371 478.75 302.43 478.26 302.34C477.77 302.251 477.318 302.017 476.961 301.67C476.604 301.322 476.359 300.876 476.258 300.388C476.156 299.901 476.201 299.394 476.389 298.933C476.577 298.471 476.898 298.076 477.311 297.798C477.724 297.52 478.211 297.371 478.709 297.371C479.034 297.367 479.356 297.427 479.658 297.547C479.959 297.668 480.234 297.846 480.467 298.073C480.7 298.3 480.885 298.57 481.013 298.869C481.141 299.167 481.21 299.488 481.214 299.813Z" fill="white"/>
<path d="M477.322 301.183C477.6 301.47 477.956 301.668 478.346 301.753C478.736 301.837 479.142 301.804 479.513 301.657C479.884 301.51 480.204 301.257 480.431 300.928C480.658 300.6 480.782 300.212 480.788 299.813C480.779 299.345 480.6 298.897 480.284 298.552C479.242 299.365 478.252 300.244 477.322 301.183Z" fill="#040404"/>
<path d="M491.028 299.813C491.041 300.311 490.905 300.801 490.637 301.221C490.37 301.641 489.983 301.972 489.526 302.172C489.07 302.371 488.564 302.43 488.074 302.34C487.584 302.251 487.132 302.017 486.776 301.67C486.419 301.322 486.174 300.876 486.072 300.388C485.97 299.901 486.016 299.394 486.204 298.933C486.391 298.471 486.712 298.076 487.125 297.798C487.539 297.52 488.025 297.371 488.523 297.371C488.848 297.367 489.171 297.427 489.472 297.547C489.774 297.668 490.049 297.846 490.282 298.073C490.514 298.3 490.7 298.57 490.828 298.869C490.956 299.167 491.024 299.488 491.028 299.813Z" fill="white"/>
<path d="M487.074 301.183C487.263 301.377 487.488 301.531 487.737 301.637C487.986 301.742 488.253 301.797 488.523 301.798C488.786 301.8 489.047 301.75 489.29 301.652C489.534 301.553 489.755 301.407 489.943 301.223C490.13 301.039 490.279 300.819 490.382 300.577C490.484 300.335 490.538 300.076 490.54 299.813C490.531 299.345 490.351 298.897 490.036 298.552C488.993 299.365 488.004 300.244 487.074 301.183Z" fill="#040404"/>
<path d="M345.634 272.086H269.683C268.034 272.086 266.45 271.439 265.271 270.285C264.093 269.13 263.415 267.559 263.382 265.91V230.873C263.382 206.974 283.248 187.518 307.666 187.518C332.085 187.518 351.967 206.974 351.967 230.873V265.91C351.934 267.565 351.251 269.14 350.066 270.296C348.881 271.451 347.289 272.094 345.634 272.086ZM275.985 259.797H339.316V230.873C339.316 222.475 335.98 214.42 330.042 208.482C324.103 202.543 316.049 199.207 307.651 199.207C299.252 199.207 291.198 202.543 285.26 208.482C279.321 214.42 275.985 222.475 275.985 230.873V259.797Z" fill="white" stroke="#040404" stroke-linecap="round" stroke-linejoin="round"/>
<path d="M355.37 255.197H258.671V335.197H355.37V255.197Z" fill="#0E2C66" stroke="#040404" stroke-linecap="round" stroke-linejoin="round"/>
<path d="M317.087 288.423C316.982 285.7 315.826 283.124 313.863 281.235C311.899 279.346 309.28 278.291 306.556 278.291C303.831 278.291 301.212 279.346 299.249 281.235C297.285 283.124 296.129 285.7 296.024 288.423C296.033 290.295 296.552 292.13 297.527 293.729C298.501 295.328 299.894 296.631 301.554 297.497L299.789 315.661H313.322L311.558 297.497C313.218 296.631 314.61 295.328 315.585 293.729C316.559 292.13 317.079 290.295 317.087 288.423Z" fill="#040404" stroke="#040404" stroke-linecap="round" stroke-linejoin="round"/>
<path d="M525.372 611.114C566.701 611.114 600.204 603.708 600.204 594.572C600.204 585.436 566.701 578.03 525.372 578.03C484.044 578.03 450.54 585.436 450.54 594.572C450.54 603.708 484.044 611.114 525.372 611.114Z" fill="#0E2C66"/>
<path opacity="0.5" d="M525.372 611.114C566.701 611.114 600.204 603.708 600.204 594.572C600.204 585.436 566.701 578.03 525.372 578.03C484.044 578.03 450.54 585.436 450.54 594.572C450.54 603.708 484.044 611.114 525.372 611.114Z" fill="white"/>
<path d="M486.239 577.652C486.239 577.652 468.09 587.861 468.09 592.776C468.09 597.691 479.291 594.666 486.617 591.201C493.943 587.735 499.756 585.151 499.756 578.345C499.756 571.539 486.239 577.652 486.239 577.652Z" fill="#0E2C66" stroke="#040404" stroke-miterlimit="10"/>
<path d="M573.123 577.652C573.123 577.652 591.271 587.861 591.271 592.776C591.271 597.691 580.07 594.666 572.745 591.201C565.419 587.735 559.606 585.151 559.606 578.345C559.606 571.539 573.123 577.652 573.123 577.652Z" fill="#0E2C66" stroke="#040404" stroke-miterlimit="10"/>
<path d="M493.58 410.548L485.845 579.606C486.915 580.486 488.151 581.14 489.481 581.53C490.81 581.92 492.205 582.037 493.58 581.874C495.981 581.519 498.173 580.311 499.756 578.471L526.018 440.481H531.422L559.243 581.055C560.905 581.975 562.751 582.513 564.647 582.63C567.341 582.63 571.595 579.227 571.595 579.227L562.709 410.659L493.58 410.548Z" fill="#040404" stroke="#040404" stroke-miterlimit="10"/>
<path d="M520.614 308.099L485.467 322.451L494.73 404.121H561.921L574.288 319.427L536.053 307.343L520.614 308.099Z" fill="#0E2C66" stroke="#040404" stroke-miterlimit="10"/>
<path d="M524.474 319.805L528.712 326.61L521.764 385.216L530.256 397.693L537.597 384.081L531.8 325.854L536.825 317.93L529.484 314.716L524.474 319.805Z" fill="#040404" stroke="#040404" stroke-miterlimit="10"/>
<path d="M529.484 314.716L523.844 324.374L513.793 310.983L519.417 304.287L529.484 314.716Z" fill="#0E2C66" stroke="#040404" stroke-miterlimit="10"/>
<path d="M529.484 314.716L536.321 325.35L544.561 310.195L539.74 304.082L529.484 314.716Z" fill="#0E2C66" stroke="#040404" stroke-miterlimit="10"/>
<path d="M515.841 337.575H492.162V345.641L504.009 350.179L515.841 345.137V337.575Z" fill="#0E2C66" stroke="#040404" stroke-miterlimit="10"/>
<path d="M563.214 337.575H539.535V345.641L551.366 350.179L563.214 345.137V337.575Z" fill="#0E2C66" stroke="#040404" stroke-miterlimit="10"/>
<path d="M562.709 402.608H493.58V410.548H562.709V402.608Z" fill="#040404" stroke="#040404" stroke-miterlimit="10"/>
<path d="M492.415 409.036L480.441 413.951C480.245 417.373 480.505 420.806 481.213 424.16C482.379 428.697 483.923 438.528 485.073 440.418C486.223 442.309 492.036 446.09 492.808 444.955C493.58 443.821 497.44 410.548 497.44 410.548L492.415 409.036Z" fill="#040404" stroke="#040404" stroke-miterlimit="10"/>
<path d="M519.417 290.502V304.287L529.484 314.716L539.74 304.082V290.297L519.417 290.502Z" fill="white" stroke="#040404" stroke-miterlimit="10"/>
<path d="M512.391 277.71C512.391 277.71 510.579 273.566 509.366 276.134C508.153 278.702 509.571 282.625 511.383 284.2C512.715 285.167 514.366 285.589 515.998 285.382L514.99 279.474L512.391 277.71Z" fill="white" stroke="#040404" stroke-miterlimit="10"/>
<path d="M545.159 277.71C545.159 277.71 546.971 273.566 548.184 276.134C549.397 278.702 547.979 282.625 546.168 284.2C544.829 285.168 543.174 285.59 541.536 285.382L542.544 279.474L545.159 277.71Z" fill="white" stroke="#040404" stroke-miterlimit="10"/>
<path d="M515.809 250.345C515.809 250.345 507.349 253.89 507.349 259.797C507.349 265.705 508.562 272.401 510.579 274.969C512.595 277.536 514.187 279.301 514.187 279.301L514.596 270.825L520.425 260.79C520.425 260.79 530.083 266.887 534.903 266.887C537.598 266.911 540.29 266.716 542.954 266.304L544.765 276.339L547.381 269.061V262.365C547.381 262.365 552.201 257.828 551.193 254.882C550.185 251.936 533.864 242.673 523.844 245.036C513.824 247.399 515.809 250.345 515.809 250.345Z" fill="#040404" stroke="#040404" stroke-miterlimit="10"/>
<path d="M511.776 270.227C511.776 270.227 514.187 284.988 516.203 288.927C518.855 293.297 522.106 297.274 525.861 300.742C527.263 301.719 532.493 300.931 534.51 300.931C536.526 300.931 542.387 289.116 543.348 286.957C544.309 284.799 544.923 266.288 544.923 266.288L543.159 262.948C543.159 262.948 534.51 265.122 527.672 262.365C523.961 261.036 520.641 258.799 518.015 255.859C518.015 255.859 517.416 262.554 514.99 266.493C512.564 270.431 511.776 270.227 511.776 270.227Z" fill="white" stroke="#040404" stroke-miterlimit="10"/>
<path d="M527.263 271.802C524.83 270.531 522.13 269.856 519.386 269.833C517.03 269.739 514.686 270.209 512.548 271.203C512.548 271.203 512.548 277.899 514.77 280.467C516.991 283.035 523.419 282.231 525.23 280.073C527.042 277.915 527.263 271.802 527.263 271.802Z" fill="#040404" stroke="#040404" stroke-miterlimit="10"/>
<path d="M530.083 271.802C532.515 270.531 535.215 269.856 537.96 269.833C540.315 269.739 542.659 270.209 544.797 271.203C544.797 271.203 544.797 277.899 542.576 280.467C540.354 283.035 533.927 282.231 532.131 280.073C530.335 277.915 530.083 271.802 530.083 271.802Z" fill="#040404" stroke="#040404" stroke-miterlimit="10"/>
<path d="M527.263 271.802H530.083" stroke="#040404" stroke-miterlimit="10"/>
<path d="M485.845 396.559L498.59 396.181L508.247 404.877C508.232 405.989 507.825 407.06 507.097 407.902C505.931 409.036 502.844 408.28 502.844 408.28C502.844 408.28 500.528 413.951 496.274 413.951C492.021 413.951 480.52 406.074 480.52 406.074L485.845 396.559Z" fill="white" stroke="#040404" stroke-miterlimit="10"/>
<path d="M485.467 322.451L442.6 378.788L480.441 406.011L485.845 396.559L474.266 374.251L490.099 359.883L485.467 322.451Z" fill="#0E2C66" stroke="#040404" stroke-miterlimit="10"/>
<path d="M482.757 390.131L476.204 401.852" stroke="#040404" stroke-linecap="round" stroke-linejoin="round"/>
<path d="M474.266 374.251L469.24 361.396" stroke="#040404" stroke-linecap="round" stroke-linejoin="round"/>
<path d="M574.289 396.559L561.543 396.181L551.886 404.877C551.906 405.991 552.319 407.062 553.052 407.902C554.202 409.036 557.29 408.28 557.29 408.28C557.29 408.28 559.606 413.951 563.859 413.951C568.113 413.951 579.692 406.074 579.692 406.074L574.289 396.559Z" fill="white" stroke="#040404" stroke-miterlimit="10"/>
<path d="M574.289 319.427L617.534 378.788L579.692 406.011L574.289 396.559L585.868 374.251L567.719 359.505L574.289 319.427Z" fill="#0E2C66" stroke="#040404" stroke-miterlimit="10"/>
<path d="M577.376 390.131L583.93 401.852" stroke="#040404" stroke-linecap="round" stroke-linejoin="round"/>
<path d="M585.868 374.251L590.893 361.396" stroke="#040404" stroke-linecap="round" stroke-linejoin="round"/>
<path d="M87.4084 611.114C128.737 611.114 162.24 603.708 162.24 594.572C162.24 585.436 128.737 578.03 87.4084 578.03C46.0798 578.03 12.5764 585.436 12.5764 594.572C12.5764 603.708 46.0798 611.114 87.4084 611.114Z" fill="#0E2C66"/>
<path opacity="0.5" d="M87.4084 611.114C128.737 611.114 162.24 603.708 162.24 594.572C162.24 585.436 128.737 578.03 87.4084 578.03C46.0798 578.03 12.5764 585.436 12.5764 594.572C12.5764 603.708 46.0798 611.114 87.4084 611.114Z" fill="white"/>
<path d="M48.5274 577.652C48.5274 577.652 30.3787 587.861 30.3787 592.776C30.3787 597.691 41.5798 594.666 48.9212 591.201C56.2626 587.735 62.0444 585.151 62.0444 578.345C62.0444 571.539 48.5274 577.652 48.5274 577.652Z" fill="#0E2C66" stroke="#040404" stroke-miterlimit="10"/>
<path d="M135.458 577.652C135.458 577.652 153.607 587.861 153.607 592.776C153.607 597.691 142.422 594.666 135.08 591.201C127.739 587.735 121.941 585.151 121.941 578.345C121.941 571.539 135.458 577.652 135.458 577.652Z" fill="#0E2C66" stroke="#040404" stroke-miterlimit="10"/>
<path d="M55.8687 410.548L48.1492 579.606C49.2156 580.486 50.4495 581.141 51.7764 581.531C53.1032 581.921 54.4954 582.038 55.8687 581.874C58.2692 581.519 60.4615 580.311 62.0443 578.471L88.3063 440.481H93.71L121.516 581.118C123.178 582.038 125.024 582.576 126.92 582.693C129.629 582.693 133.867 579.29 133.867 579.29L124.982 410.722L55.8687 410.548Z" fill="#040404" stroke="#040404" stroke-miterlimit="10"/>
<path d="M82.9028 308.099L47.7554 322.451L57.0188 404.121H124.226L136.577 319.427L98.3418 307.343L82.9028 308.099Z" fill="#0E2C66" stroke="#040404" stroke-miterlimit="10"/>
<path d="M124.998 402.608H55.8687V410.548H124.998V402.608Z" fill="#040404" stroke="#040404" stroke-miterlimit="10"/>
<path d="M54.7029 409.036L42.7298 413.951C42.5334 417.373 42.793 420.806 43.5017 424.16C44.6675 428.697 46.2114 438.528 47.3772 440.418C48.543 442.309 54.3248 446.09 55.0967 444.955C55.8687 443.821 59.7284 410.548 59.7284 410.548L54.7029 409.036Z" fill="#040404" stroke="#040404" stroke-miterlimit="10"/>
<path d="M81.7212 290.502V304.287L91.7723 314.716L102.028 304.082V290.297L81.7212 290.502Z" fill="white" stroke="#040404" stroke-miterlimit="10"/>
<path d="M74.6792 277.71C74.6792 277.71 72.8674 273.566 71.6544 276.134C70.4413 278.702 71.8592 282.625 73.6709 284.2C75.009 285.168 76.6647 285.59 78.3026 285.382L77.2944 279.474L74.6792 277.71Z" fill="white" stroke="#040404" stroke-miterlimit="10"/>
<path d="M107.448 277.71C107.448 277.71 109.259 273.566 110.472 276.134C111.685 278.702 110.268 282.625 108.456 284.2C107.123 285.167 105.473 285.589 103.84 285.382L104.832 279.474L107.448 277.71Z" fill="white" stroke="#040404" stroke-miterlimit="10"/>
<path d="M78.0978 250.345C78.0978 250.345 69.6536 253.89 69.6536 259.797C69.6536 265.705 70.8509 272.401 72.8044 274.969C74.7579 277.536 76.4278 279.301 76.4278 279.301L76.8217 270.825L82.6507 260.79C82.6507 260.79 92.308 266.887 97.1287 266.887C99.8235 266.911 102.516 266.716 105.179 266.304L106.991 276.339L109.606 269.061V262.365C109.606 262.365 114.427 257.828 113.418 254.882C112.41 251.936 96.0889 242.673 86.0693 245.036C76.0497 247.399 78.0978 250.345 78.0978 250.345Z" fill="#040404" stroke="#040404" stroke-miterlimit="10"/>
<path d="M74.0173 270.227C74.0173 270.227 76.4435 284.988 78.4442 288.927C81.128 293.305 84.4103 297.288 88.196 300.758C89.5981 301.735 94.8285 300.947 96.845 300.947C98.8615 300.947 104.722 289.132 105.699 286.973C106.676 284.815 107.274 266.304 107.274 266.304L105.526 262.948C105.526 262.948 96.8765 265.122 90.0392 262.365C86.3278 261.036 83.008 258.799 80.382 255.859C80.382 255.859 79.7833 262.554 77.373 266.493C74.9626 270.431 74.0173 270.227 74.0173 270.227Z" fill="white" stroke="#040404" stroke-miterlimit="10"/>
<path d="M89.551 271.802C87.1183 270.531 84.4185 269.856 81.674 269.833C79.3183 269.739 76.9744 270.209 74.8367 271.203C74.8367 271.203 74.8367 277.899 77.0422 280.467C79.2478 283.035 85.6912 282.231 87.503 280.073C89.3147 277.915 89.551 271.802 89.551 271.802Z" fill="#040404" stroke="#040404" stroke-miterlimit="10"/>
<path d="M92.3708 271.802C94.8035 270.531 97.5033 269.856 100.248 269.833C102.604 269.739 104.947 270.209 107.085 271.203C107.085 271.203 107.085 277.899 104.864 280.467C102.643 283.035 96.2306 282.231 94.4189 280.073C92.6072 277.915 92.3708 271.802 92.3708 271.802Z" fill="#040404" stroke="#040404" stroke-miterlimit="10"/>
<path d="M89.551 271.802H92.371" stroke="#040404" stroke-miterlimit="10"/>
<path d="M86.7624 319.805L91.0003 326.61L84.0527 385.216L92.5599 397.693L99.8856 384.081L94.1038 325.854L99.1136 317.93L91.7722 314.716L86.7624 319.805Z" fill="#040404" stroke="#040404" stroke-miterlimit="10"/>
<path d="M91.7724 314.716L86.1324 324.374L76.0813 310.983L81.7213 304.287L91.7724 314.716Z" fill="#0E2C66" stroke="#040404" stroke-miterlimit="10"/>
<path d="M91.7722 314.716L98.6095 325.35L106.849 310.195L102.028 304.082L91.7722 314.716Z" fill="#0E2C66" stroke="#040404" stroke-miterlimit="10"/>
<path d="M47.7553 322.451L4.88843 378.788L42.7298 406.011L48.1492 396.559L36.5542 374.251L52.387 359.883L47.7553 322.451Z" fill="#0E2C66" stroke="#040404" stroke-miterlimit="10"/>
<path d="M48.1492 396.559L60.8786 396.181L70.5358 404.877C70.5203 405.989 70.1131 407.06 69.3858 407.902C68.22 409.036 65.1322 408.28 65.1322 408.28C65.1322 408.28 62.8163 413.951 58.5627 413.951C54.3091 413.951 42.8086 406.074 42.8086 406.074L48.1492 396.559Z" fill="white" stroke="#040404" stroke-miterlimit="10"/>
<path d="M45.0614 390.131L38.4919 401.852" stroke="#040404" stroke-linecap="round" stroke-linejoin="round"/>
<path d="M36.5542 374.251L31.5444 361.396" stroke="#040404" stroke-linecap="round" stroke-linejoin="round"/>
<path d="M136.577 319.427L179.822 378.788L141.981 406.011L136.577 396.559L148.156 374.251L130.008 359.505L136.577 319.427Z" fill="#0E2C66" stroke="#040404" stroke-miterlimit="10"/>
<path d="M136.577 396.559L123.832 396.181L114.175 404.877C114.194 405.991 114.607 407.062 115.34 407.902C116.49 409.036 119.578 408.28 119.578 408.28C119.578 408.28 121.894 413.951 126.148 413.951C130.401 413.951 141.902 406.074 141.902 406.074L136.577 396.559Z" fill="white" stroke="#040404" stroke-miterlimit="10"/>
<path d="M139.665 390.131L146.234 401.852" stroke="#040404" stroke-linecap="round" stroke-linejoin="round"/>
<path d="M148.156 374.251L153.182 361.396" stroke="#040404" stroke-linecap="round" stroke-linejoin="round"/>
<path d="M78.1294 337.575H54.4509V345.641L66.298 350.179L78.1294 345.137V337.575Z" fill="#0E2C66" stroke="#040404" stroke-miterlimit="10"/>
<path d="M125.502 337.575H101.823V345.641L113.671 350.179L125.502 345.137V337.575Z" fill="#0E2C66" stroke="#040404" stroke-miterlimit="10"/>
</svg>
