<svg width="74" height="75" viewBox="0 0 74 75" fill="none" xmlns="http://www.w3.org/2000/svg">
<g clip-path="url(#clip0_529_1349)">
<path d="M15.5552 47.3877C15.5552 51.6677 12.0962 55.127 7.8162 55.127C3.53619 55.127 0.0771484 51.6677 0.0771484 47.3877C0.0771484 43.108 3.53619 39.6489 7.81649 39.6489H15.555V47.388L15.5552 47.3877ZM19.4249 47.3877C19.4249 43.108 22.884 39.6489 27.164 39.6489C31.444 39.6489 34.903 43.108 34.903 47.388V66.7354C34.903 71.0155 31.444 74.4748 27.1637 74.4748C22.8842 74.4748 19.4249 71.0155 19.4249 66.7354V47.388V47.3877Z" fill="#E01E5A"/>
<path d="M27.1644 16.314C22.8844 16.314 19.4251 12.855 19.4251 8.57499C19.4251 4.29498 22.8847 0.835938 27.1644 0.835938C31.4442 0.835938 34.9035 4.29498 34.9035 8.57499V16.3143H27.1641L27.1644 16.314ZM27.1644 20.2423C31.4444 20.2423 34.9035 23.7013 34.9035 27.9813C34.9035 32.2613 31.4444 35.7204 27.1641 35.7204H7.75838C3.47808 35.7204 0.019043 32.2613 0.019043 27.981C0.019043 23.7016 3.47808 20.2423 7.75809 20.2423H27.1641H27.1644Z" fill="#36C5F0"/>
<path d="M58.1793 27.9813C58.1793 23.7013 61.6383 20.242 65.9181 20.242C70.1981 20.242 73.6574 23.7013 73.6574 27.9813C73.6574 32.2613 70.1981 35.7204 65.9181 35.7204H58.1793V27.981V27.9813ZM54.3096 27.9813C54.3096 32.2613 50.8503 35.7204 46.5703 35.7204C42.2906 35.7204 38.8315 32.2613 38.8315 27.981V8.57527C38.8315 4.29498 42.2906 0.835938 46.5703 0.835938C50.85 0.835938 54.3094 4.29498 54.3094 8.57499V27.981L54.3096 27.9813Z" fill="#2EB67D"/>
<path d="M46.5703 58.9967C50.8503 58.9967 54.3096 62.4557 54.3096 66.7354C54.3096 71.0155 50.8503 74.4748 46.5703 74.4748C42.2906 74.4748 38.8315 71.0155 38.8315 66.7354V58.9967H46.5706H46.5703ZM46.5703 55.127C42.2906 55.127 38.8315 51.6677 38.8315 47.3877C38.8315 43.108 42.2906 39.6489 46.5706 39.6489H65.9766C70.2567 39.6489 73.716 43.108 73.716 47.388C73.716 51.6677 70.2567 55.127 65.9766 55.127H46.5706H46.5703Z" fill="#ECB22E"/>
</g>
<defs>
<clipPath id="clip0_529_1349">
<rect width="73.8729" height="73.8729" fill="white" transform="translate(0.019043 0.835938)"/>
</clipPath>
</defs>
</svg>
