<svg width="180" height="180" viewBox="0 0 180 180" fill="none" xmlns="http://www.w3.org/2000/svg">
<rect width="180" height="180" rx="16" fill="url(#paint0_linear_49_73)" fill-opacity="0.28"/>
<path d="M90 38C75.6458 38 63.3906 43.0781 53.2344 53.2344C43.0781 63.3906 38 75.6458 38 90C38 103.542 42.5703 115.255 51.7109 125.141C60.8516 135.026 72.1927 140.51 85.7344 141.594V142H94.2656V141.594C106.859 140.51 117.659 135.5 126.664 126.562C135.669 117.625 140.646 106.859 141.594 94.2656H142V85.7344H141.594C140.51 72.1927 135.026 60.8516 125.141 51.7109C115.255 42.5703 103.542 38 90 38ZM94.2656 47.1406C102.661 47.9531 110.312 51.1354 117.219 56.6875L108.281 65.8281C104.354 62.849 99.6823 60.9531 94.2656 60.1406V47.1406ZM85.7344 47.1406V60.1406C80.9948 60.5469 76.3229 62.4427 71.7188 65.8281L62.7812 56.6875C69.1458 51.1354 76.7969 47.9531 85.7344 47.1406ZM56.6875 62.7812L65.8281 71.7188C62.4427 76.3229 60.5469 80.9948 60.1406 85.7344H47.1406C47.5469 77.2031 50.7292 69.5521 56.6875 62.7812ZM47.1406 94.2656H60.1406C60.9531 98.7344 62.6458 103.068 65.2188 107.266L54.8594 115.188C50.1198 108.417 47.5469 101.443 47.1406 94.2656ZM85.7344 132.859C76.526 132.047 68.1302 128.323 60.5469 121.688L70.9062 113.766C74.9688 117.016 79.776 119.047 85.3281 119.859V132.859H85.7344ZM90 111.734C83.9062 111.734 78.7604 109.635 74.5625 105.438C70.3646 101.24 68.2656 96.0938 68.2656 90C68.2656 83.9062 70.3646 78.7604 74.5625 74.5625C78.7604 70.3646 83.9062 68.2656 90 68.2656C96.0938 68.2656 101.24 70.3646 105.438 74.5625C109.635 78.7604 111.734 83.9062 111.734 90C111.734 96.0938 109.635 101.24 105.438 105.438C101.24 109.635 96.0938 111.734 90 111.734ZM94.2656 132.859V119.859C102.12 119.047 108.349 115.594 112.953 109.5L123.312 117.219C115.729 126.833 106.047 132.047 94.2656 132.859ZM128.594 109.906L118.234 102.188C119.318 98.6667 119.995 96.026 120.266 94.2656H133.266C132.453 99.8177 130.896 105.031 128.594 109.906ZM119.859 85.7344C119.047 80.3177 117.151 75.6458 114.172 71.7188L123.312 62.7812C128.865 69.6875 132.047 77.3385 132.859 85.7344H119.859ZM98.7344 90C98.7344 92.4375 97.888 94.5026 96.1953 96.1953C94.5026 97.888 92.4375 98.7344 90 98.7344C87.5625 98.7344 85.4974 97.888 83.8047 96.1953C82.112 94.5026 81.2656 92.4375 81.2656 90C81.2656 87.5625 82.112 85.4974 83.8047 83.8047C85.4974 82.112 87.5625 81.2656 90 81.2656C92.4375 81.2656 94.5026 82.112 96.1953 83.8047C97.888 85.4974 98.7344 87.5625 98.7344 90Z" fill="#0E2C66"/>
<defs>
<linearGradient id="paint0_linear_49_73" x1="0" y1="90" x2="180" y2="90" gradientUnits="userSpaceOnUse">
<stop stop-color="#0E2C66"/>
<stop offset="1" stop-color="#05DEEC"/>
</linearGradient>
</defs>
</svg>
