<svg width="400" height="54" viewBox="0 0 400 54" fill="none" xmlns="http://www.w3.org/2000/svg">
<path d="M53.1743 28.0494C52.7978 34.8942 49.7919 41.3291 44.7843 46.0106C39.7766 50.6922 33.1542 53.2585 26.2995 53.1739C19.2412 53.0113 12.5294 50.0823 7.61017 45.0181C2.69096 39.9538 -0.0418035 33.1597 0.000744179 26.0997V3.03567C-0.00811103 2.64023 0.062139 2.24702 0.207368 1.87911C0.352598 1.51121 0.569878 1.17603 0.846448 0.893267C1.12302 0.610504 1.4533 0.385857 1.8179 0.232519C2.1825 0.0791805 2.57407 0.000242907 2.9696 0.000342045H14.7121C15.1113 -0.00571865 15.5077 0.0688187 15.8775 0.219494C16.2472 0.37017 16.5828 0.593888 16.8641 0.877262C17.1454 1.16064 17.3667 1.49784 17.5147 1.86871C17.6626 2.23957 17.7342 2.63648 17.7253 3.03567V26.4542C17.7153 28.6686 18.5204 30.8093 19.9873 32.4682C21.4542 34.1271 23.4802 35.1882 25.6791 35.4494C26.9135 35.5703 28.1594 35.4308 29.3365 35.0399C30.5135 34.649 31.5954 34.0154 32.5121 33.1801C33.4289 32.3448 34.1601 31.3264 34.6585 30.1907C35.1569 29.055 35.4114 27.8273 35.4055 26.5871V20.7823C35.3948 20.657 35.3948 20.531 35.4055 20.4057C35.4108 20.2499 35.4256 20.0945 35.4498 19.9404C35.6387 19.3363 36.0158 18.8084 36.526 18.4337C37.0362 18.0591 37.6527 17.8573 38.2857 17.8578H50.0947C50.6878 17.8525 51.2681 18.0305 51.7563 18.3674C51.8891 18.4439 52.0087 18.5411 52.1108 18.6554C52.3855 18.9281 52.6033 19.2526 52.7516 19.6101C52.9 19.9676 52.9758 20.351 52.9749 20.738V26.5871C52.9536 26.9339 52.9536 27.2817 52.9749 27.6284C53.0243 27.7762 53.0912 27.9175 53.1743 28.0494Z" fill="#5849BF"/>
<path d="M88.6236 2.96934V26.0334C88.6841 33.0899 85.9713 39.8879 81.0692 44.9641C76.1671 50.0402 69.4678 52.9884 62.4135 53.174C55.7606 53.3017 49.3017 50.93 44.3123 46.5273C41.5086 44.0197 39.2689 40.9457 37.7412 37.5084C36.2135 34.0711 35.4326 30.3487 35.45 26.5873V20.716C35.4398 20.6129 35.4398 20.509 35.45 20.4058C35.4407 20.2509 35.4407 20.0955 35.45 19.9406C35.6116 19.3099 35.9774 18.7504 36.4905 18.3496C37.0036 17.9487 37.6349 17.7291 38.286 17.725H50.0063C50.6379 17.7151 51.2544 17.918 51.7566 18.3011C51.8893 18.3776 52.009 18.4748 52.1111 18.5891C52.3858 18.8618 52.6036 19.1863 52.7519 19.5438C52.9002 19.9013 52.9761 20.2847 52.9752 20.6717V26.5873C52.9538 26.934 52.9538 27.2818 52.9752 27.6286C52.9644 27.7465 52.9644 27.8652 52.9752 27.9831C53.1603 30.3599 54.282 32.5659 56.0936 34.1157C57.9051 35.6655 60.2582 36.4322 62.635 36.2471C65.0119 36.062 67.2179 34.9403 68.7677 33.1287C70.3175 31.3172 71.0842 28.9641 70.8991 26.5873V2.96934C70.8929 2.19912 71.1886 1.45711 71.7228 0.902209C72.257 0.347307 72.9873 0.0236292 73.7572 0.000488282L85.6769 0.000488282C86.0657 0.000477291 86.4507 0.0774239 86.8097 0.226893C87.1687 0.376362 87.4945 0.595398 87.7684 0.871375C88.0423 1.14735 88.2589 1.47481 88.4057 1.83489C88.5525 2.19496 88.6265 2.58052 88.6236 2.96934Z" fill="#5854FF"/>
<path d="M44.2897 17.7027C49.1842 17.7027 53.152 13.7448 53.152 8.86256C53.152 3.98031 49.1842 0.0224609 44.2897 0.0224609C39.3953 0.0224609 35.4275 3.98031 35.4275 8.86256C35.4275 13.7448 39.3953 17.7027 44.2897 17.7027Z" fill="#5849BF"/>
<path d="M134.53 39.5481H126.819L124.604 29.0242C124.493 28.581 124.316 27.717 124.072 26.3876C123.828 25.0583 123.673 23.9948 123.563 23.1086C123.563 23.8176 123.319 24.7038 123.119 25.7894C122.92 26.8751 122.721 27.8278 122.543 28.714C122.366 29.6002 121.546 33.1451 120.128 39.5481H112.33L106.348 15.5092H112.64L115.21 27.4954C115.808 30.1763 116.207 32.3032 116.428 33.8984C116.561 32.7685 116.827 31.2397 117.204 29.3122C117.581 27.3846 117.913 25.7894 118.223 24.5266L120.439 15.3984H126.487L128.503 24.5266C128.836 25.9888 129.212 27.6948 129.567 29.6002C129.921 31.5056 130.165 32.9457 130.298 33.8984C130.431 32.6798 130.83 30.5529 131.472 27.5397L134.197 15.5092H140.489L134.53 39.5481Z" fill="#020207"/>
<path d="M143.104 16.1741C143.064 15.7688 143.116 15.3597 143.253 14.9765C143.391 14.5933 143.613 14.2456 143.902 13.9585C144.67 13.4417 145.594 13.2069 146.516 13.2939C147.454 13.2151 148.389 13.4745 149.153 14.025C149.444 14.311 149.669 14.6579 149.811 15.041C149.952 15.424 150.008 15.8337 149.972 16.2406C149.972 18.1238 148.82 19.0765 146.516 19.0765C144.212 19.0765 143.104 18.0573 143.104 16.1741ZM149.751 39.5483H143.259V20.8268H149.729L149.751 39.5483Z" fill="#020207"/>
<path d="M165.525 20.4942C166.067 20.4917 166.609 20.5362 167.143 20.6272H167.497L166.921 26.72C166.193 26.5666 165.449 26.4997 164.706 26.5206C164.153 26.4723 163.597 26.5336 163.069 26.7009C162.54 26.8681 162.05 27.1382 161.626 27.4954C161.288 27.8727 161.029 28.3144 160.865 28.7941C160.701 29.2738 160.636 29.7816 160.673 30.287V39.4816H154.226V20.8266H159.034L160.053 23.8176H160.363C160.874 22.836 161.639 22.0097 162.579 21.4248C163.447 20.8285 164.473 20.5045 165.525 20.4942Z" fill="#020207"/>
<path d="M179.151 39.8805C176.496 40.0494 173.882 39.1568 171.884 37.399C170.988 36.4597 170.297 35.3445 169.855 34.124C169.412 32.9036 169.228 31.6045 169.314 30.3092C169.138 27.6681 169.996 25.0619 171.707 23.0422C172.599 22.1583 173.669 21.474 174.845 21.0347C176.022 20.5955 177.278 20.4113 178.531 20.4943C179.731 20.3989 180.938 20.5459 182.079 20.9265C183.221 21.3072 184.275 21.9136 185.178 22.7098C185.967 23.5538 186.572 24.5533 186.954 25.6444C187.335 26.7355 187.485 27.8942 187.393 29.0464V31.9266H175.828C175.824 32.3965 175.926 32.8614 176.125 33.2869C176.324 33.7125 176.616 34.088 176.98 34.3859C177.822 35.0317 178.867 35.354 179.927 35.2943C180.977 35.3029 182.025 35.1914 183.051 34.9619C184.119 34.7054 185.158 34.3417 186.152 33.8763V38.5068C185.168 39.0156 184.116 39.3812 183.029 39.5924C181.747 39.8036 180.45 39.9 179.151 39.8805ZM178.775 24.9033C178.426 24.8894 178.078 24.945 177.751 25.0667C177.424 25.1884 177.124 25.3738 176.869 25.6122C176.31 26.2179 175.988 27.0042 175.961 27.8278H181.522C181.55 27.0182 181.273 26.2276 180.746 25.6122C180.487 25.361 180.177 25.1679 179.837 25.0457C179.497 24.9234 179.135 24.8749 178.775 24.9033Z" fill="#020207"/>
<path d="M196.853 39.8803C195.593 39.9047 194.361 39.507 193.353 38.7504C192.309 37.8616 191.54 36.6933 191.137 35.3827C190.556 33.7253 190.278 31.9765 190.318 30.2204C190.167 27.7114 190.802 25.2179 192.134 23.0863C192.69 22.2638 193.444 21.5949 194.327 21.1418C195.21 20.6886 196.194 20.4658 197.186 20.4941C198.175 20.4598 199.155 20.6978 200.019 21.1823C200.882 21.6667 201.596 22.379 202.082 23.2414H202.215C202.011 21.7732 201.907 20.2927 201.905 18.8103V13.8474H208.264V39.548H203.389L201.994 37.1773H201.75C201.256 38.0298 200.539 38.7318 199.677 39.208C198.814 39.6841 197.838 39.9166 196.853 39.8803ZM199.401 34.7845C199.824 34.8291 200.25 34.7626 200.639 34.5916C201.027 34.4206 201.365 34.151 201.617 33.8097C202.101 32.881 202.338 31.8432 202.304 30.7965V30.2869C202.399 29.0625 202.154 27.8354 201.595 26.742C201.343 26.3964 201.007 26.1198 200.62 25.9378C200.233 25.7558 199.806 25.6743 199.379 25.7007C198.972 25.6998 198.573 25.811 198.225 26.0221C197.877 26.2331 197.594 26.5358 197.407 26.8971C196.882 27.9545 196.637 29.1297 196.698 30.3091C196.63 31.4606 196.875 32.6091 197.407 33.6324C197.602 33.9888 197.891 34.2847 198.243 34.4879C198.595 34.6911 198.995 34.7937 199.401 34.7845Z" fill="#020207"/>
<path d="M236.778 39.548L235.604 35.1168H227.739L226.52 39.548H219.342L227.207 15.1768H235.914L243.912 39.548H236.778ZM234.252 29.6666L233.211 25.7007C232.967 24.8145 232.657 23.6845 232.325 22.2887C231.992 20.8929 231.749 19.9402 231.638 19.2756C231.638 19.8294 231.328 20.76 231.04 22.045C230.752 23.33 230.109 25.8779 229.112 29.6666H234.252Z" fill="#020207"/>
<path d="M260.618 33.8098C260.652 34.6591 260.482 35.5042 260.124 36.2749C259.766 37.0457 259.228 37.7197 258.557 38.241C256.815 39.3679 254.756 39.9039 252.686 39.7697C251.478 39.7854 250.271 39.7114 249.075 39.5481C248 39.3872 246.945 39.1124 245.928 38.7284V33.6769C246.994 34.1377 248.099 34.501 249.23 34.7625C250.273 35.0274 251.344 35.1686 252.42 35.1835C253.816 35.1835 254.525 34.8733 254.525 34.2308C254.51 34.044 254.447 33.8642 254.342 33.7089C254.238 33.5536 254.094 33.4281 253.927 33.3446C252.827 32.7603 251.687 32.2568 250.515 31.838C249.127 31.3622 247.889 30.5292 246.925 29.423C246.205 28.4347 245.839 27.233 245.884 26.011C245.857 25.221 246.028 24.4367 246.38 23.7289C246.732 23.0211 247.254 22.412 247.9 21.9566C249.606 20.8835 251.605 20.3721 253.616 20.4943C254.788 20.4879 255.955 20.6217 257.095 20.8931C258.249 21.1968 259.375 21.597 260.463 22.0895L258.712 26.2548C257.828 25.8597 256.917 25.5265 255.987 25.2578C255.225 25.0238 254.435 24.8897 253.639 24.859C252.575 24.859 252.066 25.1248 252.066 25.6344C252.074 25.8057 252.128 25.9718 252.221 26.1157C252.315 26.2596 252.444 26.3764 252.597 26.4542C253.641 26.9734 254.713 27.432 255.81 27.8278C256.849 28.2324 257.832 28.7685 258.734 29.423C259.353 29.8994 259.84 30.5244 260.152 31.2398C260.484 32.0549 260.643 32.9301 260.618 33.8098Z" fill="#020207"/>
<path d="M278.652 33.8099C278.685 34.6568 278.518 35.4995 278.164 36.2695C277.809 37.0395 277.278 37.715 276.614 38.241C274.864 39.3681 272.798 39.904 270.72 39.7697C269.513 39.7845 268.306 39.7104 267.109 39.5482C266.035 39.3845 264.98 39.1097 263.963 38.7284V33.6769C265.03 34.1342 266.134 34.4974 267.264 34.7625C268.307 35.0274 269.378 35.1687 270.455 35.1835C271.872 35.1835 272.67 34.8733 272.67 34.2308C272.656 34.0468 272.595 33.8693 272.495 33.7146C272.394 33.5598 272.256 33.4326 272.094 33.3446C270.992 32.7651 269.852 32.2617 268.682 31.838C267.288 31.3619 266.043 30.5293 265.071 29.423C264.357 28.4327 263.998 27.2306 264.052 26.0111C263.998 25.238 264.136 24.4638 264.453 23.7566C264.77 23.0495 265.256 22.4313 265.868 21.9566C267.565 20.8811 269.558 20.3693 271.562 20.4943C272.734 20.4866 273.902 20.6205 275.041 20.8931C276.202 21.1966 277.336 21.5968 278.431 22.0895L276.658 26.2548C275.777 25.8526 274.866 25.5193 273.933 25.2578C273.178 25.0242 272.396 24.8902 271.607 24.859C270.543 24.859 270.011 25.1248 270.011 25.6344C270.02 25.8087 270.076 25.9773 270.174 26.1218C270.271 26.2664 270.407 26.3813 270.565 26.4542C271.603 26.9707 272.668 27.4293 273.756 27.8278C274.799 28.2381 275.788 28.7738 276.702 29.423C277.315 29.9053 277.801 30.5287 278.12 31.2398C278.464 32.0535 278.645 32.9266 278.652 33.8099Z" fill="#020207"/>
<path d="M295.579 39.5482L294.671 37.2218H294.294C293.763 38.0809 292.993 38.7662 292.079 39.1937C291.016 39.6786 289.856 39.9136 288.689 39.8805C287.807 39.9318 286.924 39.7988 286.096 39.4898C285.268 39.1808 284.514 38.7027 283.881 38.0859C282.663 36.6874 282.049 34.8627 282.175 33.0123V20.8267H288.622V31.0183C288.566 31.9713 288.749 32.9232 289.154 33.7877C289.316 34.0944 289.563 34.3475 289.866 34.5166C290.169 34.6857 290.514 34.7634 290.86 34.7404C291.342 34.7763 291.824 34.6694 292.246 34.433C292.667 34.1966 293.01 33.8411 293.231 33.4111C293.808 32.0093 294.051 30.492 293.94 28.9799V20.8267H300.409V39.5482H295.579Z" fill="#020207"/>
<path d="M316.206 20.4942C316.748 20.4917 317.289 20.5362 317.823 20.6272H318.178L317.602 26.72C316.874 26.5666 316.13 26.4997 315.386 26.5206C314.834 26.4723 314.278 26.5336 313.749 26.7009C313.221 26.8681 312.731 27.1382 312.307 27.4954C311.968 27.8727 311.709 28.3144 311.546 28.7941C311.382 29.2738 311.317 29.7816 311.354 30.287V39.4816H304.885V20.8266H309.692L310.711 23.8176H311.022C311.533 22.836 312.298 22.0097 313.237 21.4248C314.111 20.8243 315.146 20.5001 316.206 20.4942Z" fill="#020207"/>
<path d="M333 39.5482L331.76 37.0668H331.627C330.933 38.0098 330.021 38.7702 328.968 39.2823C327.854 39.7195 326.663 39.9231 325.467 39.8805C324.7 39.9192 323.934 39.7973 323.216 39.5226C322.499 39.2479 321.847 38.8265 321.302 38.2853C320.771 37.6825 320.365 36.9806 320.106 36.2202C319.848 35.4597 319.742 34.6556 319.795 33.8542C319.738 32.9996 319.9 32.1446 320.264 31.3694C320.628 30.5943 321.184 29.9245 321.878 29.4231C323.691 28.3179 325.781 27.7494 327.904 27.7835H331.028V27.5177C331.056 27.2199 331.017 26.9198 330.915 26.6386C330.814 26.3574 330.651 26.1021 330.44 25.8906C330.228 25.6792 329.973 25.5169 329.692 25.4152C329.411 25.3135 329.111 25.2749 328.813 25.3021C327.001 25.4142 325.231 25.8889 323.606 26.6979L321.679 22.156C324.255 20.9537 327.079 20.3768 329.921 20.4722C331.942 20.3396 333.938 20.9813 335.504 22.2668C336.178 22.9022 336.704 23.6781 337.045 24.5396C337.386 25.4012 337.533 26.3271 337.476 27.2518V39.526L333 39.5482ZM328.215 35.3165C328.947 35.3312 329.659 35.0703 330.209 34.5853C330.486 34.3439 330.705 34.0434 330.851 33.706C330.997 33.3686 331.065 33.0029 331.051 32.6356V31.1955H329.566C327.351 31.1955 326.376 32.0374 326.376 33.544C326.376 34.7404 326.996 35.3165 328.215 35.3165Z" fill="#020207"/>
<path d="M353.693 39.5481V29.3344C353.737 28.3893 353.555 27.4474 353.161 26.5871C352.996 26.2786 352.745 26.0246 352.438 25.8556C352.131 25.6866 351.783 25.6098 351.433 25.6344C350.955 25.6048 350.478 25.7121 350.058 25.9435C349.638 26.175 349.293 26.5212 349.063 26.9416C348.481 28.3425 348.23 29.859 348.332 31.3727V39.5703H341.884V20.8266H346.759L347.556 23.0422H347.844C348.379 22.1864 349.148 21.5021 350.06 21.0703C351.114 20.6101 352.255 20.3834 353.405 20.4056C354.294 20.3522 355.185 20.4841 356.02 20.793C356.855 21.102 357.617 21.5812 358.257 22.2002C359.477 23.599 360.098 25.4214 359.985 27.2739V39.4595L353.693 39.5481Z" fill="#020207"/>
<path d="M373.079 39.8808C371.808 39.9724 370.531 39.7991 369.33 39.372C368.128 38.9449 367.029 38.2732 366.1 37.3994C364.411 35.4297 363.56 32.8768 363.73 30.2874C363.648 28.9723 363.833 27.6542 364.275 26.4128C364.717 25.1714 365.406 24.0324 366.3 23.0647C367.28 22.1685 368.43 21.479 369.683 21.0374C370.935 20.5958 372.264 20.4112 373.589 20.4946C375.716 20.4927 377.816 20.9777 379.726 21.9126L377.821 26.6982C377.102 26.3737 376.362 26.0997 375.605 25.8784C374.937 25.6747 374.243 25.5702 373.545 25.5682C373.069 25.5524 372.597 25.6556 372.172 25.8684C371.746 26.0812 371.38 26.3969 371.108 26.7868C370.473 27.8233 370.171 29.0297 370.244 30.2431C370.244 33.2341 371.351 34.6742 373.567 34.6742C375.513 34.6615 377.414 34.0843 379.039 33.0125V38.1527C377.268 39.3071 375.194 39.9087 373.079 39.8808Z" fill="#020207"/>
<path d="M391.823 39.8806C390.512 39.9637 389.197 39.7873 387.954 39.3615C386.71 38.9357 385.563 38.2689 384.578 37.3992C383.679 36.461 382.985 35.3465 382.539 34.1261C382.092 32.9058 381.904 31.6061 381.986 30.3094C381.81 27.6682 382.668 25.062 384.379 23.0423C385.273 22.1555 386.347 21.4695 387.527 21.0302C388.708 20.5908 389.968 20.4082 391.225 20.4944C393.611 20.342 395.96 21.1383 397.761 22.71C398.546 23.557 399.148 24.5569 399.529 25.6472C399.911 26.7375 400.063 27.8947 399.976 29.0465V31.9267H388.411C388.412 32.3959 388.516 32.8592 388.715 33.2841C388.914 33.709 389.203 34.0851 389.563 34.386C390.405 35.0318 391.451 35.3541 392.51 35.2944C393.568 35.3042 394.624 35.1927 395.656 34.9621C396.717 34.7052 397.748 34.3414 398.736 33.8764V38.507C397.751 39.0158 396.699 39.3814 395.612 39.5926C394.36 39.7986 393.092 39.8949 391.823 39.8806ZM391.446 24.9034C391.098 24.8896 390.75 24.9451 390.423 25.0668C390.096 25.1886 389.796 25.374 389.541 25.6124C388.982 26.218 388.66 27.0044 388.633 27.8279H394.194C394.222 27.0184 393.945 26.2278 393.418 25.6124C393.159 25.3612 392.849 25.168 392.509 25.0458C392.169 24.9236 391.807 24.875 391.446 24.9034Z" fill="#020207"/>
</svg>
